<svg width="127" height="49" viewBox="0 0 127 49" fill="none" xmlns="http://www.w3.org/2000/svg">
<path d="M31.5156 25.3171L33.58 26.0884C33.648 26.1337 33.7388 26.1564 33.8295 26.1791C34.1698 26.2018 34.4647 25.9749 34.5101 25.6347C34.5328 25.2944 34.3059 24.9995 33.9656 24.9541C33.8976 24.9541 33.8295 24.9541 33.7842 24.9768L31.5156 25.3171Z" fill="white"/>
<path d="M34.5569 27.8577C34.6703 27.4948 34.4888 27.1318 34.1259 27.0184C34.0351 26.9957 33.9671 26.973 33.8763 26.9957L31.1995 26.7915L33.468 28.198C33.5361 28.2434 33.6041 28.2887 33.6949 28.3114C34.0578 28.4022 34.4435 28.2207 34.5569 27.8577Z" fill="white"/>
<path d="M34.1698 30.1943C34.3739 29.8313 34.2378 29.4003 33.8975 29.1961C33.8295 29.1507 33.7614 29.1507 33.7161 29.128L30.6309 28.1299L33.0128 30.353C33.0582 30.4211 33.1262 30.4665 33.1943 30.5118C33.5346 30.6706 33.9883 30.5572 34.1698 30.1943Z" fill="white"/>
<path d="M33.3549 32.5765C33.6498 32.2589 33.6271 31.7598 33.3095 31.4649C33.2642 31.4196 33.1961 31.3742 33.128 31.3515L29.7479 29.3325L32.1072 32.5085C32.1526 32.5538 32.1753 32.6219 32.2433 32.6673C32.5609 32.9168 33.06 32.8941 33.3549 32.5765Z" fill="white"/>
<path d="M32.0817 33.6424L28.6562 30.3076L30.7206 34.6178C30.7433 34.6859 30.766 34.7313 30.8114 34.7766C31.0836 35.1623 31.628 35.2303 31.991 34.9581C32.3766 34.6859 32.4447 34.1414 32.1725 33.7785C32.1498 33.7331 32.1271 33.6877 32.0817 33.6424Z" fill="white"/>
<path d="M30.4494 35.8653C30.4494 35.8426 30.4267 35.8426 30.4267 35.8199L27.5684 31.4644L28.8387 36.5005C28.8387 36.5232 28.8387 36.5459 28.8614 36.5686V36.5912C28.8614 36.6366 28.8841 36.6593 28.9068 36.7047C29.111 37.1584 29.6327 37.3399 30.0864 37.1584C30.5401 36.9542 30.7216 36.4324 30.5401 35.9787C30.5175 35.9561 30.4948 35.9334 30.4494 35.8653Z" fill="white"/>
<path d="M26.4564 38.2025C26.4564 38.2706 26.4564 38.2932 26.4791 38.3386C26.5926 38.8377 27.069 39.1326 27.568 39.0419C28.0671 38.9284 28.362 38.452 28.2713 37.953C28.2713 37.9076 28.2486 37.8849 28.2259 37.8395V37.8169C28.2259 37.7942 28.2259 37.7942 28.2032 37.7715L26.2069 32.4404L26.4791 38.1345C26.4564 38.1798 26.4564 38.1798 26.4564 38.2025Z" fill="white"/>
<path d="M24.4849 40.4027C25.0293 40.4027 25.4604 39.9717 25.4604 39.4272C25.4604 39.3818 25.4604 39.3365 25.4377 39.2911V39.2684C25.4377 39.2457 25.4377 39.2457 25.4377 39.223L24.5303 33.2114L23.5548 39.2004C23.5548 39.223 23.5548 39.2457 23.5548 39.2684V39.2911C23.5548 39.3365 23.5321 39.3818 23.5321 39.4272C23.5094 39.9717 23.9404 40.4027 24.4849 40.4027Z" fill="white"/>
<path d="M20.2871 39.5176C20.2644 39.5856 20.219 39.6537 20.219 39.7444C20.1056 40.2889 20.4459 40.8333 21.013 40.9695C21.5574 41.0829 22.1019 40.7426 22.238 40.1755C22.2607 40.1074 22.2607 40.0167 22.2607 39.9486L22.601 33.6421L20.2871 39.5176Z" fill="white"/>
<path d="M18.6976 40.1981C18.743 40.1301 18.7657 40.0393 18.7657 39.9486L20.4671 33.5967L16.8601 39.0638C16.8147 39.1319 16.7694 39.2 16.724 39.2907C16.4745 39.8351 16.724 40.4703 17.2684 40.7199C17.8129 40.9921 18.4708 40.7652 18.6976 40.1981Z" fill="white"/>
<path d="M13.1177 38.2699C12.7547 38.769 12.8455 39.4949 13.3672 39.8579C13.8663 40.2209 14.5922 40.1301 14.9552 39.6084C15.0006 39.5403 15.0459 39.4496 15.0913 39.3815L18.3126 33.0977L13.2992 38.0884C13.2311 38.1338 13.1631 38.2019 13.1177 38.2699Z" fill="white"/>
<path d="M4.97613 37.1812L14.2998 30.4663L3.7965 35.1168C3.72844 35.1395 3.66038 35.1849 3.59233 35.2075C3.02519 35.5478 2.84371 36.2738 3.16131 36.8636C3.50159 37.4307 4.22752 37.6122 4.81734 37.2946C4.86271 37.2492 4.93076 37.2265 4.97613 37.1812Z" fill="white"/>
<path d="M9.55744 36.4105C9.05836 36.8642 9.03568 37.6128 9.4667 38.1119C9.92041 38.611 10.669 38.6337 11.1681 38.2026C11.2362 38.1346 11.2815 38.0665 11.3496 37.9985L16.2496 32.0322L9.7843 36.2744C9.71624 36.2971 9.6255 36.3424 9.55744 36.4105Z" fill="white"/>
<path d="M1.88891 30.6253C1.23104 30.8522 0.868072 31.5554 1.09493 32.2133C1.32178 32.8712 2.02502 33.2341 2.6829 33.0073C2.75095 32.9846 2.81901 32.9392 2.88707 32.9165L12.5283 28.4702L2.13845 30.5573C2.07039 30.58 1.97965 30.58 1.88891 30.6253Z" fill="white"/>
<path d="M1.45783 28.3112C1.54857 28.3112 1.63931 28.2885 1.73005 28.2431L11.0537 25.9746L1.45783 25.6797C1.36709 25.6797 1.27634 25.6797 1.1856 25.6797C0.459672 25.7477 -0.0620903 26.4056 0.0059657 27.1315C0.0967071 27.8802 0.731897 28.4019 1.45783 28.3112Z" fill="white"/>
<path d="M1.11736 23.3662C1.2081 23.3662 1.29884 23.3662 1.38958 23.3662L10.0554 23.0712L1.66181 20.9615C1.57107 20.9388 1.50301 20.9161 1.41227 20.9161C0.731708 20.8481 0.119204 21.3245 0.0511479 22.005C-0.0622788 22.6856 0.436799 23.2981 1.11736 23.3662Z" fill="white"/>
<path d="M1.97971 18.7154C2.09314 18.7608 2.20657 18.7835 2.31999 18.7835L9.62467 19.7589L3.13667 16.2427C3.04592 16.1746 2.9325 16.1293 2.81907 16.0839C2.09314 15.857 1.32184 16.2427 1.09498 16.9686C0.845446 17.6946 1.25378 18.4885 1.97971 18.7154Z" fill="white"/>
<path d="M3.63591 14.0878C3.74934 14.1559 3.88545 14.2012 3.99888 14.2239L10.0332 16.2429L5.24657 12.0688C5.15583 11.9781 5.06509 11.8873 4.95166 11.842C4.33916 11.479 3.52248 11.7059 3.1822 12.3184C2.79655 12.9309 3.02341 13.7249 3.63591 14.0878Z" fill="white"/>
<path d="M14.0944 4.31005L16.431 6.44247L16.363 3.33458C16.363 3.1531 16.3176 2.97162 16.2495 2.79014C15.9546 2.10958 15.1606 1.79198 14.4801 2.10958C13.7995 2.40448 13.4819 3.19847 13.7995 3.87903C13.8449 4.06051 13.9583 4.19663 14.0944 4.31005Z" fill="white"/>
<path d="M10.1251 7.25927L13.5279 9.48243L12.439 5.62592C12.3936 5.42175 12.3029 5.21759 12.1895 5.0361C11.6904 4.33286 10.7149 4.19675 10.0117 4.69582C9.30844 5.1949 9.17233 6.17037 9.67141 6.87361C9.80752 7.03241 9.94363 7.16852 10.1251 7.25927Z" fill="white"/>
<path d="M6.71942 10.5263L11.3472 12.7494L8.69304 8.4846C8.6023 8.3258 8.48888 8.167 8.35276 8.03089C7.74026 7.46376 6.76479 7.50913 6.22034 8.14432C5.65321 8.75682 5.69858 9.73229 6.33377 10.2767C6.4472 10.3675 6.58331 10.4582 6.71942 10.5263Z" fill="white"/>
<path d="M18.8116 2.49521L20.082 3.83365L20.6718 2.04151C20.7398 1.83734 20.7625 1.63317 20.7171 1.40632C20.581 0.793813 19.9912 0.385477 19.356 0.498904C18.7435 0.635016 18.3352 1.22483 18.4486 1.86002C18.5167 2.10956 18.6301 2.33642 18.8116 2.49521Z" fill="white"/>
<path d="M21.6234 18.1472L21.1697 15.6972C21.1697 15.6518 21.147 15.6064 21.1243 15.5611C20.9882 15.2435 20.6252 15.1074 20.3077 15.2435C19.9901 15.3796 19.8539 15.7426 19.9901 16.0601C20.0127 16.1055 20.0354 16.1509 20.0808 16.1963L21.6234 18.1472Z" fill="white"/>
<path d="M21.7141 14.8585C21.7141 14.9039 21.7368 14.9492 21.7595 14.9946L23.0299 17.6942V14.7224V14.6997V14.677C23.0299 14.6316 23.0299 14.609 23.0072 14.5636C22.9391 14.2006 22.5761 13.9738 22.2132 14.0418C21.8729 14.1326 21.6234 14.4955 21.7141 14.8585Z" fill="white"/>
<path d="M24.4818 13.1113C24.0735 13.1113 23.7559 13.4516 23.7559 13.8373C23.7559 13.9053 23.7559 13.9507 23.7785 14.0187L24.5045 17.5123L25.2077 13.9734C25.2077 13.928 25.2304 13.8826 25.2304 13.8373C25.2304 13.4289 24.8901 13.1113 24.4818 13.1113Z" fill="white"/>
<path d="M25.9785 17.6714L27.5892 13.6788C27.6119 13.6335 27.6345 13.5654 27.6345 13.52C27.7253 13.089 27.4531 12.6807 27.022 12.5672C26.591 12.4765 26.1827 12.7487 26.0693 13.1797C26.0466 13.2478 26.0466 13.2932 26.0466 13.3612L25.9785 17.6714Z" fill="white"/>
<path d="M29.8367 12.567C29.4057 12.3855 28.9066 12.567 28.7252 12.998C28.7025 13.0434 28.6798 13.1115 28.6798 13.1568L27.3867 18.1476L30.1997 13.8374C30.2224 13.792 30.2451 13.7466 30.2678 13.7013C30.4492 13.2476 30.2678 12.7485 29.8367 12.567Z" fill="white"/>
<path d="M32.7832 13.1565C32.3975 12.8616 31.8304 12.9524 31.5355 13.3607C31.5128 13.3834 31.4901 13.4288 31.4675 13.4515V13.4741C31.4675 13.4968 31.4448 13.5195 31.4448 13.5195L29.1309 18.1927L32.8513 14.5404C32.8739 14.5177 32.8739 14.5177 32.8966 14.495L32.9193 14.4723C32.942 14.4496 32.9647 14.4269 32.9874 14.3816C33.2823 13.9959 33.1915 13.4288 32.7832 13.1565Z" fill="white"/>
<path d="M34.4626 14.3818C34.4399 14.4045 34.4172 14.4499 34.3718 14.4726L34.3492 14.4953C34.3265 14.5179 34.3265 14.5179 34.3265 14.5406L30.7422 18.987L35.5061 15.8564C35.5288 15.8564 35.5288 15.8337 35.5515 15.8337L35.5742 15.811C35.5969 15.7883 35.6422 15.7656 35.6649 15.743C36.0279 15.4027 36.0732 14.8355 35.733 14.4499C35.4154 14.0642 34.8255 14.0416 34.4626 14.3818Z" fill="white"/>
<path d="M38.4793 16.5144C38.2071 16.0607 37.6173 15.9019 37.1636 16.1741C37.1182 16.1968 37.0955 16.2195 37.0502 16.2422L37.0275 16.2649C37.0048 16.2875 37.0048 16.2875 36.9821 16.3102L32.2635 20.1441L37.9349 17.9436C37.9576 17.9436 37.9803 17.9209 37.9803 17.9209H38.0029C38.0483 17.8982 38.071 17.8982 38.1164 17.8755C38.5928 17.5579 38.7516 16.9681 38.4793 16.5144Z" fill="white"/>
<path d="M40.0659 20.5977C40.6103 20.4163 40.9052 19.8491 40.7238 19.3047C40.5423 18.7602 39.9751 18.4653 39.4307 18.6468C39.3626 18.6695 39.2946 18.7149 39.2265 18.7375L33.5779 21.6413L39.8163 20.6431C39.9071 20.6431 39.9751 20.6204 40.0659 20.5977Z" fill="white"/>
<path d="M41.404 23.9098C41.9938 23.8418 42.4248 23.32 42.3795 22.7302C42.3114 22.1404 41.7897 21.7094 41.1998 21.7547C41.1091 21.7547 41.041 21.7774 40.9503 21.8001L34.6211 23.5242L41.1772 23.8872C41.2225 23.9098 41.3133 23.9098 41.404 23.9098Z" fill="white"/>
<path d="M42.2216 27.6074C42.8568 27.6755 43.4012 27.2218 43.4693 26.5866C43.5374 25.9514 43.0836 25.4069 42.4485 25.3389C42.3577 25.3389 42.267 25.3389 42.1762 25.3389L35.1211 25.7018L41.9494 27.5393C42.0628 27.5847 42.1309 27.6074 42.2216 27.6074Z" fill="white"/>
<path d="M45.761 36.8853C46.0785 36.3182 45.8744 35.5696 45.3072 35.252C45.2392 35.2293 45.1938 35.1839 45.1258 35.1612L34.7812 30.5107L43.9461 37.2029C44.0142 37.2483 44.0596 37.2937 44.1276 37.339C44.7174 37.6566 45.4434 37.4525 45.761 36.8853Z" fill="white"/>
<path d="M42.3576 31.6456C42.9928 31.8497 43.6733 31.4868 43.8775 30.8743C44.0817 30.2391 43.7187 29.5585 43.1062 29.377C43.0154 29.3544 42.9247 29.3317 42.8566 29.3317L35.2344 28.084L42.1534 31.5548C42.1761 31.5775 42.2668 31.6229 42.3576 31.6456Z" fill="white"/>
<path d="M42.6315 39.2678C42.5635 39.2224 42.5181 39.177 42.4501 39.1317L33.875 33.0293L40.794 40.9692C40.8394 41.0372 40.9075 41.1053 40.9755 41.1506C41.4973 41.6044 42.2913 41.5817 42.745 41.0599C43.1987 40.5381 43.1533 39.7442 42.6315 39.2678Z" fill="white"/>
<path d="M39.2028 42.6027C39.1575 42.5346 39.0894 42.4666 39.0214 42.3985L32.4199 35.4795L36.9343 43.9184C36.9797 44.0092 37.025 44.0772 37.0704 44.168C37.5014 44.7578 38.3181 44.8939 38.9079 44.4629C39.4977 44.0319 39.6339 43.1925 39.2028 42.6027Z" fill="white"/>
<path d="M32.8509 46.4134C33.1231 47.0486 33.8717 47.3208 34.4842 47.0486C35.1194 46.7764 35.3916 46.0277 35.1194 45.4152C35.074 45.3245 35.0286 45.2564 34.9833 45.1884L30.3555 37.793L32.7601 46.1639C32.8055 46.2546 32.8282 46.3453 32.8509 46.4134Z" fill="white"/>
<path d="M27.9734 47.5708C28.1322 48.3194 28.8581 48.7958 29.6067 48.6143C30.3554 48.4555 30.8318 47.7296 30.6503 46.981C30.6276 46.8676 30.5822 46.7541 30.5368 46.6634L27.7012 39.7217L27.928 47.2078C27.928 47.3213 27.928 47.4574 27.9734 47.5708Z" fill="white"/>
<path d="M24.5035 48.9992C25.2294 48.9992 25.7966 48.4094 25.7966 47.6834C25.7966 47.5473 25.7739 47.4339 25.7512 47.3205L24.5035 41.0366L23.2558 47.2978C23.2104 47.4112 23.1877 47.5473 23.1877 47.6834C23.2104 48.4094 23.7776 48.9992 24.5035 48.9992Z" fill="white"/>
<path d="M10.0092 44.4852C10.599 44.9162 11.4611 44.8028 11.8921 44.1903C12.0055 44.0315 12.0736 43.8727 12.1189 43.7139L13.0264 40.4019L10.1453 42.2394C9.98652 42.3301 9.85041 42.4435 9.73698 42.6023C9.28328 43.1922 9.41939 44.0542 10.0092 44.4852Z" fill="white"/>
<path d="M16.5205 46.255C16.6113 46.0735 16.6567 45.8694 16.6567 45.6652L17.0196 41.355L14.0705 44.4856C13.9117 44.6217 13.7983 44.8032 13.7076 45.0073C13.3673 45.8013 13.7076 46.7087 14.5016 47.049C15.2729 47.3893 16.1803 47.049 16.5205 46.255Z" fill="white"/>
<path d="M21.1934 47.4798C21.2388 47.321 21.2388 47.1622 21.2161 47.0034L20.8758 41.627L18.4485 46.3455C18.335 46.5043 18.267 46.6858 18.2216 46.8673C18.0401 47.6839 18.5619 48.5006 19.3786 48.6594C20.2179 48.8182 21.0119 48.2964 21.1934 47.4798Z" fill="white"/>
<path d="M6.19721 41.0369C6.62823 41.5133 7.35416 41.5587 7.83056 41.1277C7.98935 40.9916 8.0801 40.8328 8.14815 40.6513L8.94214 38.5869L6.8324 39.1314C6.65092 39.1767 6.44675 39.2675 6.28795 39.4036C5.81156 39.8346 5.76619 40.5605 6.19721 41.0369Z" fill="white"/>
<path d="M18.566 31.6912C18.3618 31.9634 18.4299 32.349 18.7021 32.5532C18.9743 32.7574 19.36 32.6893 19.5641 32.4171C19.5868 32.3717 19.6095 32.3263 19.6322 32.281L20.3581 30.2847L18.7248 31.5097C18.6567 31.5777 18.6113 31.6231 18.566 31.6912Z" fill="white"/>
<path d="M16.9514 30.5114C16.8834 30.5341 16.838 30.5795 16.77 30.6248C16.4977 30.8744 16.475 31.3054 16.7246 31.5776C16.9741 31.8498 17.4051 31.8725 17.6774 31.623C17.7227 31.5776 17.7454 31.5322 17.7908 31.4869L19.2653 29.3091L16.9514 30.5114Z" fill="white"/>
<path d="M14.8879 30.1262C15.0921 30.4665 15.5458 30.6026 15.8861 30.3984C15.9541 30.353 15.9995 30.3077 16.0676 30.2623L18.4042 28.1299L15.3643 29.06C15.2963 29.0827 15.2282 29.1054 15.1602 29.128C14.7972 29.3322 14.6838 29.7859 14.8879 30.1262Z" fill="white"/>
<path d="M14.1633 28.7878C14.2313 28.7651 14.2767 28.7424 14.3221 28.7198L17.7702 26.7915L13.8683 27.2679C13.8003 27.2679 13.7322 27.2906 13.6642 27.2906C13.2558 27.4267 13.029 27.8804 13.1424 28.2887C13.2558 28.6971 13.7549 28.9239 14.1633 28.7878Z" fill="white"/>
<path d="M12.869 26.6327L17.4742 25.3169L12.7102 24.9993C12.6422 24.9993 12.5741 24.9767 12.4834 24.9993C12.007 25.0447 11.6894 25.4757 11.7348 25.9294C11.7801 26.4058 12.2112 26.7234 12.6649 26.6781C12.7329 26.6781 12.801 26.6554 12.869 26.6327Z" fill="white"/>
<path d="M11.509 24.1146C11.5543 24.1146 11.577 24.1146 11.6224 24.1146H11.6451C11.6678 24.1146 11.6905 24.1146 11.7131 24.1146L16.8627 23.797L11.8946 22.4132C11.8719 22.4132 11.8493 22.3905 11.8266 22.3905H11.8039C11.7585 22.3905 11.7358 22.3678 11.6905 22.3678C11.2141 22.3224 10.7604 22.6627 10.715 23.1618C10.6696 23.6382 11.0099 24.0692 11.509 24.1146Z" fill="white"/>
<path d="M10.2837 19.9627C10.1249 20.4391 10.3971 20.9609 10.8735 21.097C10.9189 21.1197 10.9416 21.1197 10.9869 21.1197H11.0096C11.0323 21.1197 11.055 21.1197 11.055 21.1197L16.6583 22.0044L11.5994 19.4636C11.5768 19.4636 11.5768 19.4409 11.5541 19.4409L11.5314 19.4183C11.486 19.3956 11.4633 19.3729 11.418 19.3729C10.9416 19.2368 10.4425 19.4863 10.2837 19.9627Z" fill="white"/>
<path d="M10.6015 16.5832C10.3293 17.037 10.4881 17.6268 10.9645 17.899C11.0098 17.9217 11.0325 17.9444 11.0779 17.9444H11.1006C11.1233 17.9444 11.146 17.9671 11.146 17.9671L16.7946 20.1222L12.0987 16.3564C12.0761 16.3337 12.0761 16.3337 12.0534 16.311H12.0307C12.008 16.2883 11.9626 16.2657 11.9173 16.243C11.4636 15.9707 10.8737 16.1295 10.6015 16.5832Z" fill="white"/>
<path d="M13.3696 13.2253C13.3242 13.18 13.3015 13.1346 13.2562 13.1119C12.8251 12.7263 12.1899 12.7716 11.8043 13.18C11.4186 13.611 11.464 14.2462 11.8724 14.6318C11.895 14.6545 11.9404 14.6772 11.9858 14.6999L12.0085 14.7226C12.0311 14.7453 12.0538 14.7453 12.0538 14.7679L17.3849 18.1934L13.415 13.2707C13.415 13.2707 13.3923 13.248 13.3696 13.2253Z" fill="white"/>
<path d="M15.502 10.4127L15.4793 10.39C15.4566 10.3446 15.4339 10.2993 15.4113 10.2766C15.071 9.8002 14.3904 9.68677 13.8913 10.0271C13.4149 10.3673 13.3015 11.0479 13.6418 11.547C13.6645 11.5923 13.7099 11.615 13.7325 11.6604L13.7552 11.6831C13.7779 11.7058 13.8006 11.7285 13.8006 11.7285L18.4738 16.3336L15.5247 10.4808C15.5247 10.4581 15.502 10.4354 15.502 10.4127Z" fill="white"/>
<path d="M16.1161 8.57504C16.1615 8.6431 16.2069 8.73384 16.2522 8.80189L20.0861 14.6547L18.2939 7.89448C18.2712 7.80374 18.2485 7.713 18.2032 7.62225C17.931 7.05512 17.2731 6.80558 16.6833 7.05512C16.1161 7.30466 15.8439 7.98522 16.1161 8.57504Z" fill="white"/>
<path d="M24.507 12.4769L25.6866 1.40649C25.7093 1.33843 25.7093 1.27038 25.7093 1.20232C25.7093 0.544448 25.1649 0 24.507 0C23.8491 0 23.3047 0.544448 23.3047 1.20232C23.3047 1.27038 23.3047 1.33843 23.3274 1.40649L24.507 12.4769Z" fill="white"/>
<path d="M20.1965 4.46905C19.5386 4.60516 19.1303 5.24035 19.2664 5.89823C19.289 5.98897 19.3117 6.07971 19.3571 6.14776L22.1247 13.3844L21.671 5.64869C21.671 5.55795 21.671 5.4672 21.6483 5.37646C21.4895 4.74127 20.8543 4.33294 20.1965 4.46905Z" fill="white"/>
<path d="M30.4957 2.24623C30.5183 2.17818 30.541 2.08744 30.5637 2.01938C30.6998 1.33882 30.2688 0.680946 29.5882 0.522149C28.9077 0.386037 28.2498 0.817058 28.091 1.49762C28.0683 1.58836 28.0683 1.6791 28.0683 1.74716L27.1836 11.9556L30.4957 2.24623Z" fill="white"/>
<path d="M30.1096 11.9781L35.0097 4.10633C35.055 4.03828 35.1004 3.94754 35.1458 3.8568C35.4407 3.19892 35.1458 2.40493 34.4879 2.11002C33.83 1.81512 33.036 2.11002 32.7411 2.7679C32.6957 2.85864 32.6731 2.94938 32.6504 3.04012L30.1096 11.9781Z" fill="white"/>
<path d="M33.1953 12.6126L39.0254 6.62369C39.0935 6.55563 39.1616 6.51026 39.2069 6.41952C39.6153 5.87507 39.4792 5.08108 38.9347 4.69543C38.3903 4.2871 37.5963 4.42321 37.2106 4.96766C37.1652 5.03571 37.1199 5.12645 37.0745 5.2172L33.1953 12.6126Z" fill="white"/>
<path d="M36.2578 13.997L42.3602 10.2766C42.4736 10.2313 42.587 10.1405 42.6778 10.0498C43.2449 9.52803 43.2903 8.66599 42.7685 8.09886C42.2467 7.53172 41.3847 7.48635 40.8176 8.00811C40.7268 8.09886 40.6588 8.1896 40.5907 8.28034L36.2578 13.997Z" fill="white"/>
<path d="M39.0703 16.1741L44.9458 14.2005C45.0819 14.1778 45.1954 14.1324 45.3088 14.0644C45.9213 13.7014 46.1481 12.9074 45.7852 12.2949C45.4222 11.6824 44.6282 11.4556 44.0157 11.8185C43.9023 11.8866 43.7889 11.9773 43.6981 12.0681L39.0703 16.1741Z" fill="white"/>
<path d="M45.512 16.2424L41.3379 19.1234L46.306 18.9646C46.4875 18.9873 46.6916 18.9646 46.8731 18.8966C47.6671 18.647 48.0981 17.785 47.8486 16.991C47.599 16.197 46.737 15.766 45.943 16.0155C45.7842 16.0609 45.6481 16.129 45.512 16.2424Z" fill="white"/>
<path d="M48.9844 27.1543C49.0752 26.4057 48.5307 25.7479 47.8048 25.6798C47.6233 25.6571 47.4418 25.6798 47.283 25.7252L44.1525 26.6553L46.9881 28.1752C47.1469 28.2659 47.3284 28.334 47.5099 28.3567C48.2358 28.4247 48.9164 27.903 48.9844 27.1543Z" fill="white"/>
<path d="M47.2402 20.6437C47.036 20.6664 46.8319 20.7344 46.6504 20.8251L42.998 22.6627L46.8999 23.6835C47.1041 23.7516 47.3083 23.7742 47.5351 23.7516C48.3972 23.6608 49.0097 22.8895 48.9189 22.0502C48.8509 21.1654 48.1022 20.5529 47.2402 20.6437Z" fill="white"/>
<path d="M47.1252 30.7384C46.921 30.6703 46.7395 30.6703 46.5354 30.7157L44.5391 31.124L45.8775 32.5986C46.0136 32.7574 46.1951 32.8708 46.3993 32.9389C47.0118 33.143 47.647 32.8028 47.8511 32.1902C48.0553 31.5777 47.7377 30.9426 47.1252 30.7384Z" fill="white"/>
<path d="M62.503 16.7637C62.503 17.6938 61.7771 18.2382 60.3479 18.2382H57.5803V12.8618H60.2118C61.5503 12.8618 62.2535 13.4289 62.2535 14.2456C62.2535 14.7901 61.9813 15.1984 61.5503 15.4253C62.1174 15.6294 62.503 16.1058 62.503 16.7637ZM58.828 13.8146V15.085H60.053C60.6655 15.085 60.9831 14.8808 60.9831 14.4498C60.9831 14.0188 60.6428 13.8146 60.053 13.8146H58.828ZM61.2553 16.6503C61.2553 16.1966 60.9151 15.9924 60.2572 15.9924H58.8053V17.3081H60.2572C60.9151 17.3081 61.2553 17.104 61.2553 16.6503Z" fill="white"/>
<path d="M64.2034 12.8618H65.4511V18.2156H64.2034V12.8618Z" fill="white"/>
<path d="M67.1545 15.5616C67.1545 13.9509 68.4022 12.7939 70.0583 12.7939C70.9884 12.7939 71.7597 13.1342 72.2587 13.7467L71.4648 14.4727C71.1018 14.0643 70.6481 13.8375 70.1263 13.8375C69.1282 13.8375 68.4022 14.5407 68.4022 15.5616C68.4022 16.5824 69.1055 17.2856 70.1263 17.2856C70.6708 17.2856 71.1245 17.0815 71.4648 16.6505L72.2587 17.3764C71.7597 17.9889 70.9884 18.3292 70.0356 18.3292C68.3796 18.3292 67.1545 17.1722 67.1545 15.5616Z" fill="white"/>
<path d="M78.0208 17.2401V18.2382H73.8694V12.8618H77.9301V13.86H75.0944V15.0169H77.5898V15.9924H75.0944V17.2401H78.0208Z" fill="white"/>
<path d="M84.6677 12.8618V18.2156H83.6469L80.9927 14.9716V18.2382H79.7677V12.8618H80.7885L83.4654 16.1285V12.8618H84.6677Z" fill="white"/>
<path d="M87.82 13.8827H86.0959V12.8618H90.7691V13.8827H89.045V18.2382H87.7973V13.8827H87.82Z" fill="white"/>
<path d="M96.351 17.2401V18.2382H92.1996V12.8618H96.2603V13.86H93.4473V15.0169H95.9427V15.9924H93.4473V17.2401H96.351Z" fill="white"/>
<path d="M103.017 12.8618V18.2156H101.996L99.319 14.9716V18.2382H98.094V12.8618H99.1148L101.792 16.1285V12.8618H103.017Z" fill="white"/>
<path d="M108.577 17.0816H106.082L105.605 18.2385H104.358L106.74 12.8848H107.965L110.369 18.2385H109.076L108.577 17.0816ZM108.191 16.1515L107.352 14.0871L106.513 16.1515H108.191Z" fill="white"/>
<path d="M115.089 18.2382L114.046 16.741H113.977H112.889V18.2382H111.641V12.8618H113.955C115.384 12.8618 116.291 13.6104 116.291 14.8128C116.291 15.6067 115.883 16.1966 115.18 16.5142L116.382 18.2382H115.089ZM113.932 13.8827H112.911V15.7429H113.932C114.681 15.7429 115.066 15.3799 115.066 14.8128C115.066 14.2229 114.703 13.8827 113.932 13.8827Z" fill="white"/>
<path d="M118.08 12.8618H119.328V18.2156H118.08V12.8618Z" fill="white"/>
<path d="M121.01 15.5616C121.01 13.9736 122.258 12.7939 123.936 12.7939C125.615 12.7939 126.863 13.9736 126.863 15.5616C126.863 17.1495 125.615 18.3292 123.936 18.3292C122.258 18.3292 121.01 17.1495 121.01 15.5616ZM125.615 15.5616C125.615 14.5407 124.889 13.8375 123.936 13.8375C122.984 13.8375 122.258 14.5407 122.258 15.5616C122.258 16.5824 122.984 17.2856 123.936 17.2856C124.889 17.263 125.615 16.5824 125.615 15.5616Z" fill="white"/>
<path d="M57.5803 22.458H60.0077C61.7544 22.458 62.9567 23.5242 62.9567 25.1349C62.9567 26.7455 61.7544 27.8117 60.0077 27.8117H57.5803V22.458ZM59.9623 26.7909C61.0285 26.7909 61.7317 26.1557 61.7317 25.1349C61.7317 24.114 61.0285 23.4788 59.9623 23.4788H58.828V26.8136H59.9623V26.7909Z" fill="white"/>
<path d="M68.8333 26.8136V27.8117H64.6819V22.458H68.7426V23.4562H65.9296V24.6131H68.425V25.5886H65.9296V26.8363H68.8333V26.8136Z" fill="white"/>
<path d="M70.5801 22.458H71.8278V26.8136H74.5273V27.8344H70.6028V22.458H70.5801Z" fill="white"/>
<path d="M83.5308 24.4089C83.5308 25.6113 82.6234 26.3372 81.1943 26.3372H80.1054V27.8117H78.8577V22.458H81.2169C82.6461 22.458 83.5308 23.1839 83.5308 24.4089ZM82.2832 24.4089C82.2832 23.8191 81.8975 23.4788 81.1489 23.4788H80.128V25.339H81.1489C81.8975 25.3164 82.2832 24.9761 82.2832 24.4089Z" fill="white"/>
<path d="M89.339 26.8136V27.8117H85.1876V22.458H89.2483V23.4562H86.4353V24.6131H88.9307V25.5886H86.4353V26.8363H89.339V26.8136Z" fill="white"/>
<path d="M94.489 27.8117L93.4681 26.3145H93.4001H92.3339V27.8117H91.0862V22.458H93.4001C94.8293 22.458 95.7367 23.2066 95.7367 24.4089C95.7367 25.2029 95.3283 25.7928 94.6251 26.1103L95.8274 27.8344H94.489V27.8117ZM93.332 23.4562H92.3339V25.3164H93.3547C94.1033 25.3164 94.489 24.9534 94.489 24.3863C94.4663 23.7964 94.1033 23.4562 93.332 23.4562Z" fill="white"/>
<path d="M97.4377 25.4526V22.4581H98.6854V25.4072C98.6854 26.4281 99.1391 26.8591 99.8878 26.8591C100.636 26.8591 101.09 26.4281 101.09 25.4072V22.4581H102.315V25.4526C102.315 27.0406 101.408 27.9026 99.8878 27.9026C98.3225 27.9026 97.4377 27.0406 97.4377 25.4526ZM100.205 20.9155H101.498L100.115 22.0271H99.1845L100.205 20.9155Z" fill="white"/>
<path d="M61.2785 35.8423V36.7271H57.7396V36.0238L59.5544 34.3224C59.9627 33.9368 60.0535 33.6872 60.0535 33.4604C60.0535 33.0974 59.8039 32.8706 59.3049 32.8706C58.8965 32.8706 58.5562 33.0294 58.3294 33.347L57.5354 32.8479C57.8984 32.3261 58.5562 31.9858 59.3956 31.9858C60.4391 31.9858 61.1424 32.5303 61.1424 33.3696C61.1424 33.8234 61.0063 34.2317 60.3484 34.8442L59.2595 35.865H61.2785V35.8423Z" fill="white"/>
<path d="M62.3694 34.3907C62.3694 32.8481 63.2314 31.9634 64.3884 31.9634C65.5453 31.9634 66.4074 32.8481 66.4074 34.3907C66.4074 35.9333 65.5453 36.818 64.3884 36.818C63.2314 36.818 62.3694 35.9333 62.3694 34.3907ZM65.2958 34.3907C65.2958 33.3245 64.9101 32.8708 64.3884 32.8708C63.8439 32.8708 63.481 33.3245 63.481 34.3907C63.481 35.4569 63.8666 35.9106 64.3884 35.9106C64.9328 35.8879 65.2958 35.4569 65.2958 34.3907Z" fill="white"/>
<path d="M71.0558 35.8423V36.7271H67.5169V36.0238L69.3317 34.3224C69.7401 33.9368 69.8308 33.6872 69.8308 33.4604C69.8308 33.0974 69.5813 32.8706 69.0822 32.8706C68.6739 32.8706 68.3336 33.0294 68.1067 33.347L67.3127 32.8479C67.6757 32.3261 68.3336 31.9858 69.1729 31.9858C70.2165 31.9858 70.9197 32.5303 70.9197 33.3696C70.9197 33.8234 70.7836 34.2317 70.1257 34.8442L69.0368 35.865H71.0558V35.8423Z" fill="white"/>
<path d="M73.9841 32.0312V36.7271H72.8952V32.916H71.9651V32.0539H73.9841V32.0312Z" fill="white"/>
<path d="M77.7249 34.4136H79.6304V35.2529H77.7249V34.4136Z" fill="white"/>
<path d="M87.1184 35.8423V36.7271H83.5795V36.0238L85.3944 34.3224C85.8027 33.9368 85.8934 33.6872 85.8934 33.4604C85.8934 33.0974 85.6439 32.8706 85.1448 32.8706C84.7365 32.8706 84.3962 33.0294 84.1694 33.347L83.3754 32.8479C83.7383 32.3261 84.3962 31.9858 85.2356 31.9858C86.2791 31.9858 86.9823 32.5303 86.9823 33.3696C86.9823 33.8234 86.8462 34.2317 86.1883 34.8442L85.0995 35.865H87.1184V35.8423Z" fill="white"/>
<path d="M88.2268 34.3907C88.2268 32.8481 89.0888 31.9634 90.2458 31.9634C91.4028 31.9634 92.2648 32.8481 92.2648 34.3907C92.2648 35.9333 91.4028 36.818 90.2458 36.818C89.0662 36.818 88.2268 35.9333 88.2268 34.3907ZM91.1532 34.3907C91.1532 33.3245 90.7676 32.8708 90.2458 32.8708C89.7014 32.8708 89.3384 33.3245 89.3384 34.3907C89.3384 35.4569 89.724 35.9106 90.2458 35.9106C90.7676 35.8879 91.1532 35.4569 91.1532 34.3907Z" fill="white"/>
<path d="M96.8937 35.8423V36.7271H93.3548V36.0238L95.1696 34.3224C95.578 33.9368 95.6687 33.6872 95.6687 33.4604C95.6687 33.0974 95.4192 32.8706 94.9201 32.8706C94.5118 32.8706 94.1715 33.0294 93.9446 33.347L93.1506 32.8479C93.5136 32.3261 94.1715 31.9858 95.0108 31.9858C96.0544 31.9858 96.7576 32.5303 96.7576 33.3696C96.7576 33.8234 96.6215 34.2317 95.9636 34.8442L94.8747 35.865H96.8937V35.8423Z" fill="white"/>
<path d="M102.248 35.7519H101.477V36.7274H100.411V35.7519H97.8928V35.026L100.116 32.0542H101.25L99.2086 34.8672H100.479V33.9825H101.5V34.8672H102.271V35.7519H102.248Z" fill="white"/>
</svg>
