<svg width="84" height="50" viewBox="0 0 84 50" fill="none" xmlns="http://www.w3.org/2000/svg">
<path d="M27.0041 41.6459L25.8356 40.5573L26.315 37.4812L23.9381 36.4825C23.7883 36.4226 23.6285 36.4126 23.4687 36.4426L23.219 36.4526L22.8295 36.0531C22.7796 36.0031 22.7196 35.9532 22.6597 35.9232L20.2828 34.6049L18.4951 35.0144L18.0856 35.9732L17.5363 35.8334L15.5988 33.2367L15.7386 32.6874L14.6101 31.6887C14.5402 31.6288 14.4503 31.5788 14.3604 31.5589C14.2505 31.5289 14.0907 31.4889 13.9509 31.459C13.871 31.3791 13.5714 30.4902 13.3817 29.9409C13.3117 29.7512 12.1632 28.8423 12.1632 28.8423C12.1632 28.8423 10.795 25.8262 10.6552 25.5466C10.5653 25.3768 9.55657 24.9973 9.55657 24.9973L8.5978 22.111L8.04851 21.7015C8.04851 21.7015 7.77885 20.8826 7.63903 20.7428C7.49921 20.6029 5.85133 19.2347 5.85133 19.2347L5.58168 17.9963L5.30204 18.1761L4.70281 17.3271C4.77272 17.7266 4.09359 18.216 4.21344 18.8152C4.35326 19.4944 4.07362 20.0536 4.62291 20.7328C5.17221 21.4219 5.35197 21.7614 5.58168 22.101C5.97118 22.6803 6.27079 24.5678 6.27079 24.5678L8.18833 28.0034L10.5253 31.8485C10.5253 31.8485 13.132 36.5125 13.5414 37.2016C13.9509 37.8907 15.5988 39.3988 15.5988 39.3988C15.5988 39.3988 17.796 41.1465 17.796 41.1865C17.796 41.2264 18.3852 40.8169 18.8446 40.9368C19.304 41.0566 20.3127 41.9555 20.3127 41.9555L23.1291 44.2525L25.6359 45.3112L26.9442 43.2438L27.5734 42.6446L27.0041 41.6459Z" stroke="white" stroke-width="2" stroke-miterlimit="10"/>
<path d="M27.7843 42.1347C27.8343 42.2445 27.9441 42.4443 27.9341 42.674C27.9241 42.9736 27.7044 43.2233 27.4348 43.2732L27.265 43.4929C27.1851 43.5928 27.0952 43.6627 26.9853 43.6827L25.1078 46.9385C25.0079 47.1083 24.8481 47.2281 24.6583 47.2681C24.6084 47.278 24.5585 47.288 24.5085 47.288C24.3687 47.288 24.2289 47.2481 24.109 47.1682L12.2842 39.508C11.8748 39.2284 11.6251 38.789 11.5851 38.3096L11.4253 36.6317C11.4154 36.5119 11.3754 36.392 11.3155 36.2922L2.69657 21.8507L1.45816 21.9706C1.1985 22.0005 0.948819 21.8707 0.808999 21.651L0.16982 20.6822C0.0599617 20.5025 0.0300002 20.2927 0.0899232 20.103C0.149846 19.9132 0.289666 19.7534 0.479422 19.6735L1.01873 19.4438C0.938832 19.324 0.848947 19.1941 0.759063 19.0743C0.319628 18.4251 -0.139782 17.756 0.0399874 16.8072C0.0599617 16.6974 0.0899232 16.5975 0.119885 16.5176C0.16982 16.3977 0.229743 16.3079 0.289666 16.218C0.729101 15.5888 1.29837 15.1094 1.84766 14.63C2.00746 14.4902 2.18723 14.3304 2.41693 14.2205C2.60669 14.1307 2.80643 14.0807 2.97621 14.0308L3.24587 13.9609L3.3757 14.2106C3.59542 14.66 3.75521 15.1294 3.83511 15.6187C3.8451 15.6687 3.86507 15.7785 3.82512 15.8884C3.78517 15.9983 3.72525 16.0582 3.69529 16.0981L3.57544 16.218C3.58543 16.218 3.59542 16.228 3.59542 16.228C3.69529 16.2779 3.77519 16.3478 3.83511 16.3977C3.87506 16.4277 3.91501 16.4677 3.94497 16.4776C3.96494 16.4876 4.02486 16.4976 4.06481 16.5076C4.11475 16.5176 4.1547 16.5276 4.19465 16.5376L4.71398 16.6674C4.98363 16.7373 5.19336 16.957 5.23331 17.2367L5.32319 17.8259L5.77262 17.8758L7.07095 14.8897C7.13087 14.7399 7.25072 14.62 7.39054 14.5501L10.6663 12.8623L13.3029 9.92607V9.23695L12.8236 8.55782C12.6937 8.37806 12.6638 8.15834 12.7337 7.93862C12.8036 7.72889 12.9634 7.5691 13.1731 7.49919L13.7024 7.31942C13.9122 7.24951 14.1319 7.27947 14.3116 7.4093L15.8497 8.46794C15.9096 8.50789 15.9695 8.56781 16.0194 8.62774L18.7959 12.4328L20.274 12.5627L21.0729 11.8835C21.2727 11.7138 21.5623 11.6738 21.802 11.7837L24.7183 13.082C24.908 13.1719 25.0478 13.3317 25.1078 13.5314C25.1577 13.7312 25.1277 13.9509 24.9979 14.1107L24.1989 15.2193L25.0778 15.2892C25.4074 15.3191 25.667 15.5788 25.707 15.9084L25.9467 17.0968C25.9567 17.2866 25.8868 17.4764 25.7469 17.6162C25.6071 17.756 25.4273 17.8259 25.2276 17.8259L24.0491 17.786C23.9592 17.8059 23.6396 17.8858 22.9905 18.0556L22.571 18.1655C21.9318 18.3353 21.023 18.5749 19.7247 18.9145L17.1979 24.0179L18.9657 26.1352C19.1255 26.3749 19.1255 26.7045 18.9457 26.9342L18.7759 27.1439L18.666 27.3037H20.0642C20.4438 27.3037 20.7534 27.6133 20.7534 27.9928V28.4922L22.2614 28.4822L23.0904 27.7132C23.2901 27.5234 23.5797 27.4735 23.8394 27.5834C24.0991 27.6932 24.2589 27.9329 24.2589 28.2126V30.4796L25.2875 30.4697C25.717 30.4697 26.1264 30.6794 26.3761 31.0189L27.8542 33.0563C28.1738 33.4958 28.1439 34.085 27.7943 34.4845L27.245 35.1137L26.2463 40.4368C26.5259 40.6266 26.7856 40.8563 27.0053 41.116L27.0353 41.1459C27.0952 41.2158 27.1551 41.2758 27.1951 41.3057C27.235 41.3257 27.285 41.3457 27.3249 41.3756C27.4647 41.4755 27.5147 41.6153 27.5346 41.6852M26.8455 42.8837L26.9254 42.7838C26.9454 42.7539 27.0053 42.6839 27.0952 42.634C26.9154 42.5541 26.7756 42.4043 26.7357 42.2245L26.6358 41.8251C26.5659 41.7651 26.5159 41.6952 26.466 41.6453L26.446 41.6153C26.2363 41.3756 25.9866 41.1659 25.717 40.9861L25.4873 40.8463L25.4773 40.6665C25.4773 40.6066 25.4773 40.5567 25.4873 40.5067L26.5259 35.0238C26.5459 34.904 26.6058 34.7941 26.6857 34.7042L27.235 34.075C27.3748 33.9152 27.3848 33.6855 27.255 33.5057L25.7669 31.4584C25.6471 31.2886 25.4473 31.1887 25.2476 31.1887H24.2089C23.8294 31.1887 23.5198 30.8791 23.5198 30.4996V28.2325L23.1203 28.622L22.7009 29.0115C22.571 29.1314 22.4012 29.2013 22.2315 29.2013H20.7134C20.3339 29.2013 20.0243 28.8917 20.0243 28.5122V28.0128L18.5162 28.0228C18.2865 28.0228 18.0868 27.903 17.9669 27.7132L17.917 27.6333V27.1539L17.957 27.084C17.9669 27.064 17.9769 27.0441 17.9969 27.0241L18.1966 26.7544L18.3564 26.5547L16.5887 24.4374C16.4489 24.2277 16.4289 23.968 16.5388 23.7483L19.0755 18.6349C19.1654 18.4551 19.3252 18.3253 19.5149 18.2753C20.8133 17.9358 21.7221 17.6961 22.3613 17.5263L22.7808 17.4164C23.9393 17.1068 23.9393 17.1068 24.0391 17.1168L25.2076 17.1568L24.9779 16.0082L24.0991 15.9383C23.8494 15.9184 23.6396 15.7686 23.5298 15.5388C23.4299 15.3091 23.4499 15.0495 23.5997 14.8497L24.3987 13.7412L21.4824 12.4528L20.6834 13.1319C20.5436 13.2518 20.3539 13.3117 20.1741 13.2917L18.696 13.1619C18.4963 13.1419 18.3165 13.0421 18.1966 12.8823L15.4202 9.07716L13.9122 7.98856L13.3928 8.16833L14.012 9.01723V10.1957L11.2156 13.3317C11.1557 13.3916 11.0958 13.4515 11.0159 13.4815L7.74009 15.1693L6.44176 18.1555C6.32191 18.4351 6.03228 18.6049 5.73267 18.565L5.27326 18.515C4.96366 18.4851 4.71398 18.2354 4.66404 17.9258L4.57416 17.3365L4.06481 17.2167C4.03485 17.2067 4.01488 17.2067 3.98492 17.1967C3.88504 17.1767 3.7652 17.1568 3.65534 17.0968C3.56545 17.0469 3.48556 16.987 3.42563 16.9371C3.40566 16.9271 3.39567 16.9071 3.3757 16.8971L2.62666 17.3765L2.44689 17.0369C2.34702 16.8572 2.31706 16.5575 2.6766 16.178L3.16597 15.6687C3.10605 15.3591 3.01616 15.0595 2.89632 14.7798C2.84638 14.7998 2.79644 14.8198 2.75649 14.8397C2.61667 14.9097 2.47685 15.0295 2.33703 15.1493C1.8177 15.5988 1.28838 16.0582 0.898883 16.6075C0.858935 16.6674 0.818986 16.7173 0.799012 16.7773C0.779037 16.8172 0.76905 16.8671 0.759063 16.9271C0.62923 17.5962 0.97878 18.0956 1.36828 18.6748C1.45816 18.8047 1.54805 18.9345 1.63793 19.0743C1.74779 19.2441 1.77775 19.4538 1.70784 19.6536C1.64792 19.8433 1.49811 20.0031 1.31834 20.083L0.779037 20.3127L1.41822 21.2715L2.65662 21.1516C2.6766 21.1516 2.69657 21.1516 2.72653 21.1516C2.96623 21.1516 3.19593 21.2815 3.31578 21.4912L11.9447 35.9326C12.0545 36.1224 12.1344 36.3421 12.1444 36.5618L12.3042 38.2397C12.3242 38.5193 12.474 38.769 12.6937 38.9288L24.5185 46.5889" fill="white"/>
<path d="M82.9336 8.54826C82.8438 7.93904 82.7738 7.45966 82.7439 7.16004C82.5242 5.1726 81.8051 4.20384 80.3969 2.90551C80.2171 2.73573 80.0573 2.58592 79.9075 2.45609C78.9987 1.58721 78.6891 1.29758 77.1311 0.598477C75.9526 0.0691578 73.6955 -0.29038 72.9964 0.318837C72.4072 0.828182 71.9777 1.29758 71.8579 2.65583C71.8279 3.00538 71.8079 3.49475 71.8179 4.04405C71.8079 4.19385 71.7979 4.34366 71.788 4.50346C71.4784 4.96287 71.2287 5.4822 71.0489 6.03149C70.8691 6.60076 70.7293 7.21996 71.0889 7.7393C71.3086 8.05889 71.6382 8.28859 71.9577 8.46836C72.3572 8.69806 72.7767 8.85786 73.2061 8.97771C73.6855 9.11753 74.1849 9.19742 74.6842 9.18744C74.7741 9.18744 74.864 9.16746 74.9539 9.1375C75.0138 9.38718 75.1137 9.61688 75.2935 9.7567C75.5531 9.96643 75.8927 9.93647 76.2023 9.8366C76.2622 10.1362 76.3621 10.4258 76.5618 10.5856C76.9214 10.8653 77.4307 10.7155 77.8002 10.5357C77.8302 10.5257 77.8602 10.5057 77.8901 10.4758C77.8701 10.5557 77.8602 10.6356 77.8402 10.7255C77.5905 11.9739 76.9813 15.2496 76.7216 18.5554C76.5518 20.7925 76.5718 22.6002 76.8015 23.9684C75.4632 22.6002 73.9152 21.951 72.6568 21.6015C71.009 21.1321 69.7306 21.1521 69.6807 21.1521L69.3611 21.162L69.8205 22.0409L70.17 22.0309C73.4358 22.2407 75.9426 24.0084 77.0013 24.8773C77.241 25.7362 77.5805 26.3554 78.0299 26.7249L78.2696 26.3753C78.2497 26.3554 76.5918 24.4278 77.6404 15.6092C77.7603 15.0599 78.2397 11.4046 78.5193 9.22738C78.6791 8.21868 78.7191 7.64941 78.729 7.61945L78.3395 7.54954C78.3395 7.56951 78.2596 8.21868 78.1398 9.12751C78.0899 9.4471 78.0299 9.81663 77.95 10.2261C77.8602 10.1462 77.6604 10.1961 77.5805 10.2361C77.4707 10.286 77.3508 10.3459 77.231 10.326C77.0612 10.306 76.9513 10.1362 76.9014 9.96643C76.7616 9.53699 76.7216 9.02764 76.6917 8.56823C76.6218 7.56952 76.7016 6.5708 76.9214 5.60204C76.9813 5.35237 76.3821 5.45224 76.3321 5.69193C76.0824 6.82048 76.0125 7.99896 76.1424 9.15747C76.1524 9.24736 76.1623 9.34723 76.1723 9.4471C76.1024 9.47706 76.0325 9.48705 75.9626 9.47706C75.8028 9.45709 75.6929 9.29729 75.633 9.12751C75.4932 8.69806 75.4533 8.18872 75.4233 7.72931C75.3534 6.73059 75.4333 5.73188 75.653 4.77311C75.7129 4.51344 75.1137 4.61332 75.0638 4.85301C74.8141 5.98156 74.7442 7.16004 74.874 8.31855C74.874 8.33853 74.874 8.36849 74.884 8.38846C74.6143 8.5183 74.3547 8.5183 74.2248 8.14877C74.085 7.71932 74.0451 7.20998 74.0151 6.75057C73.9452 5.76184 74.0251 4.75314 74.2448 3.79437C74.2848 3.62459 74.075 3.58464 73.9752 3.59462C73.8453 3.60461 73.6855 3.6945 73.6456 3.86428C73.4159 4.89296 73.346 5.97157 73.4259 7.0402C73.3859 7.05018 73.346 7.07016 73.326 7.08014C73.1762 7.16004 73.0164 7.20998 72.8666 7.11011C72.6768 6.99026 72.6169 6.73059 72.567 6.4909C72.527 6.31113 72.4971 6.12138 72.4771 5.93162C72.4471 4.83303 72.4471 2.93547 72.7068 2.11653C73.1063 0.888105 73.6955 0.708336 74.2648 0.688362C74.9339 0.678375 76.7216 0.908079 77.95 1.71704C79.2384 2.56595 81.106 4.3936 81.5954 5.27247C82.0448 6.09141 83.6927 15.0898 83.453 21.981C83.2233 28.6624 80.9162 32.088 78.9887 32.9968C78.4993 32.9369 74.2548 32.4375 69.8505 31.0893L69.6307 31.0593L69.3711 31.8882L69.5908 31.9582C72.3872 32.7871 76.1324 33.7259 78.6192 33.7259C78.8189 33.7259 79.0087 33.7159 79.1885 33.7059H79.2184L79.2484 33.6959C79.3682 33.646 82.1846 32.3976 83.5229 26.0557C84.6714 20.6327 83.453 12.1636 82.9336 8.54826ZM74.904 8.90779C74.854 8.90779 74.7941 8.90779 74.7442 8.90779C74.7941 8.88782 74.844 8.87783 74.894 8.85786C74.894 8.86785 74.904 8.88782 74.904 8.90779ZM73.4159 7.31984C73.4159 7.32982 73.4159 7.33981 73.4159 7.3498C73.4658 7.80921 73.5058 8.4384 73.8353 8.748C73.4159 8.63814 73.0064 8.47835 72.6269 8.2786C72.3173 8.10882 71.9977 7.90908 71.758 7.62944C71.5982 7.44967 71.4883 7.19999 71.4584 6.94032C71.4184 6.63072 71.5083 6.32112 71.5882 6.03149C71.6481 5.84174 71.7081 5.65198 71.788 5.47221C71.7979 5.59206 71.798 5.70192 71.8179 5.82176C71.8379 6.03149 71.8679 6.24122 71.9078 6.44097C71.9478 6.70063 71.9877 6.97029 72.1275 7.19C72.4072 7.6594 73.0064 7.50959 73.4159 7.31984Z" fill="white"/>
<path d="M40.1269 44.7421C40.1568 44.7421 40.1768 44.7421 40.2068 44.7421C40.5563 44.7421 40.9658 44.5024 41.1156 44.0031C41.1955 43.7334 41.1855 42.9344 41.1456 41.6361C41.1256 40.967 41.1056 40.0981 41.1256 39.7386C43.0132 39.9183 44.4313 38.8697 45.1404 36.7824C46.1691 33.7562 45.3502 29.3419 43.5924 28.3332C42.9932 27.9937 42.0544 27.8738 40.8759 29.1522C40.5463 28.8625 40.2367 28.8925 40.0669 28.9424C39.6874 29.0623 39.4078 29.4817 39.3778 29.9711C39.3778 30.041 39.2979 42.1954 39.4278 43.9232C39.4777 44.3826 39.7474 44.7022 40.1269 44.7421ZM41.1156 37.6213C41.1156 33.1071 41.1156 32.7376 41.6349 31.3993C41.9345 30.6403 42.2841 30.2308 42.6037 30.2907C43.143 30.3906 43.7722 31.6889 43.7822 33.2868C43.8121 35.5539 43.4726 36.9122 42.7535 37.4515C42.354 37.7611 41.8147 37.811 41.1156 37.6213Z" fill="white"/>
<path d="M47.8683 41.4059C48.4375 41.6756 49.0268 41.7755 49.5461 41.7755C50.1354 41.7755 50.6247 41.6556 50.8544 41.5258C51.4537 41.1862 51.5535 40.4871 51.2939 40.0077C51.1041 39.6482 50.6747 39.3885 50.1653 39.6482C49.8357 39.818 49.0268 39.6482 48.6772 39.5283C48.088 39.3186 47.8183 38.9391 47.8084 38.27C48.7172 38.2999 49.4462 38.0602 49.9656 37.5509C50.8345 36.702 50.9643 35.2838 50.9243 34.2451C50.9144 33.9355 50.7446 33.3763 50.5648 33.1465C50.0555 32.5074 49.3763 32.3376 48.6273 32.6672C47.8583 33.0067 47.1093 33.8556 46.5999 34.9442C46.0506 36.1427 45.8509 37.5009 46.0406 38.7493C46.2603 40.0077 46.8795 40.9365 47.8683 41.4059ZM49.2465 35.5834C49.1366 36.1127 48.8171 36.5422 48.4076 36.7319C48.1979 36.8318 47.9981 36.8518 47.8283 36.8118C47.9681 35.4236 48.5574 34.6946 48.9369 34.5447C49.0468 34.4948 49.1366 34.5048 49.1966 34.5547C49.3164 34.6546 49.3963 34.9742 49.2465 35.5834Z" fill="white"/>
<path d="M51.8943 35.9238C51.8943 40.7377 51.8943 41.1371 52.5934 41.3269C52.6733 41.3469 52.7432 41.3569 52.8131 41.3569C52.9329 41.3569 53.0528 41.3269 53.1627 41.257C53.682 40.9474 53.9117 39.8987 54.2113 38.5804C54.6208 36.7428 55.1301 34.4457 56.6182 33.1175L56.6681 33.0775C57.1076 32.678 57.527 32.3085 57.3972 31.6294C57.2973 31.11 57.0277 30.9702 56.818 30.9403C55.999 30.8404 54.7206 32.3385 53.632 34.6255C53.632 34.4957 53.6321 34.3958 53.642 34.3059C53.642 34.1661 53.652 34.0263 53.652 33.7566C53.652 33.1474 53.3924 32.9077 53.2326 32.8178C53.0128 32.688 52.7332 32.698 52.4835 32.8378C52.124 33.0475 51.9143 33.467 51.9143 33.9764C51.8943 34.6954 51.8943 35.3446 51.8943 35.9238Z" fill="white"/>
<path d="M62.958 38.3797C62.5785 37.4209 62.4886 35.1039 62.4287 33.7257C62.3987 33.0066 62.3787 32.6271 62.3488 32.4873C62.2489 32.1077 61.9792 31.8681 61.6197 31.8681C61.2602 31.8681 60.8307 32.1277 60.6809 32.717C60.6709 32.7469 60.6609 32.8368 60.631 32.9666C60.2215 35.2038 59.802 36.7018 59.3526 37.4109C59.1229 36.9216 59.1629 35.823 59.2128 34.1451C59.2228 33.7357 59.2428 33.2762 59.2527 32.7869C59.2627 32.3474 59.1029 31.9879 58.8133 31.8081C58.6036 31.6783 58.3639 31.6783 58.1442 31.7981C57.9145 31.928 57.515 32.3075 57.505 33.4261C57.505 33.7456 57.485 34.0952 57.475 34.4547C57.3951 36.4322 57.3152 38.6693 58.5437 39.5182C58.8333 39.718 59.1329 39.7879 59.4325 39.708C60.0617 39.5482 60.581 38.7492 61.0105 37.9203C61.2402 39.2286 61.2702 39.3684 61.4399 39.5881C61.5997 39.7979 61.7995 39.9077 62.0292 39.9077C62.159 39.9077 62.2888 39.8678 62.4187 39.7979C62.8581 39.5582 63.1777 38.949 62.958 38.3797Z" fill="white"/>
<path d="M65.7364 41.8452C65.7264 41.8452 65.7264 41.8452 65.6964 41.8452C65.6964 41.8452 65.6565 41.8452 65.7364 41.8452ZM64.9274 41.8852H64.9374L64.8276 41.9051L64.9274 41.8852ZM64.5979 41.9051H64.6178L64.6778 41.8852C64.518 41.8952 64.3182 41.9151 64.2084 41.9151C64.2783 41.9451 64.468 41.9051 64.5979 41.9051ZM63.9087 41.8752C63.8988 41.8752 63.8988 41.8752 63.8888 41.8752C63.8688 41.8752 63.8488 41.8752 63.8189 41.8752C63.8388 41.8852 63.739 41.8852 63.9087 41.8752ZM63.8888 41.8752C63.8388 41.8652 63.9687 41.8652 63.8888 41.8752V41.8752ZM63.5592 41.8652C63.4593 41.8752 63.4793 41.8852 63.5392 41.8952L63.6391 41.8752C63.6191 41.8752 63.5292 41.8752 63.5592 41.8652ZM63.4493 41.9251L63.4993 41.9151C63.4893 41.9151 63.4793 41.9151 63.4493 41.9251ZM63.5492 41.9151C63.5392 41.9251 63.5592 41.9151 63.6091 41.9051L63.4993 41.9251C63.5192 41.9251 63.5192 41.9351 63.5492 41.9151ZM63.669 41.9051C63.729 41.9051 63.7989 41.9051 63.699 41.9251C63.8888 41.9051 63.8588 41.8852 63.669 41.9051ZM64.2483 41.9551L64.3082 41.9451C64.2783 41.9551 64.1684 41.9451 64.1684 41.9551H64.2483ZM62.92 41.9051C62.91 41.9151 62.96 41.9251 62.96 41.9451L63.0299 41.9251C62.9999 41.9251 62.92 41.9251 62.92 41.9051ZM62.96 41.9451L62.8501 41.9651C62.95 41.9651 62.9699 41.9551 62.96 41.9451ZM63.4393 41.975L63.6191 41.9351L63.4094 41.985L63.4393 41.975ZM62.4506 41.9451L62.5005 41.9251L62.5605 41.8952L62.4506 41.9451ZM62.0012 41.9451C62.0611 41.9351 62.131 41.9351 62.2209 41.9451C62.2609 41.9251 62.151 41.9151 62.2009 41.8952C62.121 41.9051 62.0511 41.9251 62.0012 41.9451ZM62.0012 41.9451C61.9712 41.9551 61.9413 41.9651 61.9013 41.975C61.9313 41.975 61.9612 41.9651 62.0012 41.9451ZM62.5705 41.9451L62.6204 41.975C62.6304 41.975 62.6504 41.975 62.6603 41.975C62.6504 41.9651 62.6404 41.9551 62.5705 41.9451ZM62.6204 41.975C62.5705 41.975 62.5405 41.975 62.5205 41.975C62.5405 41.985 62.5705 41.975 62.6204 41.975ZM63.0798 42.035C63.1297 42.015 63.0498 42.005 63.1497 41.975C63.0798 41.995 62.95 42.015 63.0798 42.035ZM62.8601 41.975L62.7402 42.005H62.8601C62.8501 41.995 62.8201 41.985 62.8601 41.975ZM62.6703 42.015L62.7303 42.005H62.6903L62.6703 42.015ZM62.1111 42.005C62.0611 42.025 62.0012 42.025 61.9413 42.035C62.0112 42.035 62.0811 42.035 62.141 42.035C62.151 42.015 62.181 41.995 62.1111 42.005ZM62.151 42.035C62.2009 42.035 62.2309 42.025 62.2609 42.015C62.2209 42.025 62.181 42.025 62.141 42.025C62.141 42.035 62.141 42.035 62.151 42.035ZM61.7315 42.015C61.7615 42.025 61.7915 42.025 61.8214 42.025C61.7915 42.015 61.7415 42.005 61.7315 42.015ZM62.3308 41.985C62.3208 41.975 62.3208 41.985 62.3308 41.985V41.985ZM62.2609 42.015C62.2908 42.015 62.3208 42.005 62.3408 41.995C62.3308 41.995 62.3308 41.995 62.3208 41.985C62.3008 41.995 62.2808 42.005 62.2609 42.015ZM61.2222 42.1548C61.2621 42.1748 61.4819 42.1748 61.392 42.2147C61.2422 42.2547 61.2621 42.2147 61.1922 42.2048C61.2621 42.2447 61.0025 42.2946 61.0424 42.3645L61.1723 42.3246C61.1723 42.3346 61.1323 42.3546 61.1623 42.3645C61.1723 42.3246 61.2921 42.2747 61.412 42.2946C61.5218 42.2547 61.4419 42.1448 61.3321 42.0949C61.3321 42.1049 61.3321 42.1249 61.2222 42.1548ZM61.3321 42.0849L61.5717 42.0649L61.5518 42.0749L61.6017 42.0649C61.5418 42.0649 61.5018 42.0549 61.4319 42.035C61.352 42.0549 61.342 42.0749 61.3321 42.0849ZM61.8214 42.025C61.8414 42.025 61.8414 42.035 61.8214 42.025C61.8214 42.035 61.8314 42.035 61.8214 42.025C61.8214 42.035 61.8114 42.045 61.8114 42.045C61.7515 42.045 61.8014 42.035 61.8214 42.025L61.6017 42.0649C61.6516 42.0649 61.7116 42.0549 61.8114 42.045C61.7815 42.0849 61.6616 42.1149 61.7415 42.1448C61.8813 42.1249 61.8414 42.1049 61.9213 42.0849C61.6916 42.1149 61.9812 42.0549 61.8214 42.0549C61.8614 42.045 61.9013 42.045 61.9413 42.035C61.9013 42.025 61.8614 42.025 61.8214 42.025ZM62.96 42.0949C62.93 42.1049 62.94 42.0949 62.96 42.0949V42.0949ZM62.95 42.0649C62.8801 42.0649 62.7902 42.045 62.7602 42.035C62.7902 42.0549 62.8102 42.0749 62.8701 42.0849C62.8801 42.0849 62.9 42.0749 62.95 42.0649C62.9999 42.0749 62.95 42.0849 62.96 42.0949C62.9899 42.0849 63.0698 42.0649 62.9699 42.0649H62.95ZM62.7602 42.045C62.7502 42.035 62.7602 42.035 62.7602 42.045C62.7502 42.035 62.7502 42.035 62.7602 42.045ZM62.2509 42.1348L62.2409 42.1149C62.3507 42.1149 62.3208 42.0949 62.3408 42.0749L62.151 42.1049L62.2509 42.1348ZM61.3221 42.025L61.2222 42.0949L61.3021 42.0649L61.3221 42.025ZM61.0624 42.0649L61.0025 42.0949L61.0624 42.1049V42.0649ZM47.5498 45.5804L47.4998 45.6104C47.5198 45.6004 47.5398 45.5904 47.5498 45.5804ZM47.9393 45.4805V45.4506C47.9293 45.4606 47.9193 45.4805 47.9393 45.4805ZM55.0701 42.9438C54.9802 42.9039 54.8803 42.8339 54.9003 42.8939L54.9303 42.9538C54.9802 42.9438 55.0302 42.9438 55.0701 42.9438ZM51.0752 44.2521C51.0852 44.2621 51.0952 44.2621 51.1052 44.2721C51.1152 44.2421 51.1352 44.2122 51.1452 44.1922C51.1152 44.2022 51.0952 44.2321 51.0752 44.2521ZM50.9554 44.5417C50.9854 44.5517 51.0153 44.5617 51.0653 44.5617L50.9554 44.5417ZM45.4425 46.2695L45.3925 46.3594C45.4924 46.3195 45.4425 46.2995 45.4425 46.2695ZM58.5556 42.4045C58.4857 42.3945 58.4258 42.3945 58.3759 42.3945C58.4657 42.4145 58.5356 42.4544 58.5556 42.4045ZM47.5498 44.7914C47.5198 44.8114 47.5098 44.8314 47.5098 44.8514C47.5498 44.8314 47.5598 44.8114 47.5498 44.7914ZM58.1761 42.4145C58.1861 42.4145 58.2061 42.4245 58.2161 42.4245C58.266 42.4045 58.3159 42.3945 58.3759 42.3945C58.3159 42.3745 58.236 42.3745 58.1761 42.4145ZM37.7823 48.7164C37.7723 48.7164 37.7723 48.7164 37.7624 48.7164C37.7624 48.7164 37.7723 48.7164 37.7823 48.7164ZM35.5452 49.4255C35.5652 49.4155 35.6051 49.3955 35.6351 49.3855C35.6151 49.3955 35.5852 49.4055 35.5452 49.4255ZM60.0637 42.1748C60.0737 42.1648 60.1236 42.1648 60.0637 42.1748V42.1748ZM60.3233 42.3546C60.3233 42.3446 60.3333 42.3346 60.3433 42.3346C60.3234 42.3346 60.3233 42.3446 60.3233 42.3546ZM57.7067 42.8539C57.7167 42.8639 57.7167 42.8639 57.7067 42.8539V42.8539ZM60.1536 42.1848C60.1336 42.1848 60.1136 42.1748 60.0837 42.1748C60.0936 42.1848 60.1136 42.1848 60.1536 42.1848ZM60.1336 42.1648C60.1536 42.1648 60.1636 42.1648 60.1835 42.1648C60.1835 42.1548 60.1835 42.1548 60.1336 42.1648ZM60.0637 42.1748C60.0437 42.1748 60.0237 42.1748 59.9938 42.1848C60.0237 42.1848 60.0537 42.1848 60.0737 42.1848C60.0737 42.1748 60.0637 42.1748 60.0637 42.1748ZM41.8371 47.1784H41.8271C41.7772 47.2183 41.7972 47.2083 41.8371 47.1784ZM53.8317 43.9225C53.8417 43.9225 53.8417 43.9225 53.8317 43.9225V43.9225ZM53.6619 44.0224C53.7218 43.9225 53.7718 43.9225 53.8317 43.9225L53.7418 43.7328L53.6619 44.0224ZM60.5431 42.2647L60.6629 42.2946C60.593 42.3845 60.4032 42.2946 60.3433 42.3346C60.3833 42.3146 60.4931 42.3146 60.4931 42.3346L60.4532 42.2747C60.2834 42.2647 60.1636 42.3346 60.0537 42.3845C60.1636 42.3945 59.9239 42.4444 60.0138 42.4744L60.1036 42.4544C60.1436 42.4744 60.0637 42.5044 60.0138 42.5343C59.7341 42.5243 59.2447 42.6542 59.1449 42.6042C59.2048 42.6142 59.3047 42.5843 59.3446 42.5543L59.2148 42.5443C59.3146 42.5243 59.4045 42.5743 59.5543 42.5343C59.5244 42.4944 59.6242 42.4145 59.5044 42.3745C59.2048 42.3446 59.2747 42.5243 58.9251 42.5643C58.8952 42.5843 58.9951 42.4744 58.8053 42.5243C58.5756 42.6042 58.4158 42.7441 58.4258 42.8539C58.5257 42.804 58.7154 42.7141 58.7554 42.784C58.6555 42.8339 58.4957 42.8739 58.4857 42.9338C58.3759 42.8639 58.6655 42.8739 58.5257 42.824C58.4558 42.8339 58.4258 42.8739 58.3958 42.8939C58.4358 42.8439 58.3259 42.8439 58.3059 42.824C58.0762 42.8539 57.9464 42.8439 57.7067 42.8739C57.6967 42.8639 57.6668 42.8339 57.6668 42.814C57.5469 42.8639 57.3971 43.0337 57.457 43.0836C57.3172 43.1136 57.3072 43.0736 57.1974 43.1136C57.3971 43.1635 57.1574 43.1036 57.1474 43.2035C57.0276 43.2334 57.0975 43.1635 57.0376 43.1535C57.0176 43.1635 56.9777 43.2035 56.9777 43.2334C56.8978 43.1735 57.0975 43.0137 56.9976 42.9438C56.9277 42.9039 56.6581 42.8439 56.6381 42.8439C56.5882 42.9338 56.6481 43.2734 56.7479 43.3633C56.7479 43.4232 56.6281 43.3233 56.5782 43.3333C56.4184 43.2734 56.3584 43.4531 56.2286 43.4432L56.3185 43.3732C56.2985 43.3533 56.1088 43.4232 56.0888 43.4631C56.0788 43.4332 56.1587 43.2734 56.0988 43.2434C55.8691 43.2734 55.6793 43.5031 55.7093 43.603L56.0389 43.4232C56.0588 43.5031 55.7992 43.563 55.8291 43.6529L55.5095 43.6928C55.5495 43.6829 55.6693 43.6329 55.6194 43.593C55.4796 43.6229 55.5495 43.593 55.4496 43.573C55.5894 43.4332 55.8491 43.1036 55.929 42.9538L55.7692 43.0437L55.7193 43.0037C55.5095 43.1136 55.3597 43.4831 55.3198 43.583C55.19 43.583 55.2099 43.3932 55.2399 43.3533C54.9902 43.3932 55.0401 43.6629 54.7905 43.6928L54.8903 43.7128C54.8304 43.7428 54.6207 43.7528 54.6506 43.7827C54.5907 43.7428 54.5308 43.6329 54.5807 43.593L54.391 43.8127C54.4209 43.7827 54.381 43.6429 54.391 43.6129C54.3011 43.6229 54.2711 43.8227 54.3311 43.8327C54.1413 43.7627 54.1912 43.8127 54.0414 43.7128C53.9915 43.7328 54.0714 43.8726 54.1113 43.8826C54.0015 43.9525 53.9316 43.9425 53.8816 43.9425C54.0614 43.8327 53.8816 43.583 53.9016 43.4631L53.562 44.0124C53.572 43.9825 53.582 43.8227 53.572 43.8127C53.562 43.9525 53.1026 44.0823 52.8729 44.1123L52.9029 44.1023C52.9428 44.0424 52.7431 44.0524 52.6732 44.1123C52.6832 44.0823 52.7031 44.0823 52.7331 44.0724C52.5633 44.0024 52.5733 44.332 52.3935 44.2421C52.5334 44.2222 52.5533 44.1622 52.5334 44.1123C52.4235 44.1922 52.1539 44.1922 52.2337 44.352C52.1539 44.332 52.0939 44.372 52.0839 44.2921L51.8243 44.4619C51.8443 44.4419 51.8542 44.382 51.7644 44.3919C51.9241 44.372 52.054 44.1822 52.1539 44.2721C52.1439 44.1722 52.074 44.1323 52.1339 44.0224C51.8343 44.1423 51.7044 44.362 51.5346 44.5318L51.255 44.5218V44.5717L51.1851 44.4619C51.1551 44.5018 51.1352 44.5218 51.1352 44.5118C51.1252 44.5018 51.1352 44.4818 51.1452 44.4619C51.1152 44.4718 51.0952 44.4918 51.0852 44.5118C51.0653 44.4519 51.0952 44.372 51.1352 44.2921C51.1651 44.312 51.1951 44.322 51.2151 44.342C51.255 44.2721 51.285 44.2022 51.2051 44.1822C51.1951 44.1922 51.1851 44.2022 51.1751 44.2122C51.2051 44.1622 51.2151 44.1223 51.1851 44.1023L50.9854 44.2122C51.0153 44.2222 51.0553 44.2521 51.0952 44.2721C50.9754 44.382 50.8555 44.5118 50.9754 44.5617L50.8056 44.5318C50.6458 44.6916 50.6758 44.6616 50.466 44.8014C50.4461 44.7615 50.496 44.7115 50.456 44.6916C50.3162 44.8613 50.0366 44.6416 50.0166 44.7715C49.8868 44.8314 49.9767 44.8913 49.9067 44.9412C49.9067 44.9312 49.9067 44.9013 49.8868 44.9013L49.8069 45.0111C49.7569 44.9912 49.8868 44.9312 49.7669 44.9213C49.5872 45.0311 49.4873 45.111 49.3175 45.111C49.0978 45.1909 49.4473 45.2508 49.2476 45.2908C49.2076 45.2309 49.1677 45.151 49.0478 45.1709C48.9979 45.2309 49.0079 45.2908 48.908 45.3407L48.898 45.2309C48.7982 45.2608 48.7283 45.3008 48.7083 45.2209C48.6384 45.2908 48.5785 45.2908 48.5285 45.2908C48.3887 45.3807 48.6783 45.4706 48.7183 45.5105C48.5585 45.4706 48.4586 45.5405 48.3587 45.4406L48.4786 45.3707C48.179 45.3207 48.2489 45.5904 48.0691 45.4106C48.169 45.3907 48.2688 45.3008 48.1989 45.2608L48.0691 45.3507C48.0491 45.3307 48.149 45.3108 48.0791 45.2908C48.0491 45.3207 47.9792 45.4006 47.9493 45.4506V45.4406L47.6996 45.5305C47.7495 45.5205 47.7495 45.4805 47.6996 45.4905L47.5498 45.5904C47.5897 45.5505 47.5398 45.5305 47.4599 45.5405C47.2402 45.5704 47.34 45.8201 47.1503 45.7602C47.1703 45.7602 47.1802 45.7402 47.2002 45.7402L47.1103 45.7202C47.1403 45.9399 46.621 45.88 46.6509 46.0997C46.5111 46.0498 46.631 46.0498 46.7608 45.91L46.621 45.88C46.6709 45.8601 46.7208 45.8601 46.7708 45.8301C46.581 45.7901 46.4512 45.9399 46.3713 46.0298C46.3014 46.0198 46.3913 45.8601 46.2115 45.94C45.9618 46.0598 46.2914 46.0798 46.1416 46.1497L46.0118 46.0698C45.832 46.2096 45.6722 46.1796 45.5024 46.2196C45.4625 46.2396 45.4525 46.2595 45.4425 46.2695C45.2527 46.2795 45.0929 46.4793 44.9531 46.4892C44.9831 46.4593 44.8632 46.4493 44.8433 46.4293L44.6135 46.5592C44.7134 46.4992 44.6934 46.4393 44.7034 46.3794C44.6335 46.4093 44.6036 46.4493 44.5536 46.4693C44.5836 46.4393 44.6036 46.4093 44.5636 46.3894L44.3339 46.5691C44.3539 46.5791 44.3838 46.5691 44.4038 46.5592C44.3439 46.5791 44.2141 46.659 44.1142 46.6391C44.1142 46.6191 44.1442 46.5791 44.1442 46.5592C44.234 46.5991 44.264 46.5292 44.294 46.4793C44.1242 46.5392 44.244 46.4793 44.1541 46.4593C44.0343 46.4992 44.0043 46.5891 44.0443 46.6291C43.9045 46.649 43.8545 46.649 43.7247 46.7489L43.7347 46.659L43.6148 46.7189L43.6947 46.5891C43.4351 46.6191 43.6748 46.7389 43.3951 46.7789L43.3751 46.709C43.2753 46.7689 43.2653 46.8887 43.1654 46.8388C43.0755 46.9087 43.3652 46.8787 43.1255 46.9686C43.0755 46.9487 42.9757 46.9487 42.9057 46.9586C42.8358 47.0086 42.9856 47.0186 43.0256 46.9886C42.6661 47.1284 42.7459 46.8388 42.4463 47.0286C42.5662 47.0385 42.3864 47.1784 42.6461 47.0885C42.5262 47.1684 42.3764 47.0785 42.2666 47.1883L42.3365 47.0785C42.2865 47.0885 42.2466 47.1384 42.2166 47.1584V47.0985C42.0768 47.2583 41.907 47.1484 41.8371 47.3182C41.8771 47.1883 41.7173 47.3681 41.6474 47.3481C41.7672 47.2283 42.0269 47.2183 42.0269 47.1184C41.957 47.1084 41.917 47.1784 41.8471 47.1684C41.8871 47.1384 41.937 47.0885 41.947 47.0685C41.7273 47.0885 41.6374 47.2383 41.5175 47.3082L41.7273 47.2083C41.7372 47.3082 41.6374 47.2583 41.5874 47.3481C41.4676 47.3382 41.3977 47.438 41.2978 47.438C41.3178 47.428 41.3178 47.418 41.3477 47.418C41.1081 47.4979 41.0082 47.3781 40.9083 47.4081C40.8084 47.428 40.6486 47.5379 40.7186 47.5479C40.6486 47.5978 41.0282 47.418 40.9183 47.5778C40.7485 47.488 40.6486 47.7177 40.3291 47.7376C40.4489 47.6478 40.2392 47.6977 40.339 47.6178C40.1992 47.6777 40.1992 47.6977 40.1493 47.7576L40.0994 47.7376C39.9396 47.8874 40.0794 47.8275 39.8097 47.9673C39.8996 47.9074 39.6799 47.9574 39.7498 47.9074C39.6699 47.9374 39.6 47.9673 39.5501 48.0073L39.56 47.9973C39.2804 48.1172 39.3204 48.0373 39.0707 48.1671L39.1006 48.1771C38.7711 48.3369 38.3416 48.4667 38.002 48.6165L38.1319 48.5865C38.0919 48.5965 37.9022 48.6964 37.7923 48.7064C37.8123 48.6964 37.8522 48.6764 37.8722 48.6764C37.8622 48.6565 37.8123 48.6565 37.7324 48.6764L37.7024 48.7164L37.6625 48.7064C37.5327 48.7563 37.7124 48.7264 37.5826 48.7763C37.4927 48.7364 37.0333 48.9661 36.9035 48.9561C36.8236 49.026 37.1432 48.8762 37.0633 48.9461C37.0233 48.9561 37.0033 48.9561 36.9234 48.976L36.9634 48.986C36.5739 49.1159 36.4241 49.1558 36.0845 49.2956L36.0945 49.2856C35.9747 49.3256 35.9047 49.3556 35.8548 49.3855C35.8248 49.3855 35.9147 49.3556 35.8648 49.3655C35.6551 49.4754 35.4353 49.5154 35.3055 49.5853C35.3155 49.5653 35.0359 49.6851 35.1557 49.6252L35.0658 49.6652C35.0958 49.6452 35.3355 49.5353 35.3854 49.5054C35.4753 49.4654 35.5652 49.4255 35.6651 49.3855C35.6551 49.3855 35.695 49.3556 35.6551 49.3755C35.725 49.3456 35.7849 49.3156 35.695 49.3456C36.0246 49.2058 36.3542 49.0559 36.6837 48.9061C37.0133 48.7563 37.3429 48.5965 37.6725 48.4867C37.7124 48.4667 37.6825 48.4567 37.6625 48.4567C37.7923 48.4467 37.7723 48.3868 37.8323 48.3568L38.022 48.3369C38.0919 48.2869 38.032 48.2969 38.032 48.2769C38.3616 48.1172 38.6912 48.0373 38.9508 47.8874C39.0407 47.8775 38.9508 47.9574 39.0607 47.9174C38.8909 47.8974 39.3803 47.7476 39.2704 47.7277C39.4003 47.7676 39.6799 47.5778 39.6699 47.7277C39.8097 47.6777 39.7698 47.6278 39.7298 47.6378C39.8896 47.5778 40.0195 47.5279 40.1293 47.438C40.2192 47.438 40.8384 47.1084 41.0082 47.1784C40.8883 47.1384 41.0082 47.1384 41.0881 47.0685L40.9882 47.0385L41.1979 46.9686C41.2379 46.9487 41.2479 46.9487 41.2479 46.9487C41.2878 46.9387 41.2479 46.9886 41.3477 46.9686C41.4876 46.9187 41.4876 46.8787 41.5575 46.8188H41.5375L41.6274 46.7789C41.6973 46.7589 41.3977 46.9387 41.6374 46.8887C41.6374 46.8688 41.7472 46.7289 41.8271 46.7489C41.7073 46.7889 41.7372 46.8288 41.7872 46.8388L41.957 46.7789L41.8771 46.709C42.1168 46.6191 42.3564 46.5492 42.6061 46.4693C42.8558 46.3994 43.1155 46.3294 43.3652 46.2396C43.3751 46.3294 43.7247 46.1197 43.7147 46.2695L43.6947 46.2595C43.5749 46.3195 43.7547 46.3494 43.8545 46.2995C43.7347 46.2895 44.0143 46.0997 43.7547 46.1697L43.9444 46.0398C43.9943 45.7502 44.4837 45.87 44.7733 45.6903C44.7534 45.7102 44.7534 45.7202 44.7534 45.7302C45.003 45.5604 45.3726 45.6104 45.4325 45.5405L45.4724 45.6104C45.6822 45.4206 45.7021 45.4006 45.9918 45.3607C45.9918 45.3707 45.9618 45.4106 46.0118 45.4106C46.0617 45.3307 46.1216 45.2508 46.3114 45.2109V45.2408C46.4112 45.2009 46.5111 45.1709 46.601 45.141C46.6509 45.3807 47.0804 44.8414 47.2202 45.0811C47.2601 44.9912 47.4799 44.9013 47.5697 44.8414C47.5697 44.8513 47.5797 44.8613 47.5997 44.8713C47.6896 44.7015 47.9393 44.8114 48.0591 44.7615C48.139 44.7015 48.0891 44.6716 48.0491 44.6416C48.2289 44.7015 48.4786 44.3919 48.5485 44.4219C48.6683 44.4019 48.6084 44.5018 48.6583 44.5517C48.8281 44.4818 48.5884 44.332 48.8481 44.372C48.8181 44.3919 48.7682 44.4119 48.7982 44.4219C48.898 44.4219 49.1078 44.6616 49.1877 44.5817L49.1178 44.5517C49.2676 44.4419 49.5472 44.6516 49.5472 44.4718L49.5172 44.3919C49.8268 44.4219 49.6371 44.332 49.9467 44.342V44.352C50.0665 44.3021 50.1564 44.382 50.1964 44.2421L50.1464 44.2321C50.3062 44.1822 50.3162 44.1822 50.476 44.1522C50.496 44.1323 50.5659 44.0923 50.5959 44.1223C50.5859 44.0124 50.9654 43.9825 51.0353 43.9725C50.9055 44.0224 50.9754 44.0524 51.0253 44.0823C51.0852 43.9725 51.1352 43.9525 51.255 43.9925C51.245 43.8526 51.245 43.7128 51.4448 43.6529C51.4148 43.6829 51.3649 43.7028 51.3948 43.7228C51.4248 43.7428 51.4647 43.7028 51.4747 43.6928C51.5047 43.7128 51.4348 43.7528 51.4647 43.7927C51.5846 43.6329 51.7044 43.7228 51.8942 43.6329C51.8343 43.6928 51.8942 43.7028 51.9242 43.7428C51.9142 43.593 52.2238 43.8027 52.1139 43.6329C52.5234 43.6529 53.1226 43.4232 53.2924 43.5131C53.3423 43.553 53.4422 43.4432 53.5121 43.4332V43.5031C53.6919 43.3433 53.6519 43.4232 53.8617 43.2634C53.7818 43.3633 53.8217 43.3832 53.9316 43.4232L54.0714 43.2634L54.1113 43.3533C54.1713 43.3033 54.2412 43.3033 54.3211 43.3033C54.2911 43.3133 54.3111 43.3133 54.3111 43.3333C54.3211 43.1935 54.6107 43.1535 54.6407 43.0836C54.7305 43.2035 54.8204 43.0137 54.8903 43.1236C54.9103 43.1036 54.9403 43.0836 54.9702 43.0636C54.9303 43.0137 54.9103 42.9538 54.9702 42.9738C54.9802 42.9738 54.9802 42.9738 54.9802 42.9738L55.0202 43.0437C55.0801 43.0137 55.15 42.9937 55.19 42.9838C55.17 42.9838 55.15 42.9738 55.12 42.9638C55.15 42.9738 55.18 42.9738 55.1999 42.9838C55.2099 42.9838 55.2199 42.9838 55.2199 42.9838L55.2099 42.9937C55.2499 43.0037 55.2898 43.0037 55.3497 42.9738C55.5894 43.0437 55.8291 42.7341 56.0988 42.8339C56.0588 42.824 56.0089 42.824 55.9989 42.8539C56.2086 42.804 56.4284 42.8739 56.5482 42.804L56.5282 42.7441C56.678 42.6941 56.7879 42.6542 56.9177 42.6342V42.5643C57.0975 42.5643 57.467 42.3945 57.5969 42.5144C57.6368 42.4544 57.8465 42.4944 57.9464 42.4644L57.9764 42.5144C58.1062 42.5144 58.1861 42.4844 58.266 42.4544C58.5456 42.5243 58.7853 42.3845 59.025 42.3645V42.3745L59.2647 42.3146C59.2048 42.3645 59.3047 42.2846 59.3846 42.2846C59.4545 42.2547 59.5843 42.2547 59.6742 42.2647L59.824 42.2447C59.6542 42.2946 59.844 42.3046 59.854 42.3546L59.9438 42.3046C59.9838 42.3246 59.8839 42.3546 59.9538 42.3546C60.0137 42.3246 60.2135 42.3046 60.2634 42.2447C60.2534 42.2347 60.2235 42.2247 60.1935 42.2147C60.1835 42.2147 60.1835 42.2147 60.1935 42.2147H60.1835C60.1835 42.2147 60.1835 42.2147 60.1935 42.2147C60.2035 42.2048 60.2135 42.2048 60.2135 42.1948C60.3333 42.1948 60.2934 42.1748 60.2834 42.1548C60.4332 42.2147 60.5031 42.1548 60.613 42.2347C60.4632 42.1548 60.9326 42.2048 60.8327 42.1249C60.9426 42.1848 60.9026 42.1249 60.9725 42.1748C60.7927 42.1348 60.6629 42.2147 60.5431 42.2647ZM41.2479 46.9886H41.2079C41.188 47.0086 41.178 47.0385 41.2479 46.9886ZM48.5085 45.2808C48.4386 45.2708 48.3987 45.2408 48.3787 45.3407C48.4187 45.3807 48.4786 45.3008 48.5085 45.2808ZM51.3848 44.332C51.3349 44.322 51.295 44.332 51.265 44.342C51.3149 44.362 51.3549 44.372 51.3848 44.332ZM59.5044 42.2846C59.4145 42.2747 59.4445 42.2846 59.5044 42.2846V42.2846ZM51.0653 44.5318C51.0553 44.5218 51.0453 44.5018 51.0453 44.4918C51.0353 44.5018 51.0353 44.5218 51.0653 44.5318ZM45.4525 46.2496C45.4425 46.2595 45.4425 46.2595 45.4425 46.2695L45.4525 46.2496ZM57.0476 43.2434C57.0076 43.2434 56.9876 43.2334 56.9777 43.2234C56.9677 43.2434 56.9876 43.2534 57.0476 43.2434ZM60.603 42.1049L60.4931 42.1249C60.5431 42.1149 60.563 42.1249 60.593 42.1348C60.593 42.1149 60.573 42.1049 60.603 42.1049ZM61.6017 42.2747C61.6217 42.2647 61.6317 42.2647 61.6516 42.2647L61.6417 42.2447C61.5817 42.2547 61.5318 42.2747 61.6017 42.2747ZM60.7228 42.2547C60.7328 42.2946 60.8027 42.2747 60.8826 42.2547H60.8726C60.8826 42.1948 60.8027 42.2247 60.7228 42.2547ZM60.9026 42.2447C60.9226 42.2447 60.9525 42.2347 60.9725 42.2347C60.9825 42.2147 60.9426 42.2347 60.9026 42.2447ZM59.9438 42.1848C59.9838 42.1249 59.7041 42.2846 59.9039 42.2247C59.9438 42.2347 59.9239 42.1648 59.9438 42.1848ZM60.7228 42.3745H60.7927L60.7628 42.3246L60.7228 42.3745ZM60.1735 42.4145H60.3034C60.3034 42.4045 60.3134 42.3945 60.3333 42.3945C60.2534 42.4045 60.1735 42.4045 60.1735 42.4145ZM60.4332 42.3745C60.4132 42.3745 60.3633 42.3845 60.3333 42.3945C60.3733 42.3945 60.4132 42.3845 60.4332 42.3745ZM60.5031 42.4145H60.633L60.593 42.4045L60.5031 42.4145ZM58.8253 42.6042L58.6954 42.6442C58.6855 42.6642 58.7254 42.6741 58.7753 42.6542C58.8053 42.6342 58.8552 42.6242 58.8253 42.6042ZM59.1948 42.7441L59.2547 42.7041C59.2148 42.6941 59.2148 42.6841 59.1848 42.6642L59.1948 42.7441ZM58.8652 42.794C58.8552 42.814 58.6755 42.8839 58.8453 42.8539C58.8552 42.824 58.9951 42.784 58.8652 42.794ZM56.8079 43.0437L56.8378 43.0337L56.8179 42.8939L56.8079 43.0437ZM55.14 43.6229C55.0501 43.6829 54.9902 43.6729 55.0501 43.7628C55.2199 43.7628 55.0701 43.6629 55.2299 43.6729C55.2599 43.6329 55.1101 43.6629 55.14 43.6229ZM55.14 43.6229C55.15 43.6129 55.17 43.603 55.19 43.593C55.16 43.6129 55.15 43.6229 55.14 43.6229ZM35.1857 49.5953L35.0858 49.6452L35.1457 49.6152L35.1857 49.5953ZM34.916 49.7251C34.936 49.7151 34.9759 49.6951 34.9959 49.6851L34.9759 49.6951L34.916 49.7251ZM48.7482 45.3807L48.8381 45.4206V45.3907C48.8181 45.3707 48.7982 45.3707 48.7482 45.3807ZM47.4399 45.7202H47.4599L47.4 45.6403L47.4399 45.7202ZM46.3114 46.1597C46.3613 46.1497 46.4112 46.1097 46.4612 46.0997C46.3613 46.1497 46.2714 46.0498 46.3114 46.1597Z" fill="white"/>
<path d="M59.7042 31.3493C59.8939 31.4092 60.0537 31.4391 60.2035 31.4391C60.2135 31.4391 60.2335 31.4391 60.2435 31.4391H60.2734C60.3933 31.4391 60.5631 31.4292 60.6829 31.3093L62.0012 29.9211C62.1011 29.8112 62.0911 29.7114 62.0811 29.6514C62.0212 29.4317 61.7016 29.3019 61.6017 29.2719C61.392 29.202 61.2222 29.1721 61.0624 29.182H61.0325C60.9126 29.182 60.7428 29.192 60.623 29.3119L59.3047 30.7001C59.2048 30.81 59.2148 30.9098 59.2248 30.9697C59.2847 31.1895 59.6043 31.3193 59.7042 31.3493Z" fill="white"/>
<path d="M38.8399 10.0163C39.3093 10.3759 39.8486 9.58687 39.9685 8.88777C40.0783 8.18867 41.0671 8.13873 41.0571 8.83784C41.0171 10.4258 39.1695 11.9139 38.011 10.8652C36.7127 9.68674 36.493 7.7792 36.6527 5.9116C37.0522 1.35745 39.529 0.698301 40.378 1.80688C41.5465 3.31494 40.0184 4.14387 39.6888 3.12518C39.589 2.7956 39.4991 2.20636 38.9498 2.55591C37.6415 3.41481 37.0123 8.63809 38.8399 10.0163Z" fill="white"/>
<path d="M41.4368 9.13745C40.6977 7.57945 41.5067 3.27498 43.7038 4.83298C44.2731 5.24245 44.4729 6.25116 44.4828 7.00019C44.5428 10.0563 42.2058 10.7654 41.4368 9.13745ZM42.7551 5.66192C42.3356 5.94156 42.006 8.36844 42.6252 8.77791C43.5041 9.34718 43.6939 5.85167 42.7551 5.66192Z" fill="white"/>
<path d="M48.3669 9.22787C48.2171 8.8184 48.307 5.85221 47.5579 5.48269C47.4481 5.5526 47.3881 5.65247 47.3282 5.74235C46.2596 7.35029 46.4194 9.63735 45.4406 9.52749C44.9213 9.46756 45.0012 9.35771 44.7615 5.243C44.7116 4.47398 45.7502 4.29422 45.8401 4.94338C45.8701 5.17309 45.9 5.76233 45.92 6.10189C46.1298 6.11188 46.6191 3.98461 48.0573 4.42405C49.2957 4.80356 49.2857 7.21047 49.4255 8.74849C49.4954 9.53747 48.5666 9.77717 48.3669 9.22787Z" fill="white"/>
<path d="M33.0973 10.4656C32.3482 10.0361 31.1598 9.87635 29.6817 11.4643C29.2622 11.1048 28.8827 11.1447 28.673 11.2146C28.2036 11.3644 27.844 11.8938 27.8041 12.503C27.7941 12.5929 27.6942 27.6135 27.874 29.7408C27.9239 30.3001 28.2635 30.6996 28.7529 30.7495C28.7828 30.7495 28.8228 30.7595 28.8627 30.7595C29.3121 30.7595 29.8215 30.4599 30.0212 29.8407C30.1211 29.5111 30.1011 28.5124 30.0612 26.9045C30.0412 26.0955 30.0112 25.0369 30.0412 24.5874C32.3982 24.7972 34.1659 23.4988 35.0548 20.9022C36.3231 17.0971 35.3344 11.7439 33.0973 10.4656ZM31.8389 12.9025C32.508 13.0223 33.277 14.6302 33.297 16.5877C33.327 19.3641 32.9175 21.042 32.0287 21.7011C31.5293 22.0707 30.8701 22.1506 30.0013 21.9209C30.0013 16.368 30.0013 15.9086 30.6504 14.2607C31.01 13.3219 31.4394 12.8226 31.8389 12.9025Z" fill="white"/>
<path d="M42.1151 24.6279C41.7955 20.7728 41.8354 18.1862 41.8654 16.4783C41.8953 14.8804 41.9053 14.1513 41.5757 13.7519C41.4359 13.5821 41.2362 13.4922 40.9865 13.4922C40.0277 13.5022 39.9778 14.391 39.858 16.1787C39.818 16.8079 39.7681 17.5969 39.6682 18.5657C39.4285 21.0824 38.8792 23.2596 38.5496 24.1485C38.2201 23.1098 38.1502 20.4632 38.1302 19.4845C38.1302 19.3247 38.1202 19.1749 38.1202 19.0351C38.0802 17.6369 38.1501 16.6481 38.2001 15.9291C38.26 15.0801 38.3 14.6207 38.0603 14.3011C37.9204 14.1214 37.7107 14.0215 37.4411 14.0115C36.9417 14.0015 36.4723 14.4809 36.4224 15.0801C36.4124 15.18 35.5535 25.3469 37.9404 26.4855C38.1402 26.5754 38.3299 26.6253 38.5297 26.6253C38.7294 26.6253 38.9192 26.5754 39.0989 26.4755C39.5983 26.1959 39.9578 25.5467 40.2475 24.7977C40.2475 24.9175 40.2574 25.0074 40.2475 25.0473C40.1875 25.4668 40.3074 25.8563 40.587 26.086C40.8766 26.3257 41.2861 26.3457 41.6057 26.1259C41.9952 25.8663 42.175 25.317 42.1151 24.6279Z" fill="white"/>
<path d="M49.5961 12.7132C49.5162 12.3537 49.3064 12.064 49.0068 11.8843C48.7272 11.7145 48.3976 11.6745 48.068 11.7544C47.4588 11.9142 46.8796 12.5934 47.0394 13.682C47.2291 14.9803 47.2491 16.788 47.2091 18.3559C46.8196 17.3472 46.2903 15.979 45.5513 14.0715C45.3016 13.4423 44.7723 13.0827 44.183 13.1526C43.5738 13.2225 43.0844 13.7319 42.9546 14.411C42.5951 16.2786 42.9246 24.9674 43.414 26.1759C43.6138 26.6752 44.0432 26.9749 44.5426 26.9749C44.6924 26.9749 44.8422 26.9449 44.992 26.895C45.5413 26.6852 46.0706 26.0361 45.9308 25.0873C45.761 23.9388 45.6511 22.8102 45.5812 21.7915C45.781 22.2709 46.7997 24.7178 47.1193 25.0873C47.4388 25.4568 47.9082 25.6066 48.3676 25.4868C48.847 25.3669 49.2365 24.9774 49.4163 24.4481C49.686 23.6591 50.1653 15.1201 49.5961 12.7132ZM48.7971 24.2584C48.6872 24.5779 48.4675 24.8076 48.2079 24.8776C47.9881 24.9375 47.7684 24.8576 47.6086 24.6778C47.3889 24.4281 46.2903 21.8614 46.1505 21.5019C45.9907 21.0724 45.8409 20.663 45.6911 20.2635C45.3715 19.3946 45.0819 18.6156 44.8222 18.0064C44.7922 19.075 44.8422 22.1411 45.2916 25.2071C45.3815 25.7964 45.0819 26.1959 44.7623 26.3157C44.6924 26.3457 44.6125 26.3557 44.5426 26.3557C44.3129 26.3557 44.1131 26.2158 44.0132 25.9662C43.6138 24.9674 43.2143 16.4883 43.5938 14.5608C43.6737 14.1613 43.9533 13.8617 44.2729 13.8218C44.5625 13.7818 44.8122 13.9816 44.952 14.3311C46.3403 17.8766 46.9794 19.5844 47.329 20.5032C47.5487 21.0824 47.6386 21.3121 47.6985 21.452C47.8184 20.2735 48.0381 16.0689 47.6785 13.6021C47.5787 12.893 47.8883 12.4835 48.2378 12.3936C48.5774 12.3037 48.877 12.5035 48.9669 12.873C49.5262 15.2499 49.0068 23.6391 48.7971 24.2584Z" fill="white"/>
<path d="M55.1792 19.3445C54.5401 19.2746 53.791 19.724 53.6612 20.6827C53.6312 20.9224 53.5513 21.1422 53.4814 21.302C53.0919 20.7027 52.7424 19.4843 52.8023 17.5967C52.8522 16.0287 53.1618 14.7604 53.4714 14.0812C53.6712 14.6006 54.0607 14.9301 54.5401 14.9801C55.0894 15.04 55.6087 14.7204 55.8684 14.1611C56.0282 13.8216 56.3078 12.8928 55.4589 11.5944C54.9395 10.7955 54.0307 10.4859 53.1319 10.7955C52.3629 11.0651 50.5452 12.2036 50.1857 17.0474C49.956 20.1035 50.5053 22.3706 51.8036 23.7688C52.2131 24.2082 52.7224 24.4479 53.2817 24.4479C53.6113 24.4479 53.9508 24.358 54.2804 24.1982C55.4089 23.619 56.2479 22.1708 56.2778 20.7527C56.2978 19.9936 55.8484 19.4144 55.1792 19.3445ZM53.9908 23.619C53.7511 23.7388 53.5114 23.7987 53.2817 23.7987C52.9122 23.7987 52.5726 23.6389 52.283 23.3293C51.1045 22.061 50.6251 19.9637 50.8348 17.0974C51.1744 12.5133 52.8422 11.5844 53.3516 11.4047C53.9608 11.1949 54.56 11.4047 54.9196 11.954C55.5787 12.9727 55.389 13.6418 55.2791 13.8915C55.1393 14.2011 54.8696 14.3709 54.61 14.3409C54.3403 14.3109 54.1206 14.0812 54.0207 13.7017C54.0107 13.6518 53.9908 13.6019 53.9808 13.5519C53.9209 13.3222 53.8509 13.0226 53.7111 12.9627C53.6312 12.9327 53.5314 12.9627 53.3915 13.0625C52.7424 13.5519 52.2031 15.4994 52.1431 17.5767C52.0732 19.704 52.5027 21.3818 53.2917 22.081C53.3915 22.1708 53.5014 22.1908 53.6113 22.1309C53.9109 21.9911 54.2105 21.3719 54.3004 20.7626C54.3803 20.2034 54.7698 19.9437 55.1093 19.9836C55.4389 20.0236 55.6486 20.3132 55.6387 20.7327C55.6187 21.9112 54.9096 23.1496 53.9908 23.619Z" fill="white"/>
<path d="M62.1201 14.2015C62.1101 13.2727 62.15 11.485 62.16 10.7559C62.16 10.5662 62.17 10.4363 62.17 10.4164C62.17 9.74722 61.7905 9.42763 61.4609 9.34773C60.9716 9.23787 60.4822 9.56745 60.3024 10.1068C60.2125 10.3864 60.1926 11.2653 60.1826 13.2827C60.1826 13.7521 60.1826 14.1715 60.1726 14.4811C59.4835 14.601 59.054 14.6909 58.7944 14.7608C58.7844 14.1915 58.8043 13.2627 58.8243 12.4937C58.8343 12.1741 58.8443 11.8745 58.8443 11.6448C58.8543 11.2253 58.7145 10.8858 58.4548 10.686C58.1851 10.4763 57.8156 10.4663 57.506 10.656C56.8868 11.0256 56.8868 11.4051 56.8768 13.9119C56.8768 14.2914 56.8768 14.7108 56.8768 15.2002V15.2102C56.4474 15.36 55.7483 15.7096 55.9081 16.6384C55.958 16.938 56.0878 17.1577 56.2876 17.2875C56.4973 17.4273 56.737 17.4273 56.9268 17.3974C56.9667 18.4061 56.9567 19.225 56.9567 19.8342C56.9467 21.0527 56.9367 21.612 57.2463 21.9715C57.4061 22.1613 57.6259 22.2412 57.9155 22.2312C58.305 22.2112 58.6645 21.9116 58.8343 21.4622C58.9142 21.2524 58.9142 20.793 58.8743 19.0553C58.8543 18.2563 58.8343 17.4273 58.8543 16.9579C59.3237 16.8381 59.843 16.7382 60.2025 16.6883C60.3024 18.2063 60.2725 19.4447 60.2525 20.3736C60.2225 21.7118 60.2025 22.4509 60.5621 22.8504C60.7119 23.0301 60.9216 23.11 61.1613 23.11C61.1913 23.11 61.2113 23.11 61.2412 23.11C61.7006 23.0801 62.0901 22.6706 62.2 22.1313C62.2299 21.9615 62.22 21.1526 62.17 18.6558C62.15 17.7869 62.1401 16.898 62.1301 16.4186C62.5995 16.3487 63.2886 16.1989 63.3585 15.2701C63.3885 14.9405 63.3086 14.6809 63.1388 14.4811C62.8791 14.1815 62.4696 14.1615 62.1201 14.2015Z" fill="white"/>
<path d="M68.4532 19.6441C67.9339 19.1647 67.5144 19.5042 67.1349 19.8039C66.9751 19.9337 66.7654 20.1035 66.4957 20.2732C66.2261 20.443 66.1362 20.3731 66.0962 20.3432C65.6568 19.9936 65.5369 18.146 65.6168 16.8277C65.8565 16.7777 66.0862 16.7478 66.296 16.7278C67.015 16.6379 67.844 16.5381 67.8739 15.4794C67.8839 15.1598 67.804 14.9101 67.6342 14.7304C67.2747 14.3509 66.6655 14.4507 65.9664 14.5806C65.8665 14.6005 65.7567 14.6205 65.6568 14.6305C65.6668 13.7816 65.7067 11.9739 65.7367 11.2648C66.2061 11.1749 66.9851 11.0651 67.1449 11.0751C67.5244 11.1849 67.9139 11.0551 68.1935 10.7155C68.4632 10.376 68.583 9.91656 68.4832 9.52706C68.4033 9.1875 68.1636 8.94781 67.834 8.85792C67.4245 8.74807 65.3272 9.11759 64.698 9.29736C63.7692 9.55703 63.7692 10.1862 63.7492 12.2436C63.7492 12.723 63.7393 13.3222 63.7293 14.0213C63.7193 14.3209 63.7093 14.6605 63.6993 15.02C63.5994 17.8364 63.4796 21.3419 64.9976 22.3406C65.2673 22.5204 65.5669 22.6102 65.8965 22.6102C66.5656 22.6102 67.3546 22.2407 68.2934 21.4917C68.583 21.262 68.7628 20.8725 68.7728 20.483C68.7828 20.1334 68.6729 19.8438 68.4532 19.6441Z" fill="white"/>
</svg>
