<svg width="244" height="91" viewBox="0 0 244 91" fill="none" xmlns="http://www.w3.org/2000/svg">
<path d="M108.556 65.3503H104.075C102.411 65.3503 100.982 64.0434 100.982 62.4992V40.2505C100.982 38.7063 102.409 37.3994 104.075 37.3994H108.556C117.517 37.3994 120.609 42.3085 120.609 47.8114V54.6211C120.609 60.2039 117.557 65.3503 108.556 65.3503ZM115.058 47.8126C115.058 44.8042 113.512 42.429 109.23 42.429H106.533V60.3232H109.23C113.591 60.3232 115.058 57.75 115.058 54.6224V47.8126Z" fill="#EE9B12"/>
<path d="M127.469 39.6188C127.469 38.2726 128.698 37.085 130.244 37.085C131.751 37.085 133.019 38.2726 133.019 39.6188V63.1744C133.019 64.5207 131.751 65.7083 130.244 65.7083C128.698 65.7083 127.469 64.5207 127.469 63.1744V39.6188Z" fill="#EE9B12"/>
<path d="M145.428 55.2963C145.428 58.7006 146.618 60.8385 150.186 60.8385C151.574 60.8385 152.565 60.482 153.477 60.0075V53.8321H151.416C150.107 53.8321 148.918 52.7232 148.918 51.3376C148.918 49.9521 150.107 48.8431 151.416 48.8431H155.738C157.561 48.8431 158.99 49.7135 158.99 51.6142V60.364C158.99 64.0855 154.073 65.6689 149.989 65.6689C143.051 65.6689 139.879 61.5516 139.879 55.2963V47.4576C139.879 41.2023 143.051 37.085 149.989 37.085C154.191 37.085 158.197 39.025 158.197 41.3216C158.197 42.5878 157.086 43.6968 155.58 43.6968C154.668 43.6968 154.391 43.4202 153.875 43.103L153.478 42.8657C152.487 42.2719 151.457 41.9154 150.187 41.9154C146.619 41.9154 145.43 44.0533 145.43 47.4576V55.2963H145.428Z" fill="#EE9B12"/>
<path d="M166.047 39.6188C166.047 38.2726 167.276 37.085 168.822 37.085C170.329 37.085 171.598 38.2726 171.598 39.6188V63.1744C171.598 64.5207 170.329 65.7083 168.822 65.7083C167.276 65.7083 166.047 64.5207 166.047 63.1744V39.6188Z" fill="#EE9B12"/>
<path d="M184.841 42.4688H180.639C179.053 42.4688 177.863 41.3205 177.863 39.9743C177.863 38.8653 179.092 37.4404 180.639 37.4404H194.595C196.022 37.4404 197.41 38.5494 197.41 39.9743C197.41 41.3205 196.101 42.4688 194.595 42.4688H190.393V63.1734C190.393 64.5196 189.125 65.7072 187.618 65.7072C186.071 65.7072 184.842 64.5196 184.842 63.1734V42.4688H184.841Z" fill="#EE9B12"/>
<path d="M204.43 63.8462C204.033 64.9945 202.765 65.7063 201.813 65.7063C200.267 65.7063 198.959 64.6773 198.959 63.1725C198.959 62.9746 198.998 62.5 199.078 62.3021L206.81 39.7754C207.326 38.2313 208.119 37.083 210.021 37.083C211.924 37.083 212.717 38.192 213.273 39.7754L221.004 62.3021C221.083 62.5 221.123 62.9746 221.123 63.1725C221.123 64.6773 219.895 65.7063 218.268 65.7063C217.237 65.7063 215.968 64.9539 215.571 63.8462L214.184 59.8482H205.738L204.43 63.8462ZM210.734 48.5646C210.377 47.4163 210.178 45.9127 210.02 44.6845C209.861 45.9115 209.662 47.4163 209.305 48.5646L207.204 55.3337H212.754L210.734 48.5646Z" fill="#EE9B12"/>
<path d="M241.301 65.3517H230.12C228.534 65.3517 227.146 64.1641 227.146 62.62V39.6188C227.146 38.2726 228.375 37.085 229.922 37.085C231.429 37.085 232.697 38.2726 232.697 39.6188V60.364H241.301C242.728 60.364 243.998 61.4324 243.998 62.8179C243.998 64.2428 242.808 65.3517 241.301 65.3517Z" fill="#EE9B12"/>
<path d="M104.879 24.6141V29.0727C104.879 29.9253 104.097 30.6816 103.171 30.6816C102.267 30.6816 101.463 29.9507 101.463 29.0727V15.037C101.463 14.0867 102.341 13.2822 103.366 13.2822H106.954C111.542 13.2822 113.177 16.0115 113.177 18.9843C113.177 22.5903 110.736 24.6141 106.954 24.6141H104.879ZM104.879 21.5194H106.953C108.782 21.5194 109.76 20.715 109.76 18.9602C109.76 17.6926 109.247 16.3769 106.953 16.3769H104.879V21.5194Z" fill="#7D2D11"/>
<path d="M125.937 23.127L129.28 28.1465C130.086 29.3645 128.89 30.6562 127.791 30.6562C127.181 30.6562 126.669 30.3885 126.351 29.9012L122.25 23.4924H120.591V29.0727C120.591 29.9253 119.785 30.6816 118.858 30.6816C117.954 30.6816 117.174 29.9507 117.174 29.0727V15.037C117.174 14.0867 118.028 13.2822 119.029 13.2822H123.276C127.865 13.2822 129.329 15.8897 129.329 18.4489C129.33 20.8609 128.036 22.4456 125.937 23.127ZM123.179 16.3769H120.592V20.4219H123.326C125.009 20.4219 125.913 19.7151 125.913 18.4476C125.913 17.4249 125.401 16.3769 123.179 16.3769Z" fill="#7D2D11"/>
<path d="M133.434 24.2725V19.4472C133.434 15.9871 135.215 13.0625 139.778 13.0625C144.342 13.0625 146.123 15.9871 146.123 19.4472V24.2725C146.123 27.8303 144 30.6813 139.778 30.6813C135.556 30.6813 133.434 27.8303 133.434 24.2725ZM136.849 19.4472V24.2725C136.849 26.2214 137.777 27.5867 139.778 27.5867C141.78 27.5867 142.708 26.2214 142.708 24.2725V19.4472C142.708 17.4729 141.926 16.1572 139.778 16.1572C137.631 16.1584 136.849 17.4742 136.849 19.4472Z" fill="#7D2D11"/>
<path d="M155.229 30.4627H152.472C151.446 30.4627 150.568 29.6583 150.568 28.7079V15.0136C150.568 14.0632 151.446 13.2588 152.472 13.2588H155.229C160.745 13.2588 162.648 16.2799 162.648 19.6676V23.8585C162.648 27.2945 160.77 30.4627 155.229 30.4627ZM159.232 19.6676C159.232 17.8151 158.281 16.3534 155.645 16.3534H153.985V27.3681H155.645C158.33 27.3681 159.232 25.7846 159.232 23.8585V19.6676Z" fill="#7D2D11"/>
<path d="M172.798 30.6813C168.869 30.6813 166.672 28.098 166.672 24.6138V14.6714C166.672 13.7451 167.428 13.0625 168.405 13.0625C169.309 13.0625 170.089 13.7933 170.089 14.6714V24.6138C170.089 26.3686 170.943 27.5867 172.798 27.5867C174.628 27.5867 175.483 26.3445 175.483 24.6138V14.6714C175.483 13.8187 176.215 13.0625 177.167 13.0625C178.167 13.0625 178.924 13.8174 178.924 14.6714V24.6138C178.924 28.1221 176.655 30.6813 172.798 30.6813Z" fill="#7D2D11"/>
<path d="M186.344 24.2725C186.344 26.3686 187.075 27.6844 189.273 27.6844C190.054 27.6844 190.688 27.489 191.298 27.0995L191.542 26.9535C191.86 26.7581 192.03 26.5881 192.592 26.5881C193.519 26.5881 194.203 27.2707 194.203 28.0498C194.203 29.4633 191.738 30.6572 189.151 30.6572C184.88 30.6572 182.928 28.1234 182.928 24.2725V19.4472C182.928 15.5963 184.88 13.0625 189.151 13.0625C191.738 13.0625 194.203 14.2565 194.203 15.6699C194.203 16.4503 193.519 17.1316 192.592 17.1316C192.03 17.1316 191.86 16.9616 191.542 16.7662L191.298 16.6203C190.688 16.2307 190.053 16.0353 189.273 16.0353C187.075 16.0353 186.344 17.3511 186.344 19.4472V24.2725Z" fill="#7D2D11"/>
<path d="M201.891 16.3769H199.304C198.328 16.3769 197.596 15.6701 197.596 14.8416C197.596 14.159 198.352 13.2822 199.304 13.2822H207.894C208.772 13.2822 209.627 13.9649 209.627 14.8416C209.627 15.6701 208.821 16.3769 207.894 16.3769H205.307V29.1209C205.307 29.9495 204.525 30.6803 203.599 30.6803C202.647 30.6803 201.891 29.9495 201.891 29.1209V16.3769Z" fill="#7D2D11"/>
<path d="M212.699 24.2725V19.4472C212.699 15.9871 214.481 13.0625 219.044 13.0625C223.607 13.0625 225.389 15.9871 225.389 19.4472V24.2725C225.389 27.8303 223.265 30.6813 219.044 30.6813C214.823 30.6813 212.699 27.8303 212.699 24.2725ZM216.116 19.4472V24.2725C216.116 26.2214 217.044 27.5867 219.045 27.5867C221.047 27.5867 221.974 26.2214 221.974 24.2725V19.4472C221.974 17.4729 221.193 16.1572 219.045 16.1572C216.898 16.1584 216.116 17.4742 216.116 19.4472Z" fill="#7D2D11"/>
<path d="M238.594 23.127L241.937 28.1465C242.743 29.3645 241.547 30.6562 240.448 30.6562C239.838 30.6562 239.326 30.3885 239.008 29.9012L234.909 23.4924H233.249V29.0727C233.249 29.9253 232.443 30.6816 231.516 30.6816C230.612 30.6816 229.832 29.9507 229.832 29.0727V15.037C229.832 14.0867 230.686 13.2822 231.687 13.2822H235.934C240.523 13.2822 241.987 15.8897 241.987 18.4489C241.987 20.8609 240.693 22.4456 238.594 23.127ZM235.836 16.3769H233.249V20.4219H235.982C237.666 20.4219 238.57 19.7151 238.57 18.4476C238.57 17.4249 238.058 16.3769 235.836 16.3769Z" fill="#7D2D11"/>
<path d="M42.7806 0.00380921C53.0825 0.00380921 63.3845 0.00761567 73.6864 2.74979e-06C75.9776 -0.00126607 78.1595 0.436477 80.199 1.49467C81.9501 2.40315 83.3899 3.66055 84.3976 5.37473C85.113 6.59406 85.5082 7.90983 85.5425 9.3271C85.5463 9.48697 85.5489 9.64557 85.5489 9.80544C85.5489 29.3681 85.5451 48.9295 85.5552 68.4922C85.5565 70.6073 84.9198 72.475 83.5894 74.1042C82.2182 75.7841 80.4481 76.8867 78.4111 77.5807C76.9637 78.0743 75.4731 78.3052 73.9431 78.3052C63.7047 78.3027 53.4676 78.309 43.2292 78.2938C42.4985 78.2925 41.8949 78.4676 41.2824 78.8876C36.1422 82.3985 30.9817 85.8801 25.825 89.3655C24.2429 90.4352 22.2961 90.2233 21.0406 88.8542C20.4307 88.1894 20.1702 87.3862 20.0952 86.5031C19.8728 83.8817 19.6403 81.2629 19.423 78.6415C19.4026 78.3941 19.3188 78.3002 19.0773 78.3129C18.8867 78.323 18.6948 78.304 18.503 78.304C16.1546 78.3027 13.8075 78.3141 11.4592 78.3002C8.92787 78.2849 6.56173 77.6493 4.42434 76.2764C2.28694 74.9035 0.796352 73.0396 0.199101 70.5261C0.0351742 69.8371 0.0123007 69.138 0.0123007 68.4351C0.0123007 51.7285 0.0123007 35.0232 0.0123007 18.3167C0.0123007 15.5722 0.0555061 12.8265 0.00213474 10.0833C-0.0664856 6.56107 1.52195 3.97141 4.37351 2.07072C6.00515 0.984607 7.82994 0.383186 9.77291 0.124347C10.5036 0.026648 11.2368 0.00507803 11.97 0.00507803C22.2415 0.00254039 32.5104 0.00380921 42.7806 0.00380921Z" fill="#7D2D11"/>
<path d="M11.5577 3.59961H73.752C78.2186 3.59961 81.839 6.25779 81.839 9.53515V68.7789C81.839 72.0575 78.2186 74.7144 73.752 74.7144H40.9196L23.5866 86.4371L22.5624 74.7144H11.5577C7.09106 74.7144 3.4707 72.0563 3.4707 68.7789V9.53515C3.4707 6.25779 7.09233 3.59961 11.5577 3.59961Z" fill="white"/>
<mask id="mask0_5740_43706" style="mask-type:luminance" maskUnits="userSpaceOnUse" x="3" y="3" width="79" height="84">
<path d="M11.5343 3.66309H73.7285C78.1952 3.66309 81.8155 6.32126 81.8155 9.59863V68.8411C81.8155 72.1198 78.1952 74.7767 73.7285 74.7767H40.8962L23.5632 86.4993L22.539 74.7767H11.5343C7.06763 74.7767 3.44727 72.1185 3.44727 68.8411V9.5999C3.44727 6.32126 7.0689 3.66309 11.5343 3.66309Z" fill="white"/>
</mask>
<g mask="url(#mask0_5740_43706)">
<path d="M78.729 38.7393L66.268 36.5519C66.268 36.5519 46.1674 34.6081 45.152 33.5955C43.1811 31.6276 44.2218 26.1983 44.2218 26.1983C45.5599 20.141 49.1295 15.9399 55.9966 14.5353C74.0374 10.8456 81.6047 25.4764 78.729 38.7393Z" fill="#BC3822"/>
<path d="M70.0222 20.9995C68.3359 20.0543 66.3802 19.6356 64.4703 19.8119C64.0776 17.9429 62.7268 16.3201 60.9986 15.6426C60.9618 16.8188 60.9249 17.995 60.8881 19.1712C58.1826 18.382 55.354 18.0508 52.5469 18.1916C55.237 19.0024 57.8472 20.0999 60.3226 21.4601L60.2273 23.3811C59.921 24.4863 59.902 25.6751 60.1739 26.7892C61.1143 25.9657 62.0533 25.1422 62.9937 24.3188C63.3038 24.046 63.6558 23.7592 64.0624 23.7719C64.4436 23.7846 64.7638 24.0587 65.051 24.3188C65.9863 25.1651 66.9216 26.0126 67.8556 26.8589C67.5696 25.2031 66.8008 23.64 65.6737 22.4282C67.1236 21.9524 68.5735 21.4753 70.0222 20.9995Z" fill="#275B1A"/>
<path d="M73.3972 23.0388C74.4405 24.7212 75.466 26.9848 75.1686 29.0162C75.1292 29.2839 74.9856 29.6125 74.715 29.5935C74.6171 29.5859 74.5294 29.5301 74.4481 29.4755C72.9448 28.4452 71.838 26.8909 71.2979 25.1565C71.059 24.3901 69.7527 21.1241 71.6652 21.5264C72.439 21.6875 72.9829 22.3689 73.3972 23.0388Z" fill="white"/>
<path d="M70.4433 28.7146C72.2668 28.8579 73.1602 32.0896 70.9669 31.7546C70.4865 31.6811 70.0951 31.2865 69.9388 30.8271C69.7762 30.3501 69.6529 28.6524 70.4433 28.7146Z" fill="white"/>
<path d="M38.9583 43.6591C37.2707 45.5611 32.987 45.8669 32.6617 48.4007C32.4419 50.1123 30.4214 49.0262 30.0897 50.441C30.26 49.4627 30.4303 41.6734 30.1647 38.6815C29.5459 31.7068 24.5162 25.1623 24.9762 26.3258C23.9342 24.3629 24.102 21.7669 25.4032 19.903C27.5978 16.7411 30.3795 16.0813 32.9438 16.8743C36.0127 17.8234 38.2937 21.0487 39.8338 24.1332C43.6994 31.873 41.0512 41.3004 38.9583 43.6591Z" fill="#FF7C1A"/>
<path d="M27.5787 16.8419L25.4363 16.6858C24.6306 16.1491 23.8084 15.6022 23.2086 14.832C22.6101 14.0555 22.2581 13.0164 22.5174 12.0546C22.9812 12.1764 23.4132 12.4023 23.7792 12.7182C22.4386 11.3352 21.6698 9.385 21.6609 7.41833C21.6558 7.05037 21.6774 6.68114 21.7308 6.31445C23.7119 8.54885 25.2622 11.1867 26.2584 14.0352C26.2826 14.0733 26.294 14.1088 26.2991 14.1431C26.2826 14.0999 26.275 14.0517 26.2648 14.0111C25.9979 13.057 26.0335 12.0102 26.3728 11.0751C26.5965 10.4597 27.1721 9.80117 27.7503 10.0486C28.2878 10.2732 28.2993 11.0357 28.223 11.6346C28.1379 12.3287 28.054 13.0227 27.9689 13.718C27.8342 14.7585 27.7071 15.7976 27.5787 16.8419Z" fill="#9CD11A"/>
<path d="M26.2584 14.0352C26.1619 14.6684 26.1263 15.3218 26.1009 15.9575C25.111 13.3919 23.8898 10.9101 22.4551 8.56153C22.2137 8.16439 21.9595 7.76979 21.6609 7.41833C21.6558 7.05037 21.6774 6.68114 21.7308 6.31445C23.7119 8.54885 25.2622 11.1867 26.2584 14.0352Z" fill="#9CD11A"/>
<path d="M27.9678 13.7157C27.9246 13.5089 27.875 13.3008 27.8318 13.094C27.7467 12.674 27.4976 12.1436 27.0782 12.2223C26.8254 12.268 26.6767 12.5344 26.5788 12.7806C26.4264 13.1777 26.3285 13.5939 26.2624 14.0101C25.9956 13.0559 26.0311 12.0091 26.3704 11.074C26.5941 10.4586 27.1697 9.80012 27.7479 10.0475C28.2855 10.2721 28.2969 11.0347 28.2206 11.6336C28.138 12.3276 28.0529 13.0217 27.9678 13.7157Z" fill="#9CD11A"/>
<path d="M30.777 21.1352C34.119 20.8852 36.907 25.2956 37.2781 28.2038C37.3111 28.4613 37.3175 28.7608 37.1281 28.9397C36.7939 29.2544 36.2666 28.9054 35.9527 28.5705C34.4901 27.0111 33.0262 25.453 31.5635 23.8936C31.2954 23.6081 31.0235 23.3163 30.8621 22.961C30.6384 22.4649 30.7426 21.677 30.777 21.1352Z" fill="white"/>
<path d="M26.0284 50.7164C23.0091 54.2044 19.2947 54.1067 19.0444 50.3827C18.8817 47.9314 15.3528 52.6501 14.734 51.2569C13.7835 49.1482 10.2343 54.4886 8.32942 48.9337C7.86814 47.5888 3.67213 35.1911 7.18575 28.5489C9.26723 24.613 12.5585 23.6664 15.5917 24.3376C19.221 25.1383 22.6863 28.3725 24.2316 32.0508C25.665 35.4512 28.2459 43.2875 28.7122 46.981C27.7299 47.7943 26.8658 49.7521 26.0284 50.7164Z" fill="#EBC377"/>
<path d="M16.6597 28.721C19.2266 28.1386 23.1011 34.928 19.8797 35.2643C19.1745 35.3379 18.3231 34.6463 17.7322 33.6973C17.1197 32.7127 15.5465 28.9735 16.6597 28.721Z" fill="white"/>
<path d="M45.3007 30.3936L85.5427 38.3059L85.549 48.893L1.15234 52.6499V47.9122L45.3007 30.3936Z" fill="white"/>
<path d="M-6.7793 50.9131L-6.32945 93.9946C43.9896 82.9191 82.8275 79.7546 134.762 90.8746V47.335L90.5498 40.9592L45.5704 31.915L1.81731 49.5428L-6.7793 50.9131Z" fill="#7D2D11"/>
<path d="M130.854 50.8145V87.4834C128.8 87.0596 126.754 86.6612 124.701 86.2806C124.598 86.2565 124.501 86.2387 124.403 86.2197C123.604 86.0687 122.798 85.9228 121.999 85.7781C121.969 85.7718 121.938 85.7667 121.909 85.7603C100.833 81.9755 79.7518 80.0215 58.6752 79.9124L58.4998 69.4205V69.3964L58.463 67.4195L58.2266 53.2265V53.2202L58.1961 51.2434L57.9902 38.8584L121.515 49.283H121.528L124.405 49.755L128.341 50.4021L130.854 50.8145Z" fill="#EBC377"/>
<path d="M56.065 99.4359C52.5831 99.4422 49.0937 95.5736 45.6055 95.6764V33.9609L50.8562 34.91L55.5554 35.7563L56.065 99.4359Z" fill="#EBC377"/>
<path d="M58.0957 51.2285L123.549 60.3412L123.405 62.1822L58.0957 53.2053V51.2285Z" fill="#7D2D11"/>
<path d="M57.9277 67.3682L123.791 73.0423L123.404 74.8707L57.9277 69.3437V67.3682Z" fill="#7D2D11"/>
<path d="M43.2973 34.6318L37.8826 39.3975L36.3628 96.0732C36.2904 96.0732 36.1328 96.667 36.1328 80.4933V38.2543L43.2973 34.6318Z" fill="white"/>
<path d="M1.08203 56.2579V57.8389L33.7453 40.9521L1.08203 56.2579Z" fill="#EBC377"/>
<path d="M1.75586 67.8942V69.2391L33.7457 53.6758L1.75586 67.8942Z" fill="#EBC377"/>
<path d="M1.08203 78.9313V80.8637L34.0617 69.0713L1.08203 78.9313Z" fill="#EBC377"/>
<path d="M57.9922 38.8604L119.149 51.2288L121.666 60.0776L121.522 48.9322L57.9922 38.8604Z" fill="white"/>
<path d="M58.0957 53.2061L119.634 64.1204L121.829 72.8753V61.966L58.0957 53.2061Z" fill="white"/>
<path d="M121.996 74.7541V85.7776C121.966 85.7713 121.935 85.7662 121.906 85.7598L119.635 76.9669L58.497 69.42L57.9277 69.3477L58.497 69.3959L121.851 74.7414L121.996 74.7541Z" fill="white"/>
<path d="M50.8555 34.9092L52.651 37.4291L56.0668 79.9066L55.5547 35.7555L50.8555 34.9092Z" fill="white"/>
</g>
</svg>
