<svg width="186" height="41" viewBox="0 0 186 41" fill="none" xmlns="http://www.w3.org/2000/svg">
<path d="M27.538 2.00131C26.1011 1.49915 24.5886 1.30965 23.1327 0.930664C21.658 0.930664 20.1927 0.930664 18.718 0.930664C18.2737 1.21491 17.7443 1.15806 17.2527 1.24333C6.25842 3.19513 -1.13414 14.3185 1.34265 25.186C3.80053 35.9588 13.9629 42.6006 24.8816 40.5635C33.7206 38.9054 40.5932 30.8993 40.9902 22.0593C41.3967 12.5751 35.4883 4.78688 27.538 2.00131ZM13.755 4.66371C18.5478 2.63612 23.3407 2.64559 28.1336 4.67319C28.6441 4.89111 28.871 5.06165 28.5684 5.69646C26.8385 9.29686 25.1652 12.9257 23.4825 16.545C23.1895 17.1704 22.8019 17.7199 22.2347 18.1178C21.5068 18.6295 21.053 19.2832 20.9585 20.2497C20.9112 19.0085 20.0226 18.421 19.2285 17.7483C18.8787 17.4546 18.6518 17.0567 18.4628 16.6493C16.7611 13.0015 15.069 9.35371 13.339 5.71541C13.046 5.10903 13.2067 4.90058 13.755 4.66371ZM12.3653 5.39327C12.6111 5.38379 12.6206 5.58276 12.6773 5.71541C14.3883 9.57163 16.1089 13.4278 17.801 17.303C18.1035 17.9852 17.8577 18.7432 17.9901 19.4727C18.2548 20.9697 19.1907 21.8414 20.4858 22.4383C20.8545 22.6089 21.1948 22.5141 21.5446 22.372C23.1138 21.7277 24.0119 20.3255 23.9646 18.4684C23.9457 17.8526 24.0592 17.3125 24.3144 16.763C25.9215 13.1626 27.5002 9.55268 29.1073 5.95228C29.2113 5.71541 29.2302 5.14692 29.7501 5.51644C30.0999 5.76278 30.7805 5.77226 30.4119 6.57761C28.2565 11.3245 26.1389 16.0808 24.0214 20.8371C23.7283 21.5003 23.2651 22.0404 22.6601 22.4194C21.8754 22.9121 21.1948 23.4711 20.9301 24.4659C20.7032 23.49 20.0604 22.931 19.2947 22.4668C18.6235 22.0593 18.1508 21.4814 17.8294 20.7613C15.7496 16.0808 13.6604 11.4003 11.5712 6.71973C11.3065 6.12282 11.7414 5.42169 12.3653 5.39327ZM20.1171 38.1853C20.0604 38.5928 19.928 38.7065 19.5404 38.6686C11.3065 37.9295 4.84041 31.8752 3.46021 24.1722C2.38252 18.1463 4.09359 12.9257 8.26254 8.47256C8.31926 8.40623 8.37598 8.34939 8.44215 8.29254C8.65013 8.11252 8.86756 7.9325 9.17952 7.67668C10.5597 11.1634 11.9021 14.5648 13.2445 17.9662C14.1709 20.3255 15.0879 22.6847 16.0238 25.0439C16.1845 25.4418 16.2601 25.8208 16.2128 26.2661C16.1183 27.1662 16.1183 28.0663 16.3641 28.9569C16.7328 30.2834 17.4512 31.3162 18.8125 31.752C19.7768 32.0647 20.2211 32.7184 20.24 33.7133C20.2684 35.2008 20.3156 36.6883 20.1171 38.1853ZM18.7747 26.9483C18.0184 26.5598 17.5363 25.8966 17.2055 25.1197C14.7759 19.359 12.3464 13.6079 9.91688 7.84722C9.68055 7.28822 10.0303 6.62498 10.5975 6.53024C11.0324 6.45444 10.9851 6.87133 11.0797 7.08925C12.4504 10.4244 13.8117 13.7595 15.173 17.0946C15.4377 17.7483 15.7118 18.3926 15.9765 19.0464C16.5154 20.3728 17.0164 21.6898 17.2244 23.1395C17.4796 24.9207 18.4817 26.2472 20.1927 26.9673C20.6843 27.1757 21.1475 27.1946 21.658 26.9862C23.3974 26.2566 24.4468 24.9302 24.6831 23.111C24.8816 21.5667 25.4677 20.1928 26.0349 18.7906C27.6137 14.9059 29.1924 11.0213 30.8089 7.14609C30.894 6.93765 30.8278 6.27442 31.3667 6.58708C31.7448 6.81448 32.3876 6.94712 32.0378 7.77143C29.5611 13.5415 27.141 19.3306 24.702 25.1197C24.3428 25.9819 23.7756 26.6735 22.9248 27.0809C21.8376 27.6115 21.0624 28.36 20.949 29.7149C20.8734 28.199 19.8902 27.5263 18.7747 26.9483ZM38.5985 22.8647C37.6154 30.994 32.0378 36.9157 23.9835 38.4033C21.2232 38.9149 21.9511 39.2465 21.6486 36.5557C21.5446 35.6082 21.6202 34.6418 21.6297 33.6848C21.6391 32.7374 22.0834 32.0741 23.0004 31.7709C24.6264 31.2498 25.6473 29.9613 25.5717 28.4453C25.411 25.1955 26.9236 22.5141 27.9918 19.6717C29.4382 15.825 30.9885 12.0161 32.4916 8.18832C32.5483 8.03672 32.6334 7.8946 32.7658 7.62931C37.1616 11.874 39.317 16.8767 38.5985 22.8647Z" fill="white"/>
<path d="M183.614 9.32534C183.293 9.11689 182.839 8.91792 183.028 8.44419C183.217 7.9515 183.718 8.04625 184.134 8.09362C184.248 8.1031 184.352 8.15047 184.456 8.17889C184.711 8.24522 184.985 8.30207 185.032 7.92308C185.07 7.61041 185.222 7.20299 184.721 7.10825C184.305 7.03245 183.889 6.95665 183.473 6.9756C182.518 7.0135 181.809 7.54409 181.601 8.30207C181.402 9.02215 181.752 9.65695 182.65 10.2065C182.773 10.2823 182.905 10.3391 183.009 10.4244C183.397 10.7276 184.191 10.8413 183.87 11.5424C183.596 12.1488 182.953 11.9025 182.433 11.7888C182.376 11.7793 182.319 11.7603 182.263 11.7603C182.026 11.7319 181.686 11.3624 181.61 11.874C181.554 12.2341 181.346 12.7268 182.017 12.8689C183.227 13.1247 184.361 13.1058 185.288 12.1299C185.288 11.6182 185.288 11.1161 185.288 10.6044C184.815 10.0549 184.201 9.70433 183.614 9.32534Z" fill="white"/>
<path d="M145.233 7.30726C145.299 7.45886 145.375 7.60098 145.441 7.75257C146.102 9.30643 146.802 10.8413 147.416 12.4141C147.766 13.3048 148.466 12.8121 149.014 12.9068C149.421 12.9826 149.44 12.6415 149.44 12.3478C149.44 10.0644 149.43 7.781 149.449 5.49759C149.458 4.90068 149.08 4.99542 148.721 4.97647C148.324 4.95752 148.012 4.967 148.021 5.52601C148.05 7.02302 148.031 8.51055 148.031 10.0076C148.031 10.2065 147.993 10.396 147.955 10.7371C147.804 10.4623 147.738 10.3392 147.681 10.216C147.01 8.63372 146.32 7.07039 145.677 5.47864C145.327 4.60696 144.618 5.03332 144.079 5.0049C143.456 4.97647 143.73 5.54496 143.73 5.83868C143.701 7.95154 143.73 10.0644 143.711 12.1773C143.701 12.6794 143.786 12.9353 144.391 12.9353C144.968 12.9258 145.1 12.7268 145.091 12.1962C145.063 10.5666 145.081 8.93692 145.081 7.31674C145.119 7.32621 145.176 7.31674 145.233 7.30726Z" fill="white"/>
<path d="M136.876 19.7096C136.196 19.6812 135.761 20.1171 135.317 20.5055C134.305 19.4349 133.511 19.4254 132.414 20.4392C132.377 19.5675 131.743 19.776 131.252 19.8044C130.628 19.8423 130.911 20.3539 130.902 20.6571C130.874 22.0973 130.921 23.5374 130.874 24.9776C130.855 25.5556 131.082 25.6882 131.611 25.6693C132.084 25.6503 132.405 25.6503 132.367 25.006C132.31 24.0206 132.329 23.0353 132.358 22.0404C132.377 21.4719 132.575 20.9319 133.256 20.9224C133.974 20.9129 134.003 21.5004 134.012 22.012C134.031 22.9405 134.04 23.8785 134.012 24.807C133.993 25.3376 134.012 25.6787 134.74 25.6787C135.525 25.6787 135.43 25.2429 135.421 24.7691C135.421 23.869 135.383 22.9595 135.44 22.0594C135.477 21.4814 135.666 20.875 136.413 20.9319C137.103 20.9887 137.084 21.5856 137.084 22.0973C137.094 23.1111 137.103 24.1249 137.075 25.1481C137.066 25.5745 137.236 25.7356 137.623 25.6503C137.945 25.5745 138.531 25.944 138.54 25.2618C138.55 23.8217 138.682 22.3815 138.427 20.9508C138.304 20.1265 137.718 19.7381 136.876 19.7096Z" fill="white"/>
<path d="M51.2106 4.85311C49.925 4.85311 48.8567 5.60162 48.3935 6.89965C47.8925 8.30192 47.8925 9.72313 48.4408 11.1064C48.8945 12.2434 49.7264 12.9161 51.0026 12.9824C52.3734 13.0488 53.3471 12.4708 53.9332 11.258C54.283 10.538 54.387 9.75155 54.3586 8.95567C54.3775 8.27349 54.3019 7.61026 54.0655 6.96598C53.5834 5.63951 52.5152 4.84364 51.2106 4.85311ZM52.4585 11.0306C52.1938 11.5612 51.7873 11.836 51.1823 11.8265C50.6056 11.817 50.1991 11.5328 49.9911 11.0306C49.4239 9.63785 49.4145 8.23559 50.0006 6.84281C50.2086 6.35012 50.6151 6.02798 51.1823 6.00903C51.7873 5.99008 52.1938 6.3217 52.4585 6.83333C52.8082 7.49656 52.8555 8.23559 52.8461 9.17359C52.8461 9.68523 52.7704 10.3769 52.4585 11.0306Z" fill="white"/>
<path d="M78.1626 32.5575C77.7183 32.5291 77.7561 32.946 77.5198 33.0881C75.9883 31.9132 74.5609 32.4249 74.0976 34.2914C73.9464 34.8978 73.9653 35.5231 74.022 36.139C74.0976 37.0201 74.3907 37.8065 75.251 38.2139C76.0829 38.5929 76.8391 38.4034 77.5481 37.6265C77.5765 39.4551 76.7635 40.0805 75.1942 39.6162C75.0619 39.5783 74.9201 39.5404 74.7972 39.4741C74.4758 39.294 74.3434 39.4077 74.2773 39.7394C74.1638 40.2794 74.2489 40.611 74.8917 40.7532C77.7088 41.369 78.9472 40.4026 78.9567 37.5128C78.9567 36.1011 78.8905 34.6893 78.9851 33.2871C79.0323 32.5196 78.6731 32.5859 78.1626 32.5575ZM77.274 36.8496C77.0755 37.1528 76.7824 37.3138 76.4326 37.3328C76.0356 37.3517 75.856 37.058 75.6953 36.7453C75.4873 36.3285 75.5251 35.8737 75.4778 35.4284C75.5157 35.0115 75.4778 34.5851 75.6575 34.1872C75.7993 33.865 75.9883 33.6092 76.3854 33.5808C76.7635 33.5524 77.0282 33.7134 77.2362 34.0166C77.671 34.6609 77.6994 36.2053 77.274 36.8496Z" fill="white"/>
<path d="M62.7526 12.2433C62.8471 14.0245 61.9585 14.6309 60.1718 14.0435C59.9827 13.9866 59.6329 13.5508 59.5195 14.0719C59.4439 14.4224 59.217 14.8962 59.7937 15.1615C62.1475 16.2132 64.1611 14.9625 64.1706 12.4233C64.18 10.841 64.1517 9.26818 64.1895 7.6859C64.1989 7.21216 64.0949 7.06057 63.5939 7.03214C63.0834 7.00372 62.866 7.23111 62.762 7.70485C61.7505 6.47313 59.8031 6.81423 59.3777 8.5481C59.217 9.21133 59.1414 9.86509 59.217 10.5473C59.4722 12.8212 60.9281 13.5223 62.7526 12.2433ZM60.7957 8.87024C60.8808 8.42493 61.1549 8.09332 61.6465 8.06489C62.0908 8.04594 62.3744 8.32071 62.5446 8.70917C62.7242 9.12606 62.8376 9.5619 62.7904 9.92194C62.7715 11.1537 62.3744 11.7885 61.6654 11.7885C61.032 11.7885 60.7106 11.2958 60.6634 10.1114C60.6634 9.70402 60.7201 9.27766 60.7957 8.87024Z" fill="white"/>
<path d="M53.0904 17.7004C52.3909 17.6625 52.164 17.8804 52.1829 18.591C52.2301 20.1638 52.1923 21.7461 52.1734 23.3189C52.164 24.0201 51.8804 24.5127 51.0768 24.5222C50.2071 24.5317 49.8195 24.1243 49.8006 23.0252C49.7723 21.4429 49.7723 19.8701 49.8006 18.2878C49.8101 17.7573 49.5643 17.6625 49.1294 17.7099C48.7702 17.7478 48.2786 17.5583 48.2975 18.2215C48.3353 19.9933 48.1652 21.7745 48.3732 23.5368C48.5433 25.0149 49.621 25.8487 51.0674 25.7539C52.7123 25.6497 53.6198 24.797 53.6765 23.2431C53.7049 22.4283 53.686 21.6135 53.686 20.7892C53.686 19.9743 53.6671 19.15 53.6954 18.3352C53.7049 17.8994 53.582 17.7288 53.0904 17.7004Z" fill="white"/>
<path d="M116.231 12.2249C116.08 13.0871 116.647 12.8976 117.101 12.9355C117.734 12.9829 117.573 12.5281 117.583 12.1965C117.592 9.82777 117.564 7.46856 117.602 5.09987C117.611 4.45559 117.337 4.37032 116.798 4.36084C116.269 4.35137 116.032 4.47454 116.07 5.06198C116.117 5.88628 116.08 6.71058 116.08 7.62016C114.728 6.43581 113.083 6.95692 112.705 8.66238C112.535 9.46773 112.478 10.2636 112.667 11.0879C113.111 13.0397 114.633 13.5798 116.231 12.2249ZM114.198 8.67185C114.35 8.31181 114.586 8.06547 115.002 8.04652C115.399 8.01809 115.664 8.24549 115.805 8.54868C116.221 9.48668 116.221 10.4531 115.805 11.3911C115.654 11.7322 115.342 11.9691 114.926 11.9122C114.529 11.8554 114.293 11.6185 114.151 11.23C114 10.8226 114.057 10.3963 114.009 10.0646C114.038 9.54353 114.019 9.09821 114.198 8.67185Z" fill="white"/>
<path d="M68.301 25.6502C68.6319 25.6975 68.7264 25.508 68.7264 25.1954C68.7075 22.713 68.6886 20.2306 68.7075 17.7482C68.7075 17.1418 68.3767 17.1513 67.9513 17.1513C67.5353 17.1513 67.1761 17.1134 67.2139 17.7388C67.2706 18.5725 67.2233 19.4158 67.2233 20.2875C65.3894 19.1505 64.1415 19.7474 63.7728 21.8603C63.6594 22.4761 63.6689 23.0825 63.7918 23.7078C64.2077 25.7544 65.6163 26.3134 67.3557 25.0248C67.2233 25.9913 67.904 25.5838 68.301 25.6502ZM67.0248 23.9921C66.8736 24.409 66.5616 24.6932 66.0606 24.6458C65.5501 24.5985 65.3421 24.2384 65.2476 23.8121C65.172 23.4615 65.1814 23.092 65.1625 22.9214C65.172 22.2866 65.153 21.8413 65.3421 21.4055C65.5028 21.036 65.7486 20.7896 66.1551 20.7801C66.5616 20.7707 66.8547 21.0075 66.9965 21.3676C67.3462 22.2393 67.3368 23.1204 67.0248 23.9921Z" fill="white"/>
<path d="M121.334 17.7294C120.928 17.8052 120.37 17.4452 120.162 18.0705C119.302 20.5719 118.46 23.0732 117.609 25.584C119.018 25.7451 119.075 25.7261 119.283 25.0913C119.708 23.7648 119.708 23.7648 121.069 23.7648C121.239 23.7648 121.41 23.7933 121.58 23.7648C122.175 23.6606 122.412 23.9259 122.563 24.4944C122.913 25.8114 122.951 25.8019 124.406 25.5556C123.612 23.0827 122.809 20.6287 122.034 18.1558C121.911 17.7768 121.674 17.6631 121.334 17.7294ZM121.589 22.6089C121.088 22.59 120.587 22.6089 119.982 22.6089C120.341 21.4151 120.653 20.3634 120.975 19.3022C121.022 19.3022 121.079 19.3022 121.126 19.3022C121.381 20.2592 121.618 21.2161 121.901 22.1541C121.996 22.4858 121.958 22.6184 121.589 22.6089Z" fill="white"/>
<path d="M71.0915 30.9465C70.9686 30.5486 70.7417 30.397 70.3541 30.4633C69.9476 30.5391 69.4182 30.2264 69.2008 30.8612C68.3689 33.3341 67.537 35.807 66.7051 38.2894C68.1231 38.5263 68.1136 38.5168 68.5107 37.2377C68.5958 36.9724 68.539 36.5366 68.9644 36.5176C69.7207 36.4892 70.5148 36.385 71.2333 36.565C71.7248 36.6882 71.5736 37.4462 71.791 37.882C71.8288 37.9578 71.8194 38.0525 71.8666 38.1189C72.2259 38.621 72.7458 38.3463 73.1901 38.3463C73.6061 38.3463 73.3508 37.9957 73.3036 37.8441C72.5756 35.5417 71.8194 33.2489 71.0915 30.9465ZM70.6377 35.3333C69.2291 35.5796 69.0306 35.3712 69.4371 34.0258C69.6356 33.3626 69.8247 32.7088 70.0232 32.0456C70.0705 32.0361 70.1272 32.0361 70.1745 32.0266C70.4392 33.012 70.7039 33.9974 70.9686 34.9827C71.0253 35.2386 70.874 35.2954 70.6377 35.3333Z" fill="white"/>
<path d="M88.0227 23.8402C88.1645 23.0349 88.1834 22.2201 87.9565 21.4147C87.4649 19.6429 86.0469 19.1787 84.5722 20.3725C84.506 19.6334 83.9672 19.7945 83.5134 19.7945C83.1353 19.7945 83.1542 20.0598 83.1542 20.3251C83.1542 22.7222 83.1731 25.1193 83.1447 27.5164C83.1353 28.0944 83.4756 28.0565 83.8537 28.0565C84.2319 28.0565 84.5911 28.1133 84.5722 27.5259C84.5344 26.7395 84.5627 25.9436 84.5627 25.053C86.1698 26.3795 87.7107 25.5931 88.0227 23.8402ZM86.425 24.1529C86.0564 24.8351 85.2339 24.8635 84.8841 24.1718C84.4115 23.2433 84.4587 22.2674 84.8558 21.32C85.007 20.9599 85.3096 20.742 85.7255 20.7704C86.1887 20.7988 86.4345 21.102 86.5385 21.5094C86.633 21.9169 86.6614 22.3337 86.7087 22.6654C86.6614 23.2339 86.6614 23.7171 86.425 24.1529Z" fill="white"/>
<path d="M71.0133 12.2912C70.9944 12.926 71.3347 12.9355 71.8074 12.945C72.2895 12.9544 72.5259 12.8597 72.4975 12.3007C72.4597 11.2869 72.4691 10.2731 72.5164 9.25928C72.5448 8.70027 72.7527 8.19811 73.4617 8.19811C74.218 8.19811 74.2086 8.77607 74.218 9.26875C74.2464 10.2257 74.2558 11.1827 74.2275 12.1396C74.2086 12.6797 74.3125 12.9639 74.9554 12.9544C75.5415 12.945 75.74 12.7934 75.7116 12.1964C75.6644 11.1258 75.7116 10.0552 75.6927 8.98451C75.6833 8.22653 75.5415 7.45908 74.7663 7.13694C73.9911 6.8148 73.216 6.89059 72.5164 7.7149C72.3651 6.87164 71.7885 6.99482 71.3158 7.07061C70.7581 7.16536 71.0322 7.66752 71.0322 7.98019C71.0039 9.41087 71.0511 10.851 71.0133 12.2912Z" fill="white"/>
<path d="M174.944 12.4708C174.925 11.2012 174.991 9.93158 174.887 8.67144C174.755 7.05126 173.365 6.44487 172.032 7.39235C171.767 7.58184 171.701 7.68606 171.541 7.28813C171.342 6.79544 170.85 7.07968 170.501 7.07968C170.104 7.07021 170.255 7.4492 170.255 7.66711C170.245 8.39667 170.255 9.1357 170.255 9.86526C170.255 10.5948 170.274 11.3338 170.255 12.0634C170.236 12.5845 170.245 12.954 170.983 12.9635C171.682 12.9635 171.758 12.6793 171.739 12.1108C171.701 11.1538 171.701 10.1969 171.758 9.23992C171.786 8.68091 172.013 8.16928 172.732 8.1977C173.469 8.2356 173.45 8.78513 173.45 9.29677C173.46 10.339 173.469 11.3812 173.45 12.4234C173.431 13.0298 173.838 12.9445 174.187 12.9256C174.49 12.9066 174.953 13.1056 174.944 12.4708Z" fill="white"/>
<path d="M105.388 12.2622C105.35 11.2484 105.36 10.2346 105.407 9.22077C105.435 8.63334 105.681 8.16908 106.39 8.1975C107.071 8.22593 107.099 8.74704 107.109 9.23025C107.127 10.3009 107.137 11.3715 107.118 12.4422C107.109 12.9822 107.449 12.9538 107.789 12.9254C108.101 12.897 108.612 13.1433 108.593 12.5085C108.564 11.1252 108.725 9.74188 108.489 8.37752C108.309 7.3732 107.714 6.94684 106.702 6.98473C106.154 7.00368 105.757 7.2974 105.331 7.70481C105.256 6.83314 104.67 7.04158 104.216 7.07001C103.649 7.10791 103.913 7.60059 103.913 7.86589C103.885 9.33447 103.932 10.8031 103.885 12.2622C103.866 12.878 104.14 12.9349 104.641 12.9443C105.142 12.9443 105.416 12.8591 105.388 12.2622Z" fill="white"/>
<path d="M178.348 19.8518C177.535 19.5202 176.797 19.7002 176.145 20.4298C176.003 19.6718 175.465 19.7097 174.982 19.8139C174.396 19.9371 174.68 20.4582 174.68 20.7993C174.642 22.1826 174.699 23.5565 174.652 24.9398C174.633 25.5651 174.869 25.6788 175.436 25.6788C175.984 25.6788 176.174 25.5367 176.145 24.9777C176.107 23.9923 176.107 23.0069 176.155 22.0215C176.183 21.4625 176.382 20.9414 177.081 20.932C177.809 20.9225 177.847 21.4815 177.866 22.0026C177.894 23.0448 177.913 24.087 177.875 25.1293C177.856 25.7925 178.282 25.6598 178.66 25.6693C179.038 25.6788 179.388 25.7356 179.359 25.1387C179.322 24.0112 179.369 22.8837 179.34 21.7563C179.322 20.9793 179.189 20.1929 178.348 19.8518Z" fill="white"/>
<path d="M59.7258 25.2709C59.7258 23.8686 59.8865 22.4474 59.6123 21.0546C59.4233 20.0882 58.8371 19.6903 57.8634 19.7187C57.2773 19.7377 56.8803 20.0598 56.3982 20.543C56.5022 19.624 55.935 19.804 55.4812 19.785C54.8289 19.7661 55.0558 20.2493 55.0463 20.562C55.0274 22.059 55.0652 23.5465 55.0274 25.0435C55.0085 25.6309 55.2827 25.6878 55.7459 25.6594C56.1807 25.6404 56.5778 25.7162 56.54 25.034C56.4833 24.0771 56.5116 23.1201 56.5305 22.1632C56.54 21.5284 56.7007 20.922 57.4853 20.9315C58.251 20.9409 58.2321 21.5757 58.251 22.1063C58.2699 23.1201 58.2794 24.1339 58.2605 25.1477C58.251 25.5741 58.4401 25.7257 58.8182 25.6499C59.1397 25.5741 59.7258 25.9341 59.7258 25.2709Z" fill="white"/>
<path d="M96.5852 33.1637C96.6042 32.5478 96.2827 32.5573 95.8573 32.5668C95.4414 32.5668 95.0727 32.5289 95.1011 33.1542C95.1389 34.1396 95.1011 35.125 95.0916 36.1103C95.0822 36.7451 94.8553 37.2852 94.1652 37.2852C93.4562 37.2757 93.3805 36.6599 93.3711 36.1103C93.3522 35.0965 93.3427 34.0827 93.3616 33.0689C93.3805 32.5289 93.0402 32.5573 92.6999 32.5857C92.3785 32.6142 91.8869 32.3868 91.8964 33.0121C91.9153 34.3859 91.7735 35.7787 92.0098 37.1431C92.18 38.1095 92.9835 38.6496 93.9288 38.498C94.4204 38.4222 94.7796 38.1095 95.1861 37.6831C95.1672 38.5832 95.7439 38.3748 96.1788 38.3843C96.7743 38.3938 96.5663 37.939 96.5663 37.6547C96.5853 36.1482 96.5474 34.6512 96.5852 33.1637Z" fill="white"/>
<path d="M98.862 12.6225C99.8073 13.172 100.847 13.191 101.755 12.5846C103.003 11.7603 102.946 10.4149 102.795 9.14525C102.672 8.13145 102.114 7.36399 101.074 7.05133C101.017 7.03238 100.961 7.04185 100.904 7.03238C98.9376 6.67234 97.7559 7.72403 97.6992 9.89375C97.7181 10.9549 97.8127 12.0161 98.862 12.6225ZM99.4292 8.60519C99.5993 8.24515 99.8546 8.02723 100.271 8.02723C100.696 8.01775 100.97 8.2262 101.121 8.59571C101.462 9.46739 101.443 10.3485 101.169 11.2297C101.036 11.6655 100.753 11.9592 100.242 11.9403C99.7412 11.9213 99.467 11.5992 99.3536 11.1728C99.2401 10.7749 99.2307 10.3485 99.2118 10.1401C99.2401 9.47686 99.2212 9.02207 99.4292 8.60519Z" fill="white"/>
<path d="M172.298 19.9841C170.955 19.2735 169.273 19.8514 168.724 21.1779C167.987 22.9497 168.677 25.1478 170.114 25.6121C170.171 25.631 170.227 25.6405 170.275 25.65C172.307 26.1427 173.612 24.9962 173.612 22.7128C173.631 21.5853 173.394 20.562 172.298 19.9841ZM171.863 24.1624C171.73 24.5035 171.437 24.6646 171.059 24.6646C170.672 24.6741 170.416 24.4846 170.246 24.1719C170.001 23.7077 169.982 23.2055 170.001 22.7697C169.991 22.2201 169.982 21.7369 170.218 21.3011C170.407 20.9505 170.681 20.7326 171.088 20.7515C171.456 20.7705 171.749 20.96 171.872 21.3011C172.232 22.2485 172.232 23.215 171.863 24.1624Z" fill="white"/>
<path d="M52.4472 32.5866C51.8705 32.3876 51.3317 32.6245 51.171 33.2308C50.8779 34.3394 50.6038 35.4479 50.3296 36.5565C50.2729 36.5565 50.2162 36.5565 50.1594 36.5565C49.8569 35.4195 49.5261 34.2825 49.2519 33.1361C49.0439 32.2549 48.3538 32.5297 47.9001 32.615C47.3423 32.7287 47.8055 33.1645 47.8812 33.4109C48.3538 34.9458 48.8832 36.4617 49.3654 37.9872C49.649 38.8778 49.2992 39.6737 48.6091 39.7021C48.127 39.721 48.0702 39.9105 48.0513 40.3085C48.0324 40.7917 48.316 40.858 48.6847 40.8959C49.545 40.9717 50.2256 40.659 50.4903 39.8253C51.2277 37.5797 51.9083 35.3153 52.6079 33.0603C52.6646 32.8897 52.7402 32.6813 52.4472 32.5866Z" fill="white"/>
<path d="M167.845 7.2128C166.465 6.53062 164.801 7.12753 164.3 8.46347C163.591 10.33 164.271 12.405 165.746 12.8597C165.878 12.8976 166.02 12.9355 166.153 12.9545C168.109 13.2008 169.197 12.1586 169.206 9.99837C169.206 8.84246 168.998 7.78129 167.845 7.2128ZM167.571 11.1543C167.438 11.6091 167.155 11.9596 166.606 11.9312C166.105 11.9123 165.841 11.5901 165.727 11.1638C165.623 10.7848 165.595 10.3963 165.538 10.0742C165.614 9.59096 165.557 9.1646 165.727 8.75718C165.897 8.33082 166.134 8.02763 166.644 8.01815C167.202 8.00868 167.476 8.36872 167.589 8.82351C167.769 9.59096 167.779 10.3868 167.571 11.1543Z" fill="white"/>
<path d="M84.862 12.6694C85.5615 13.1148 86.2989 13.1148 87.0079 12.6694C87.2443 12.5273 87.4522 12.082 87.6602 12.7737C87.7642 13.1242 88.3219 12.9442 88.6623 12.9158C89.0593 12.8874 88.8797 12.5368 88.8891 12.3094C88.8986 11.8072 88.8891 11.2956 88.8891 10.784C88.8797 10.784 88.8702 10.784 88.8608 10.784C88.8608 10.1965 88.9081 9.59963 88.8513 9.0122C88.6623 7.1741 86.5731 6.25505 84.9849 7.27832C84.55 7.56256 84.7107 7.9605 84.8053 8.26369C84.9471 8.709 85.2118 8.29211 85.3914 8.22579C85.8262 8.06472 86.2611 7.9605 86.7149 8.05525C87.1875 8.14999 87.4711 8.46266 87.4428 8.95535C87.4144 9.46698 86.9796 9.20169 86.7149 9.26801C86.28 9.37224 85.8262 9.41013 85.3914 9.53331C84.7486 9.71333 84.3042 10.1302 84.1908 10.8124C84.0868 11.5325 84.1719 12.2241 84.862 12.6694ZM86.9417 10.0639C87.4239 10.0544 87.5373 10.2629 87.4711 10.6419C87.4333 11.542 87.0457 11.9778 86.3462 11.9588C85.7695 11.9399 85.5426 11.6177 85.5426 11.0872C85.5332 10.4713 86.1098 10.0828 86.9417 10.0639Z" fill="white"/>
<path d="M109.338 33.192C109.348 32.6236 109.102 32.5572 108.629 32.5572C108.185 32.5667 107.883 32.5857 107.911 33.1731C107.949 34.1869 107.949 35.2007 107.883 36.2145C107.845 36.764 107.618 37.323 106.918 37.2757C106.247 37.2283 106.19 36.6787 106.181 36.1387C106.172 35.1249 106.153 34.1111 106.19 33.0973C106.209 32.5193 105.86 32.5288 105.481 32.5667C105.16 32.5951 104.706 32.3867 104.716 33.031C104.735 34.3006 104.678 35.5702 104.744 36.8303C104.801 37.9578 105.642 38.6211 106.663 38.4789C107.155 38.4126 107.533 38.1284 107.939 37.7115C107.968 38.5832 108.544 38.3747 108.989 38.3558C109.575 38.3273 109.31 37.8536 109.32 37.5788C109.338 36.1292 109.301 34.6606 109.338 33.192Z" fill="white"/>
<path d="M155.253 12.5943C155.159 11.1636 155.404 9.72344 155.092 8.30223C154.932 7.55372 154.44 7.15578 153.703 7.02314C153.202 6.92839 152.701 6.94734 152.2 7.02314C151.103 7.20316 151.018 7.32633 151.264 8.47277C151.84 8.1601 152.436 7.91376 153.107 8.04641C153.608 8.14115 153.835 8.52962 153.826 8.96546C153.816 9.45814 153.362 9.20233 153.107 9.2497C152.578 9.33497 152.039 9.37287 151.547 9.59079C150.734 9.95083 150.347 10.7941 150.545 11.6942C150.716 12.4522 151.377 12.9354 152.219 12.9827C152.852 13.0112 153.353 12.7459 153.901 12.2248C153.816 13.1343 154.383 12.9069 154.799 12.9354C155.036 12.9448 155.282 12.9259 155.253 12.5943ZM152.805 11.9595C152.238 11.9689 151.888 11.7321 151.878 11.1352C151.869 10.4814 152.427 10.074 153.362 10.074C153.637 10.0551 153.911 10.0551 153.892 10.5383C153.845 11.391 153.448 11.95 152.805 11.9595Z" fill="white"/>
<path d="M101.794 25.0344C101.69 26.0008 102.352 25.5839 102.759 25.6408C103.023 25.6787 103.165 25.5555 103.146 25.2523C103.089 23.8974 103.203 22.5425 103.014 21.1971C102.9 20.4107 102.437 19.918 101.662 19.7759C101.076 19.6622 100.48 19.6622 99.8942 19.7949C98.8922 20.0317 98.8354 20.1454 99.1474 21.1876C99.7146 20.9603 100.263 20.6192 100.915 20.7518C101.378 20.8466 101.681 21.1308 101.681 21.6235C101.681 22.192 101.199 21.9551 100.915 22.0214C100.509 22.1162 100.074 22.0783 99.6673 22.2204C98.618 22.5994 98.1453 23.5184 98.4668 24.5891C98.7126 25.4039 99.6295 25.8397 100.603 25.6692C101.048 25.6124 101.341 25.2997 101.794 25.0344ZM99.7713 23.85C99.7808 23.2247 100.367 22.8078 101.227 22.7984C101.539 22.7984 101.757 22.8268 101.738 23.2531C101.709 24.1722 101.303 24.7596 100.622 24.7691C100.112 24.7691 99.7619 24.3901 99.7713 23.85Z" fill="white"/>
<path d="M133.361 12.3006C133.352 13.0775 133.881 12.9164 134.316 12.9354C134.571 12.9448 134.76 12.8785 134.741 12.5659C134.637 11.1636 134.855 9.75186 134.599 8.3496C134.458 7.59162 133.976 7.17473 133.248 7.03261C132.747 6.93786 132.246 6.93786 131.745 7.01366C130.648 7.19368 130.544 7.31685 130.752 8.45382C131.092 8.32118 131.423 8.13168 131.773 8.06536C132.331 7.96114 132.926 7.89481 133.238 8.54857C133.427 8.94651 133.475 9.25918 132.86 9.2497C132.293 9.24023 131.735 9.33497 131.206 9.53394C130.298 9.86556 129.854 10.6709 130.043 11.6089C130.223 12.4995 130.922 12.9922 131.896 12.9827C132.472 12.9733 132.888 12.6606 133.361 12.3006ZM131.366 11.1257C131.329 10.5098 131.99 10.0551 132.869 10.074C133.238 10.0077 133.38 10.1877 133.371 10.5951C133.352 11.4668 132.936 11.9784 132.227 11.969C131.669 11.95 131.395 11.6468 131.366 11.1257Z" fill="white"/>
<path d="M65.823 12.6612C66.5415 13.1444 67.3261 13.1444 68.0257 12.5949C68.3565 12.3296 68.4227 12.4054 68.5929 12.737C68.7819 13.1065 69.1979 12.8791 69.5099 12.9076C69.7651 12.9265 69.8218 12.7275 69.8124 12.5096C69.7935 11.2116 69.8124 9.91354 69.7462 8.62498C69.6989 7.64908 69.1695 7.16587 68.2147 7.0048C67.7326 6.929 67.2599 6.94795 66.7873 7.02375C65.7285 7.18482 65.6529 7.28904 65.7758 8.47338C66.0783 8.35021 66.3052 8.25546 66.532 8.16071C66.8818 7.99964 67.2505 7.99017 67.6097 8.03754C68.1013 8.09439 68.3754 8.40706 68.4038 8.88079C68.4322 9.48718 67.9311 9.17451 67.6664 9.25031C67.3639 9.32611 67.052 9.34506 66.7495 9.40191C65.9459 9.56298 65.3409 9.92302 65.1518 10.8042C64.9911 11.5716 65.1802 12.2254 65.823 12.6612ZM67.9406 10.0651C68.47 10.0557 68.47 10.3399 68.4322 10.5768C68.3849 11.5527 67.9973 11.979 67.3072 11.9601C66.6927 11.9411 66.4753 11.5716 66.4942 11.0221C66.5226 10.4347 67.137 10.0841 67.9406 10.0651Z" fill="white"/>
<path d="M148.201 19.7194C147.634 19.7289 147.265 20.0605 146.831 20.4016C146.736 19.6625 146.216 19.7668 145.753 19.8047C145.186 19.8615 145.431 20.3163 145.422 20.6005C145.403 22.0975 145.431 23.5851 145.403 25.0821C145.394 25.6127 145.62 25.698 146.065 25.6695C146.452 25.6411 146.868 25.7643 146.831 25.1105C146.783 24.2104 146.812 23.3103 146.821 22.4102C146.84 21.4154 147.209 20.8658 147.833 20.9416C148.74 21.0364 148.579 21.8133 148.617 22.3818C148.683 23.3103 148.655 24.2388 148.627 25.1674C148.617 25.6032 148.825 25.7358 149.184 25.6601C149.487 25.6032 150.016 25.9253 150.026 25.2905C150.035 23.9072 150.073 22.5239 149.969 21.1501C149.884 20.1458 149.194 19.7099 148.201 19.7194Z" fill="white"/>
<path d="M159.545 21.178C159.393 20.2968 158.835 19.842 157.994 19.7568C157.521 19.6999 157.03 19.7094 156.557 19.7852C155.498 19.9557 155.442 20.0694 155.659 21.2064C155.971 21.0832 156.274 20.9601 156.586 20.8464C156.916 20.7232 157.247 20.7042 157.588 20.8085C158.023 20.9411 158.259 21.2822 158.249 21.6991C158.24 22.2012 157.777 21.9644 157.521 22.0212C157.03 22.1349 156.51 22.116 156.037 22.3149C155.347 22.6087 154.969 23.1203 154.931 23.8688C154.893 24.6078 155.158 25.2047 155.839 25.5364C156.708 25.9627 157.484 25.7543 158.287 24.9773C158.259 25.8301 158.798 25.6406 159.223 25.6595C159.459 25.669 159.696 25.6595 159.667 25.3184C159.573 23.9351 159.781 22.5518 159.545 21.178ZM157.143 24.7499C156.604 24.7026 156.264 24.3899 156.293 23.8025C156.321 23.1961 156.973 22.7603 157.833 22.7887C158.259 22.7318 158.316 22.9876 158.297 23.3477C158.249 24.2004 157.767 24.8163 157.143 24.7499Z" fill="white"/>
<path d="M63.6697 34.9737C63.6603 32.8797 62.6298 32.1028 60.569 32.5292C59.7371 32.6997 59.3495 33.0408 59.6804 33.9314C60.0396 33.8083 60.3988 33.6851 60.7675 33.5714C61.3725 33.3914 61.9019 33.4767 62.2044 34.0925C62.4029 34.4905 62.384 34.7936 61.7885 34.7842C61.3725 34.7842 60.9471 34.841 60.5312 34.9168C59.6709 35.0779 59.0848 35.5516 58.9619 36.4517C58.8674 37.1434 59.0659 37.7592 59.6615 38.1572C60.3894 38.6404 61.1456 38.6214 61.8736 38.1193C62.0626 37.9866 62.1855 37.7498 62.4029 38.1761C62.6109 38.593 63.1214 38.3941 63.4806 38.3277C63.821 38.2614 63.6508 37.9014 63.6508 37.674C63.6792 36.7739 63.6697 35.8738 63.6697 34.9737ZM62.3084 36.0254C62.3179 36.8781 61.8546 37.5034 61.2213 37.4939C60.6446 37.4845 60.3421 37.1434 60.3137 36.6033C60.2759 35.9875 60.9755 35.5422 61.8641 35.5327C62.2801 35.5327 62.3462 35.7316 62.3084 36.0254Z" fill="white"/>
<path d="M74.3611 25.3086C74.2571 23.9348 74.4462 22.542 74.2477 21.1682C74.1248 20.3154 73.5765 19.8701 72.7824 19.7564C72.2908 19.6901 71.7614 19.6996 71.2699 19.7848C70.2016 19.9649 70.1543 20.0786 70.4001 21.2345C70.7783 21.026 71.1564 20.8271 71.5724 20.7607C72.045 20.6849 72.5082 20.7228 72.7824 21.1587C73.0187 21.5377 73.2267 21.9451 72.4421 21.9925C71.8276 22.0304 71.2037 22.0588 70.627 22.343C69.8424 22.7315 69.4643 23.6032 69.7006 24.4748C69.9275 25.2897 70.6932 25.8013 71.5724 25.7255C72.1018 25.6781 72.5366 25.4602 72.8958 25.0338C73.17 25.6213 73.4063 25.7255 74.0208 25.6402C74.2382 25.6213 74.38 25.5644 74.3611 25.3086ZM72.9715 23.3C72.9715 24.1622 72.4893 24.797 71.856 24.7496C71.3171 24.7117 70.9673 24.4085 70.9673 23.8306C70.9673 23.2336 71.6385 22.7978 72.461 22.7883C72.8864 22.7789 73.0282 22.9589 72.9715 23.3Z" fill="white"/>
<path d="M117.043 32.4626C116.571 32.4247 116.098 32.472 115.616 32.5478C114.765 32.69 114.547 33.1258 114.841 33.9122C115.294 33.7606 115.739 33.5711 116.202 33.4858C116.835 33.3627 117.431 33.7795 117.431 34.3386C117.44 35.1155 116.816 34.7081 116.485 34.7649C116.013 34.8502 115.531 34.8976 115.096 35.106C114.547 35.3713 114.207 35.7787 114.16 36.4135C114.113 37.1241 114.188 37.7779 114.869 38.1853C115.559 38.6022 116.268 38.5927 116.949 38.1664C117.194 38.0148 117.346 37.721 117.61 38.2137C117.799 38.5548 118.282 38.3464 118.641 38.3464C118.858 38.3464 118.858 38.1664 118.849 37.9769C118.82 36.7357 118.83 35.4945 118.783 34.2533C118.735 33.1637 118.14 32.5573 117.043 32.4626ZM117.459 36.0724C117.45 36.9536 116.986 37.5505 116.334 37.5031C115.805 37.4652 115.521 37.1715 115.521 36.622C115.521 35.9587 116.041 35.5892 116.968 35.5418C117.402 35.5134 117.506 35.7219 117.459 36.0724Z" fill="white"/>
<path d="M114.668 25.3091C114.47 23.9637 114.678 22.6088 114.545 21.2634C114.47 20.4391 113.969 19.918 113.165 19.7758C112.588 19.6716 111.993 19.7 111.397 19.8043C110.575 19.9464 110.291 20.3633 110.641 21.216C111.237 20.9697 111.766 20.657 112.38 20.7612C112.872 20.8465 113.222 21.1402 113.203 21.6708C113.184 22.2108 112.692 21.974 112.409 22.0403C112.078 22.1161 111.728 22.0972 111.407 22.1729C110.688 22.353 110.093 22.713 109.97 23.5278C109.856 24.2574 109.913 24.968 110.603 25.4038C111.331 25.8586 112.097 25.8586 112.825 25.3659C113.07 25.2049 113.231 24.8733 113.411 25.4796C113.515 25.8397 114.063 25.6028 114.403 25.6312C114.621 25.6597 114.696 25.5081 114.668 25.3091ZM112.125 24.7501C111.567 24.7122 111.255 24.3806 111.274 23.8121C111.293 23.2152 111.983 22.7793 112.796 22.7888C113.382 22.7983 113.184 23.2057 113.222 23.4805C113.174 24.2858 112.749 24.7975 112.125 24.7501Z" fill="white"/>
<path d="M92.3783 25.4794C92.5201 25.849 93.0305 25.6121 93.3709 25.6405C93.5788 25.6595 93.6734 25.5173 93.6356 25.3184C93.437 23.973 93.645 22.6181 93.5127 21.2727C93.437 20.4484 92.9455 19.9273 92.1325 19.7757C91.5558 19.6714 90.9602 19.6999 90.3647 19.7946C89.5422 19.9367 89.2586 20.3441 89.599 21.2253C89.8258 21.1116 89.996 21.0168 90.1756 20.9505C90.6294 20.7895 91.0926 20.6189 91.5747 20.8179C91.9339 20.9695 92.1892 21.2348 92.1703 21.6611C92.1514 22.1538 91.726 21.9833 91.4613 22.0306C91.1871 22.078 90.8941 22.0591 90.6199 22.1159C89.8447 22.277 89.1263 22.5612 88.9467 23.4424C88.7954 24.1909 88.8332 24.9489 89.5611 25.4036C90.3174 25.8774 91.121 25.8774 91.8489 25.3184C92.1608 25.0815 92.2081 25.0626 92.3783 25.4794ZM91.0359 24.7499C90.5159 24.693 90.2323 24.3614 90.2323 23.8403C90.2323 23.2339 90.8846 22.817 91.726 22.7981C92.3026 22.7886 92.1608 23.1771 92.1797 23.4898C92.1514 24.3046 91.6882 24.8257 91.0359 24.7499Z" fill="white"/>
<path d="M180.41 8.19759C179.824 6.89955 178.056 6.53004 176.979 7.46804C175.996 8.33024 175.665 10.2062 176.279 11.5422C176.79 12.6602 177.82 13.1339 179.333 12.9444C180.401 12.8023 180.486 12.6981 180.316 11.5327C179.824 11.7696 179.323 11.9591 178.784 11.9306C178.217 11.8927 177.726 11.7032 177.518 11.1158C177.357 10.68 177.385 10.3389 178.009 10.3768C178.576 10.4147 179.134 10.3863 179.701 10.3863C180.817 10.3863 180.826 10.3863 180.694 9.24929C180.656 8.89872 180.562 8.52921 180.41 8.19759ZM178.321 9.47668C178.056 9.23034 177.423 9.76092 177.442 9.05979C177.461 8.51026 177.707 7.98915 178.387 7.99862C179.077 8.0081 179.333 8.52921 179.304 9.07874C179.276 9.78935 178.633 9.22086 178.321 9.47668Z" fill="white"/>
<path d="M122.204 12.9166C123.121 12.7271 123.187 12.6134 122.932 11.5712C122.412 11.7891 121.882 11.9975 121.306 11.9218C120.729 11.846 120.313 11.5901 120.115 11.0027C119.973 10.5763 120.029 10.3679 120.54 10.3868C121.164 10.4153 121.778 10.3963 122.402 10.3963C123.452 10.3963 123.499 10.3584 123.357 9.29725C123.234 8.3782 122.969 7.48757 121.977 7.13701C121.145 6.84329 120.304 6.89066 119.585 7.50652C118.602 8.35925 118.309 10.3774 118.98 11.6754C119.528 12.7461 120.738 13.2198 122.204 12.9166ZM121.088 7.98973C121.75 8.02763 121.977 8.52979 121.958 9.03195C121.93 9.79941 121.249 9.2404 120.899 9.47727C120.653 9.24987 120.105 9.77098 120.067 9.10775C120.039 8.49189 120.549 7.96131 121.088 7.98973Z" fill="white"/>
<path d="M140.563 20.25C139.533 21.169 139.259 23.2914 140.006 24.5515C140.639 25.6317 142.057 26.0012 143.541 25.5748C144.146 25.4043 144.118 25.0158 144.023 24.6084C143.891 24.0304 143.522 24.4852 143.305 24.5421C142.303 24.8168 141.537 24.6463 141.187 24.0209C140.828 23.3767 140.97 23.1208 141.688 23.1114C142.029 23.1114 142.369 23.1114 142.785 23.1114C143.248 23.0071 144.052 23.4051 144.288 22.9408C144.581 22.3439 144.298 21.5575 143.995 20.9132C143.399 19.6152 141.641 19.2836 140.563 20.25ZM141.906 22.2397C141.613 22.0597 141.008 22.4955 141.036 21.8039C141.064 21.2638 141.301 20.7522 141.981 20.7237C142.634 20.6953 142.861 21.169 142.889 21.6996C142.917 22.4955 142.246 22.0597 141.906 22.2397Z" fill="white"/>
<path d="M82.8984 12.9354C83.3427 12.9449 83.5601 12.8501 83.5601 12.3385C83.5601 11.7795 83.2576 11.7795 82.8605 11.7889C82.3312 11.8079 81.7923 11.7889 81.0833 11.7889C81.8774 10.6235 82.558 9.5908 83.2765 8.58648C83.5885 8.14116 83.5885 7.64848 83.4277 7.22211C83.2954 6.8526 82.8227 7.06104 82.5108 7.05157C81.7261 7.02314 80.932 7.06104 80.138 7.03262C79.722 7.02314 79.6086 7.18421 79.6086 7.57268C79.6086 7.97062 79.6747 8.21696 80.1569 8.17906C80.6957 8.14116 81.244 8.16959 81.8112 8.16959C81.7829 8.35908 81.7923 8.42541 81.7639 8.4633C81.14 9.3634 80.5256 10.273 79.8827 11.1636C79.6558 11.4763 79.5424 11.7889 79.514 12.1679C79.4762 12.6796 79.5991 12.9543 80.2041 12.9259C81.0928 12.8975 81.9908 12.9164 82.8984 12.9354Z" fill="white"/>
<path d="M153.918 20.8844C154.287 20.9413 154.41 20.7328 154.4 20.3823C154.391 20.0886 154.4 19.7475 153.994 19.8043C153.124 19.918 153.228 19.3495 153.218 18.8189C153.218 18.6295 153.36 18.3452 153.058 18.241C152.651 18.0989 151.782 18.6673 151.772 19.1127C151.763 19.5201 151.744 19.8422 151.195 19.8043C150.808 19.7759 150.846 20.0886 150.855 20.3349C150.865 20.5718 150.78 20.9129 151.177 20.8844C151.791 20.8371 151.772 21.2161 151.763 21.6329C151.753 22.0309 151.763 22.4193 151.763 22.8173C151.763 22.8173 151.763 22.8173 151.772 22.8173C151.772 23.291 151.734 23.7742 151.782 24.248C151.886 25.4513 152.869 26.0387 154.022 25.6787C154.457 25.5365 154.372 25.2523 154.4 24.9491C154.438 24.5133 154.164 24.627 153.918 24.6364C153.408 24.6554 153.237 24.3332 153.237 23.8785C153.237 23.1489 153.256 22.4099 153.228 21.6803C153.2 21.1592 153.247 20.7802 153.918 20.8844Z" fill="white"/>
<path d="M103.272 37.3416C102.78 37.3416 102.695 36.9627 102.695 36.5742C102.686 35.8446 102.723 35.1056 102.676 34.376C102.638 33.817 102.771 33.5044 103.395 33.6086C103.763 33.6749 103.896 33.4854 103.877 33.1254C103.858 32.8317 103.886 32.5095 103.461 32.5758C102.695 32.699 102.648 32.2727 102.667 31.6947C102.676 31.4578 102.884 31.0883 102.487 30.9841C102.024 30.8514 101.249 31.4673 101.22 31.9789C101.201 32.3106 101.201 32.6232 100.738 32.5758C100.322 32.538 100.303 32.7938 100.294 33.1064C100.284 33.4381 100.351 33.6654 100.748 33.6181C101.23 33.5707 101.201 33.8928 101.211 34.2245C101.22 35.1814 101.211 36.1478 101.277 37.0953C101.343 38.0522 101.882 38.4881 102.903 38.507C102.95 38.507 103.064 38.5165 103.177 38.4881C103.517 38.4028 103.886 38.4123 103.886 37.8533C103.886 37.3322 103.64 37.3416 103.272 37.3416Z" fill="white"/>
<path d="M78.4535 22.7507C78.2644 22.6275 78.047 22.5328 77.8958 22.3717C77.5082 21.9927 76.5628 21.9169 76.8559 21.1684C77.1017 20.5431 77.8485 20.8558 78.3873 20.941C78.6804 20.9884 78.7655 20.9695 78.8033 20.6568C78.9167 19.9083 78.6993 19.7283 77.5649 19.7188C76.4589 19.6998 75.627 20.1925 75.419 20.9884C75.2015 21.7938 75.5702 22.3717 76.629 23.0634C77.0828 23.3571 77.9808 23.4992 77.6878 24.2382C77.3947 24.9583 76.6196 24.5604 76.0334 24.4751C75.8255 24.4467 75.4662 24.0298 75.419 24.6078C75.3906 24.9583 75.1826 25.4321 75.7688 25.5742C76.5439 25.7637 77.3286 25.8584 78.0943 25.5458C78.6709 25.3089 79.0869 24.9204 79.172 24.2572C79.2287 23.6129 79.0018 23.1107 78.4535 22.7507Z" fill="white"/>
<path d="M138.597 9.8464C138.238 9.619 137.888 9.39161 137.539 9.15474C137.302 8.99367 137.056 8.80418 137.17 8.47256C137.274 8.16937 137.548 8.06515 137.85 8.06515C138.077 8.06515 138.295 8.13147 138.522 8.14094C138.758 8.14094 139.136 8.54836 139.183 7.92303C139.221 7.50614 139.269 7.11767 138.692 7.05135C138.049 6.97555 137.406 6.89028 136.782 7.17452C135.544 7.74301 135.364 9.11684 136.442 9.95062C136.754 10.1875 137.113 10.358 137.435 10.5854C137.775 10.8128 138.304 11.0118 138.077 11.5234C137.869 12.0066 137.349 11.9593 136.886 11.874C136.744 11.855 136.612 11.7887 136.48 11.7698C136.234 11.7508 135.875 11.3339 135.78 11.9024C135.714 12.2909 135.582 12.7836 136.234 12.8688C136.565 12.9162 136.905 12.9636 137.236 13.011C137.236 13.0015 137.236 12.9825 137.236 12.9731C137.406 12.9731 137.576 12.9825 137.747 12.9731C138.673 12.8973 139.316 12.4046 139.505 11.6561C139.732 10.7749 139.259 10.2633 138.597 9.8464Z" fill="white"/>
<path d="M128.983 12.3383C128.936 11.1256 128.974 9.91281 128.974 8.70004C128.974 7.48727 128.936 6.2745 128.993 5.06174C129.012 4.46483 128.775 4.35113 128.255 4.37008C127.792 4.38903 127.452 4.38903 127.461 5.03331C127.49 7.45885 127.499 9.88438 127.461 12.3099C127.452 12.9731 127.811 12.9352 128.265 12.9447C128.69 12.9447 129.012 12.9352 128.983 12.3383Z" fill="white"/>
<path d="M90.4793 37.3034C89.7987 37.4455 89.1842 37.3413 88.7682 36.697C88.3239 35.9959 88.3239 34.7736 88.7871 34.1199C89.2125 33.504 89.8459 33.4851 90.4604 33.6556C90.9047 33.7788 90.952 33.6935 91.0087 33.2766C91.0938 32.6702 90.7345 32.5281 90.2997 32.4807C89.2409 32.3576 88.2294 32.4997 87.5771 33.4377C86.7547 34.6031 86.7547 35.8727 87.3219 37.1328C87.7851 38.1466 88.7115 38.4688 89.9121 38.4972C90.0728 38.4688 90.3753 38.393 90.6778 38.3551C91.245 38.2793 91.1127 37.8813 91.0843 37.5213C91.0371 37.0476 90.744 37.256 90.4793 37.3034Z" fill="white"/>
<path d="M164.272 24.5415C163.09 24.7879 162.353 24.2384 162.23 23.054C162.041 21.2728 162.825 20.619 164.659 20.998C164.886 19.861 164.82 19.7568 163.704 19.7284C163.392 19.7189 163.08 19.7094 162.778 19.7758C161.143 20.1263 160.282 22.0118 160.887 23.9446C161.426 25.6596 163.052 25.9817 164.536 25.6217C165.028 25.4985 164.867 25.1195 164.82 24.7974C164.773 24.3994 164.555 24.4847 164.272 24.5415Z" fill="white"/>
<path d="M98.6275 29.8766C98.1738 29.8671 97.9091 29.905 97.9185 30.4925C97.9563 32.9085 97.9469 35.3246 97.9185 37.7501C97.9091 38.2997 98.1076 38.4228 98.5992 38.3944C99.034 38.366 99.4311 38.4418 99.4027 37.7691C99.3555 36.5658 99.3933 35.353 99.3933 34.1402C99.3933 32.9275 99.3555 31.7242 99.4122 30.5114C99.4405 29.8482 99.0718 29.8956 98.6275 29.8766Z" fill="white"/>
<path d="M57.2125 29.8853C56.8344 29.8948 56.4184 29.7621 56.4279 30.4254C56.4563 32.8983 56.4468 35.3712 56.4279 37.8441C56.4184 38.5073 56.8533 38.3557 57.2314 38.3747C57.6285 38.3936 57.931 38.3936 57.9215 37.8251C57.8837 36.6219 57.9121 35.4091 57.9121 34.1963C57.9121 32.9267 57.8837 31.6666 57.9215 30.397C57.931 29.819 57.5812 29.8758 57.2125 29.8853Z" fill="white"/>
<path d="M107.42 17.8524C107.449 20.2401 107.458 22.6277 107.42 25.0248C107.411 25.6691 107.723 25.6502 108.186 25.6786C108.715 25.707 108.942 25.5649 108.923 24.9869C108.886 23.8121 108.914 22.6277 108.914 21.4434C108.914 20.259 108.886 19.0842 108.923 17.8998C108.942 17.284 108.715 17.1513 108.148 17.1513C107.59 17.1418 107.411 17.284 107.42 17.8524Z" fill="white"/>
<path d="M159.96 11.7703C159.242 12.0167 158.618 11.8935 158.155 11.2776C157.682 10.6618 157.654 9.34479 158.089 8.70051C158.504 8.08465 159.091 7.92358 159.79 8.16045C160.045 8.24572 160.31 8.32152 160.329 7.9141C160.338 7.59196 160.471 7.2414 160.017 7.07085C159.185 6.75818 157.72 7.07085 157.086 7.72461C156.264 8.57733 156.047 10.3017 156.604 11.5429C157.077 12.5946 157.966 13.0494 159.403 12.9831C160.509 12.9357 160.594 12.8031 160.282 11.6945C160.178 11.7135 160.064 11.7324 159.96 11.7703Z" fill="white"/>
<path d="M92.9178 12.9737C94.0711 12.9263 94.1562 12.8221 93.9671 11.6662C93.8348 11.7041 93.693 11.723 93.5606 11.7704C92.8705 12.0073 92.275 11.8746 91.8212 11.2967C91.3485 10.6903 91.3107 9.28802 91.755 8.64373C92.1615 8.0563 92.7476 7.9426 93.3999 8.14157C93.7308 8.24579 93.9482 8.23632 93.9955 7.82891C94.0427 7.44044 94.0427 7.09935 93.5228 7.03303C92.4168 6.90038 91.3202 6.90038 90.5923 7.87628C89.732 9.04167 89.7225 10.3492 90.3087 11.6378C90.8097 12.7368 91.7928 13.0211 92.9178 12.9737Z" fill="white"/>
<path d="M125.911 17.1516C125.438 17.1421 125.183 17.2179 125.202 17.7864C125.24 18.9708 125.212 20.1551 125.212 21.3394C125.212 22.5806 125.24 23.8218 125.202 25.063C125.183 25.6599 125.486 25.6694 125.921 25.6694C126.384 25.6789 126.639 25.622 126.63 25.0441C126.601 22.6185 126.601 20.193 126.63 17.7769C126.639 17.1895 126.365 17.1611 125.911 17.1516Z" fill="white"/>
<path d="M55.5122 12.3C55.5028 12.8495 55.7202 12.9537 56.2023 12.9443C56.675 12.9348 57.0248 12.9253 56.9964 12.2905C56.9586 11.3904 56.9775 10.4903 56.9964 9.59019C57.0153 8.93644 57.2611 8.44375 57.989 8.33005C58.2065 8.29215 58.5562 8.4627 58.5657 8.04581C58.5657 7.71419 58.7264 7.2973 58.4617 7.07939C58.197 6.85199 57.8094 6.98464 57.5258 7.19308C57.3273 7.3352 57.1382 7.50575 56.883 7.71419C56.883 6.91831 56.3441 7.02254 55.8809 7.06044C55.2475 7.10781 55.5406 7.61945 55.5406 7.91316C55.5122 9.37227 55.55 10.8409 55.5122 12.3Z" fill="white"/>
<path d="M97.7871 19.7757C97.5413 19.5957 97.1821 19.7283 96.9174 19.9178C96.6905 20.0789 96.492 20.2684 96.2178 20.5147C96.3029 19.681 95.7546 19.7757 95.2725 19.7947C94.6296 19.8231 94.9038 20.3252 94.9038 20.6284C94.8754 22.097 94.9227 23.5656 94.8754 25.0247C94.8565 25.5837 95.074 25.6974 95.5655 25.6595C95.9909 25.6311 96.4163 25.7353 96.3691 25.0437C96.3123 24.1151 96.3407 23.1866 96.3691 22.2486C96.388 21.6233 96.6621 21.178 97.3428 21.0643C97.5507 21.0264 97.9194 21.2253 97.9289 20.799C97.9194 20.4579 98.1085 20.0126 97.7871 19.7757Z" fill="white"/>
<path d="M112.639 32.6716C112.413 32.8137 112.223 33.0222 111.912 33.2875C111.978 32.4253 111.439 32.5485 110.976 32.5863C110.342 32.6432 110.654 33.1548 110.645 33.4391C110.616 34.8792 110.654 36.3099 110.616 37.7501C110.597 38.3091 110.843 38.3944 111.316 38.3849C111.76 38.3754 112.072 38.3659 112.044 37.769C111.997 36.9258 112.016 36.0825 112.034 35.2298C112.053 34.5287 112.271 33.9507 113.065 33.7896C113.311 33.7423 113.698 33.9128 113.67 33.4391C113.651 33.1169 113.849 32.719 113.509 32.5011C113.235 32.3305 112.904 32.5106 112.639 32.6716Z" fill="white"/>
<path d="M82.2279 32.6989C82.0199 32.8316 81.8498 33.0305 81.5095 33.3337C81.6418 32.4147 81.103 32.5852 80.6681 32.5757C80.082 32.5663 80.2805 33.0021 80.2711 33.2958C80.2616 34.7834 80.29 36.2709 80.2522 37.7584C80.2427 38.3269 80.4979 38.3932 80.9612 38.3837C81.4055 38.3837 81.708 38.3553 81.6796 37.7679C81.6324 36.9246 81.6513 36.0814 81.6702 35.2381C81.6891 34.5465 81.9065 33.9685 82.6817 33.7885C82.918 33.7317 83.3151 33.9211 83.2962 33.4474C83.2867 33.1253 83.4758 32.7179 83.1544 32.5094C82.8613 32.3199 82.5115 32.5189 82.2279 32.6989Z" fill="white"/>
<path d="M162.117 12.9446C162.589 12.9257 162.93 12.9162 162.882 12.2814C162.826 11.5234 162.873 10.7654 162.873 10.0074C162.873 9.24946 162.835 8.48201 162.882 7.7335C162.92 7.14607 162.665 7.0229 162.145 7.04185C161.672 7.0608 161.351 7.07027 161.37 7.70508C161.417 9.22104 161.408 10.7465 161.37 12.2624C161.36 12.8404 161.597 12.9636 162.117 12.9446Z" fill="white"/>
<path d="M129.645 20.3629C129.654 19.7376 129.276 19.7944 128.869 19.7755C128.416 19.7565 128.113 19.8323 128.142 20.4103C128.179 21.1683 128.151 21.9357 128.151 22.6937C128.151 23.4801 128.189 24.276 128.142 25.0624C128.104 25.6782 128.444 25.6782 128.879 25.6593C129.266 25.6403 129.664 25.754 129.654 25.1003C129.607 23.518 129.607 21.9452 129.645 20.3629Z" fill="white"/>
<path d="M167.297 20.3629C167.306 19.7376 166.928 19.7944 166.522 19.7755C166.068 19.7565 165.766 19.8323 165.794 20.4103C165.832 21.1683 165.803 21.9357 165.803 22.6937C165.803 23.4801 165.841 24.276 165.794 25.0624C165.756 25.6782 166.096 25.6782 166.531 25.6593C166.919 25.6403 167.316 25.7446 167.306 25.1003C167.259 23.518 167.269 21.9452 167.297 20.3629Z" fill="white"/>
<path d="M95.6601 12.9356C96.0098 12.8977 96.5109 13.1156 96.5109 12.4524C96.5109 10.8132 96.5109 9.18359 96.5109 7.54446C96.5109 6.88123 96.0098 7.09915 95.6601 7.06125C95.2725 7.01388 95.0172 7.09915 95.0361 7.59184C95.0645 8.37824 95.0456 9.17412 95.0456 9.96052C95.0456 10.7753 95.074 11.5997 95.0361 12.4145C95.0172 12.8882 95.2725 12.9735 95.6601 12.9356Z" fill="white"/>
<path d="M77.6776 12.9353C78.0274 12.8974 78.5284 13.1153 78.5284 12.4426C78.5284 10.8035 78.5284 9.17383 78.5284 7.5347C78.5284 6.87146 78.0274 7.08938 77.6776 7.05148C77.2901 7.00411 77.0348 7.08938 77.0537 7.58207C77.0821 8.36847 77.0632 9.16435 77.0632 9.95076C77.0632 10.7656 77.0915 11.5899 77.0537 12.4047C77.0348 12.8974 77.2901 12.9732 77.6776 12.9353Z" fill="white"/>
<path d="M61.8064 19.7851C61.4283 19.7851 61.0785 19.7377 61.088 20.3252C61.1163 21.9264 61.1163 23.5276 61.088 25.1288C61.0785 25.7163 61.4283 25.6594 61.797 25.6594C62.1562 25.6594 62.5438 25.7352 62.5154 25.1383C62.4776 24.3235 62.506 23.5087 62.506 22.6938C62.506 21.9074 62.4776 21.121 62.5154 20.3346C62.5438 19.7567 62.194 19.7851 61.8064 19.7851Z" fill="white"/>
<path d="M85.0445 32.567C84.6758 32.567 84.3072 32.5101 84.3355 33.0881C84.3733 33.8745 84.345 34.6609 84.345 35.4473C84.345 36.2621 84.3639 37.0769 84.3355 37.8918C84.3166 38.4318 84.6569 38.3939 84.9973 38.375C85.3281 38.356 85.7535 38.5171 85.7535 37.9012C85.7346 36.3 85.7252 34.6988 85.7535 33.107C85.763 32.5196 85.4227 32.567 85.0445 32.567Z" fill="white"/>
<path d="M162.183 6.02768C162.788 6.06558 163.034 5.86661 162.882 5.26023C163.043 4.58752 162.665 4.5591 162.135 4.5212C161.464 4.47383 161.37 4.75807 161.351 5.3455C161.323 6.06558 161.701 5.99926 162.183 6.02768Z" fill="white"/>
<path d="M84.9756 30.0376C84.3611 29.9997 84.2288 30.2366 84.2288 30.805C84.2193 31.4399 84.4934 31.5346 85.0417 31.5441C85.6657 31.563 85.8642 31.3167 85.7413 30.7387C85.902 30.066 85.4861 30.066 84.9756 30.0376Z" fill="white"/>
<path d="M95.7915 5.9998C96.3587 6.12297 96.5761 5.93347 96.5856 5.31762C96.595 4.66386 96.3492 4.53121 95.7537 4.52174C95.1297 4.51226 95.0446 4.76808 95.0257 5.30814C95.0163 5.90505 95.1959 6.14192 95.7915 5.9998Z" fill="white"/>
<path d="M77.7753 5.98996C78.2952 6.11313 78.5883 5.98996 78.5694 5.3362C78.5505 4.79614 78.4748 4.50242 77.832 4.52137C77.3026 4.54032 76.9907 4.59717 77.0285 5.24145C77.0568 5.75309 77.0568 6.16998 77.7753 5.98996Z" fill="white"/>
<path d="M166.542 17.3602C165.966 17.1992 165.805 17.455 165.786 18.0519C165.767 18.7151 166.088 18.7435 166.599 18.753C167.128 18.7625 167.336 18.6393 167.327 18.0614C167.327 17.4834 167.195 17.1992 166.542 17.3602Z" fill="white"/>
<path d="M61.8636 17.3222C61.4193 17.3696 60.9561 17.2275 61.0033 17.957C61.0317 18.4592 61.0317 18.8761 61.7029 18.7245C62.2228 18.8098 62.5631 18.734 62.5253 18.0707C62.497 17.597 62.4875 17.2559 61.8636 17.3222Z" fill="white"/>
<path d="M128.897 17.3222C128.463 17.3601 128.056 17.2653 128.113 17.9475C128.151 18.4307 128.094 18.8855 128.784 18.7244C129.294 18.7813 129.673 18.7813 129.654 18.0802C129.635 17.5022 129.493 17.2653 128.897 17.3222Z" fill="white"/>
<path d="M172.317 17.6068C171.013 17.3984 170.984 17.4268 170.445 19.1418C171.41 19.2176 171.608 19.047 172.317 17.6068Z" fill="white"/>
<path d="M100.072 6.46376C100.809 6.48271 100.894 5.78158 101.253 5.39312C101.376 5.26047 101.603 5.08992 101.508 4.90043C101.414 4.70146 101.149 4.84358 100.988 4.80568C100.27 4.79621 100.109 4.99518 99.7501 6.02792C99.6178 6.41639 99.7501 6.45429 100.072 6.46376Z" fill="white"/>
<path d="M7.67613 20.9226C7.68559 20.2215 7.44925 19.293 7.80848 18.8855C8.22443 18.4023 9.18868 18.7718 9.90714 18.715C9.99222 18.7055 10.0773 18.7055 10.1624 18.715C10.7958 18.8003 10.739 18.3739 10.7296 17.9665C10.7296 17.5686 10.7958 17.1517 10.1624 17.199C9.66135 17.2369 9.14141 17.1801 8.64038 17.218C7.9881 17.2654 7.63832 17.1896 7.63832 16.3463C7.63832 15.4841 7.9881 15.3704 8.68765 15.4273C9.18868 15.4652 9.70861 15.4083 10.2096 15.4462C10.843 15.4936 10.7768 15.0862 10.7863 14.6882C10.8052 14.2429 10.7863 13.9397 10.1813 13.9682C8.91453 14.0155 7.63832 14.0061 6.37156 13.9682C5.82327 13.9492 5.70983 14.1671 5.71928 14.6598C5.74764 15.7589 5.72873 16.8579 5.72873 17.957C5.72873 19.1129 5.72873 20.2689 5.72873 21.4248C5.72873 21.6616 5.6531 21.9364 5.98397 22.0691C6.93877 22.4575 7.65723 21.9743 7.67613 20.9226Z" fill="white"/>
<path d="M13.3021 31.6474C13.0279 31.4484 12.8389 31.581 12.612 31.7137C11.8274 32.159 11.0427 32.5948 10.2581 33.0496C10.1163 33.1349 9.80433 33.1633 9.98395 33.4381C10.0974 33.6181 10.2486 33.7602 10.5417 33.675C11.4681 33.4002 12.1866 33.9213 12.3 34.9351C12.3378 35.2667 12.5742 35.3141 12.924 35.4278C13.1225 34.3571 13.3021 33.3339 13.5006 32.3106C13.5479 32.0453 13.5479 31.8369 13.3021 31.6474ZM12.4986 33.5423C12.2433 33.7129 11.9408 33.296 11.6288 33.0022C12.0259 32.7749 12.3568 32.5759 12.7443 32.358C12.8105 32.8696 12.7727 33.3623 12.4986 33.5423Z" fill="white"/>
<path d="M8.03661 27.7534C7.97989 27.5639 7.86645 27.4028 8.1406 27.2796C8.36748 27.1849 8.55655 27.0807 8.7078 27.3744C8.84015 27.6207 8.9725 27.8766 9.1143 28.1134C9.18993 28.2461 9.30337 28.3029 9.46408 28.2082C9.59642 28.1324 9.70986 28.066 9.6815 27.9334C9.38845 27.3744 9.12375 26.8438 8.84015 26.3322C8.71726 26.1237 8.53764 26.2753 8.39584 26.3416C7.62066 26.7396 6.84548 27.1375 6.06085 27.5355C5.81506 27.6586 5.74889 27.8292 5.86233 28.085C6.00413 28.4071 6.20265 28.2745 6.40117 28.1608C6.57133 28.066 6.75095 27.9808 6.92111 27.886C7.18581 27.7344 7.33706 27.7723 7.53558 28.0471C7.72465 28.3029 7.64902 29.0419 8.20677 28.7293C8.72671 28.4545 8.13115 28.0755 8.03661 27.7534Z" fill="white"/>
<path d="M17.4812 33.6377C16.8478 33.4008 16.205 33.1924 15.5716 32.965C15.3825 32.8987 15.2124 32.7944 15.08 33.0503C14.9477 33.2966 15.0611 33.4482 15.2786 33.4956C16.1105 33.6756 15.9592 34.1683 15.7229 34.7368C15.5338 35.1726 15.4204 35.6463 15.2502 36.0917C15.1557 36.3475 15.1746 36.518 15.4487 36.6222C15.7607 36.7454 15.8458 36.537 15.9214 36.3096C16.1199 35.7221 16.3279 35.1442 16.5359 34.5567C16.6115 34.3483 16.6493 34.102 16.9896 34.1399C17.0936 34.1683 17.226 34.2251 17.3678 34.2536C17.5852 34.3009 17.831 34.3862 17.8972 34.0451C17.9728 33.6851 17.6703 33.704 17.4812 33.6377Z" fill="white"/>
<path d="M10.8816 29.4684C10.7398 29.2884 10.598 29.2126 10.3995 29.3832C9.67159 29.9895 8.93422 30.5959 8.20631 31.2023C8.08341 31.3065 8.01724 31.4202 8.13068 31.5623C8.22522 31.6855 8.30084 31.8561 8.49936 31.8655C8.54663 31.8371 8.60335 31.8182 8.64117 31.7803C9.39744 31.1549 10.1443 30.5296 10.9005 29.9043C11.0896 29.7432 10.9856 29.6106 10.8816 29.4684Z" fill="white"/>
<path d="M30.5549 15.8444C30.0255 17.2087 30.0255 18.6015 30.4698 19.9754C30.9424 21.4345 32.0579 22.183 33.6934 22.2019C35.0925 22.2209 36.2458 21.3682 36.7563 19.9754C36.9926 19.3311 37.0683 18.6679 37.0588 17.9383C37.0966 17.2466 36.9548 16.5266 36.6901 15.8444C36.1702 14.5274 35.0736 13.8168 33.5799 13.8263C32.1336 13.8263 31.0748 14.5274 30.5549 15.8444ZM32.5117 16.0149C32.6913 15.5412 33.0695 15.257 33.6272 15.2664C34.1755 15.2759 34.5158 15.5601 34.7427 16.0244C35.0452 16.6497 35.0452 17.3319 35.0736 18.0046C35.0452 18.7058 35.0547 19.4164 34.7049 20.0606C34.4591 20.5154 34.1188 20.7902 33.561 20.7807C33.0317 20.7713 32.7008 20.487 32.5212 20.0512C31.9918 18.7058 32.0012 17.3509 32.5117 16.0149Z" fill="white"/>
<path d="M33.4941 31.0507C32.8702 30.4822 32.2368 29.9232 31.6129 29.3547C31.4144 29.1747 31.2442 29.1273 31.0457 29.3736C30.8566 29.6105 31.0268 29.7242 31.1781 29.8568C31.594 30.2264 32.0194 30.5959 32.4354 30.9654C32.4164 31.0033 32.3975 31.0317 32.3786 31.0696C31.7074 30.8706 31.0363 30.6906 30.3745 30.4727C30.0058 30.3495 29.8451 30.5864 29.6655 30.7854C29.4292 31.0507 29.7317 31.1833 29.8735 31.3254C30.4596 31.9318 31.0741 32.5193 31.6602 33.1256C31.8587 33.3341 32.0289 33.3341 32.2368 33.1446C32.5015 32.9077 32.2463 32.7845 32.1328 32.6803C31.6791 32.2729 31.2064 31.8844 30.7432 31.4865C30.8094 31.4107 30.8661 31.3444 30.9323 31.2686C31.6318 31.4676 32.3314 31.6571 33.0309 31.875C33.3618 31.9792 33.5792 31.856 33.7399 31.5907C33.9101 31.3065 33.6454 31.1833 33.4941 31.0507Z" fill="white"/>
<path d="M30.5437 33.9693C29.778 33.3913 29.0028 32.8323 28.2182 32.2638C28.0575 32.1407 27.8968 32.0554 27.6793 32.188C27.4336 32.3301 27.4146 32.5007 27.4525 32.747C27.6037 33.8082 27.7361 34.8694 27.8779 35.94C28.1615 35.8737 28.4167 35.8832 28.4734 35.5326C28.6247 34.5283 29.2391 34.1588 30.1656 34.5188C30.4586 34.6325 30.6099 34.4714 30.7328 34.3198C30.9219 34.1019 30.6477 34.0451 30.5437 33.9693ZM28.2654 34.2346C28.1993 33.7893 28.1426 33.4387 28.0858 33.0029C28.4923 33.2587 28.9745 33.3724 29.0123 33.7987C29.0312 34.0451 28.6058 34.1872 28.2654 34.2346Z" fill="white"/>
<path d="M25.1392 33.3722C24.1655 33.3533 23.8535 33.7512 24.2127 34.8977C24.3924 35.4567 24.5625 36.0252 24.7327 36.5842C24.8083 36.821 24.8745 37.0958 25.2337 36.9916C25.6402 36.8779 25.4606 36.6126 25.3661 36.3852C25.177 35.9115 25.1581 35.5988 25.7915 35.4093C26.3114 35.2577 26.5572 34.8124 26.4059 34.1965C26.283 33.6375 25.9333 33.4006 25.1392 33.3722ZM25.2337 35.0019C24.7799 35.0872 24.8839 34.6892 24.7894 34.4618C24.6287 34.0734 24.9501 34.0355 25.1675 33.9976C25.4984 33.9407 25.6591 34.1776 25.7726 34.405C25.7347 34.7745 25.5362 34.945 25.2337 35.0019Z" fill="white"/>
<path d="M36.2158 25.2334C35.6486 24.9776 35.1853 25.1671 34.7694 25.584C34.5803 25.7735 34.3818 26.1241 34.0887 25.9346C33.7768 25.7356 33.9091 25.385 34.0793 25.1103C34.1738 24.9587 34.2684 24.8165 34.0604 24.6934C33.9091 24.6081 33.7579 24.5797 33.5972 24.7123C33.2474 25.0155 33.134 26.0104 33.4648 26.3609C33.9091 26.8157 34.4102 26.7968 34.9017 26.4273C35.0341 26.323 35.1475 26.1999 35.2704 26.0767C35.4595 25.8967 35.658 25.7072 35.9322 25.8872C36.2252 26.0767 36.159 26.342 36.0551 26.6357C35.9889 26.8347 35.4878 27.0715 35.9794 27.2895C36.4521 27.5074 36.5183 27.0336 36.6601 26.7589C36.7452 26.5883 36.7452 26.3799 36.783 26.2188C36.7735 25.7735 36.6223 25.4229 36.2158 25.2334Z" fill="white"/>
<path d="M32.6358 27.4879C32.4373 27.3742 32.3427 27.5637 32.2482 27.7058C32.1064 27.9048 32.2104 27.9995 32.3805 28.0943C33.2124 28.568 34.0349 29.0512 34.8573 29.5344C35.2071 29.7429 35.2922 29.4871 35.3773 29.2028C35.3394 29.146 35.3205 29.0512 35.2544 29.0133C34.3847 28.5017 33.5149 27.9901 32.6358 27.4879Z" fill="white"/>
<path d="M17.6033 13.286C18.1894 13.5986 19.3522 13.1723 19.4372 12.509C19.5885 11.2394 20.5149 11.6184 21.2712 11.5237C22.1598 11.41 22.2165 12.0069 22.3111 12.5943C22.3962 13.1154 22.623 13.3997 23.1997 13.3049C23.4171 13.267 23.6535 13.2765 23.8803 13.3049C24.4381 13.3807 24.457 13.1439 24.3341 12.6891C23.7385 10.6046 23.1902 8.51071 22.5852 6.42626C22.1504 4.9482 22.5191 5.23245 20.8742 5.19455C20.5527 5.41247 19.8532 4.81556 19.6169 5.63038C18.9268 8.03697 18.2367 10.4436 17.5466 12.8596C17.4993 12.9828 17.3764 13.1533 17.6033 13.286ZM20.1746 9.61925C20.4109 8.7002 20.5906 7.7622 20.7985 6.83368C20.8553 6.83368 20.912 6.83368 20.9687 6.84315C21.1767 7.79063 21.4886 8.7381 21.5737 9.69505C21.6399 10.4436 20.9214 10.0077 20.5622 10.093C20.2124 10.1783 20.0706 10.0267 20.1746 9.61925Z" fill="white"/>
<path d="M20.626 13.2763C19.917 14.129 19.2458 15.0007 19.2269 16.1755C19.208 17.1704 19.9359 17.9947 20.8151 18.0136C21.7699 18.0421 22.4789 17.2557 22.4883 15.8913C22.4694 15.0101 21.8077 14.1385 21.1081 13.2763C20.9474 13.0678 20.7867 13.0868 20.626 13.2763Z" fill="white"/>
</svg>
