<svg width="40" height="32" viewBox="0 0 40 32" fill="none" xmlns="http://www.w3.org/2000/svg">
<path d="M23.6 11.8C23.6 13.2 23.3 14.5 22.9 15.7C22.8 16.1 22.6 16.5 22.4 16.9C21.9 17.9 21.3 18.8 20.5 19.7C20.2 20 19.9 20.3 19.6 20.6C19.1 21 18.5 21.5 18 21.8C17.6 22 17.2 22.2 16.8 22.4C16.4 22.6 16 22.7 15.6 22.9C14.4 23.3 13 23.6 11.7 23.6V15.7C12.6 15.7 13.4 15.4 14 14.9C15 14.2 15.6 13 15.6 11.7C15.6 10.4 15 9.2 14 8.5C13.4 8 12.6 7.7 11.7 7.7C9.6 7.7 7.8 9.5 7.8 11.6V30.6C7.8 31.2 7.1 31.6 6.5 31.3C5.6 30.7 4.7 30 3.8 29.2C3.1 28.6 2.5 28 1.9 27.3C0.7 26 0 24.1 0 22.1V11.8C0 10.4 0.3 9.1 0.7 7.9C1.2 6.4 2 5.1 3 3.9C3.3 3.6 3.6 3.3 3.9 3C5 2 6.4 1.2 7.8 0.7C9.1 0.3 10.5 0 11.8 0C13.1 0 14.5 0.2 15.7 0.6C16.5 0.9 17.3 1.3 18 1.7C18.6 2.1 19.1 2.5 19.6 2.9C19.9 3.2 20.2 3.5 20.5 3.8C21.5 4.9 22.3 6.3 22.8 7.7C23.4 9.1 23.6 10.4 23.6 11.8Z" fill="white"/>
<path d="M39.3998 11.8V22.1C39.3998 24.1 38.6998 26 37.2998 27.5C36.6998 28.2 36.0998 28.8 35.3998 29.4C34.5998 30.2 33.5998 30.8 32.6998 31.5C32.1998 31.9 31.3998 31.5 31.3998 30.8V11.8C31.3998 9.6 29.5998 7.9 27.4998 7.9C26.5998 7.9 25.8998 8.2 25.1998 8.7C25.0998 8.4 25.0998 8.2 24.9998 7.9C24.6998 6.8 24.1998 5.7 23.5998 4.7C23.4998 4.4 23.2998 4.2 23.0998 4C22.5998 3.2 21.8998 2.5 21.2998 1.9C21.9998 1.5 22.7998 1.1 23.5998 0.8C24.8998 0.2 26.1998 0 27.5998 0C28.9998 0 30.2998 0.3 31.4998 0.7C32.9998 1.2 34.3998 2 35.4998 3C35.7998 3.3 36.0998 3.6 36.3998 3.9C37.3998 5 38.1998 6.4 38.6998 7.8C39.1998 9.1 39.3998 10.4 39.3998 11.8Z" fill="white"/>
</svg>
