<svg width="21" height="28" viewBox="0 0 21 28" fill="none" xmlns="http://www.w3.org/2000/svg">
<path d="M17.5599 18.4695C17.4023 18.1892 17.411 18.0491 17.6474 17.8214C19.4421 16.0612 20.5014 13.9245 20.729 11.4287C21.0179 8.25865 20.0636 5.48264 17.8575 3.162C16.5706 1.8134 15.0123 0.911414 13.2351 0.385987C12.7274 0.237115 12.4297 0.342201 12.3247 0.692486C12.2196 1.05153 12.386 1.27046 12.9112 1.42808C17.5599 2.78544 20.2738 7.2253 19.5909 11.8053C18.8205 16.9807 13.8129 20.4924 8.66529 19.5291C4.86584 18.8197 1.7755 15.6934 1.1977 11.7878C0.646171 8.00469 2.39707 4.29167 5.68876 2.3651C6.43289 1.92724 7.2208 1.61198 8.05248 1.3843C8.35013 1.30549 8.53397 1.0778 8.47269 0.762543C8.41141 0.429772 8.16628 0.280901 7.82486 0.333444C7.71105 0.350958 7.59724 0.37723 7.48343 0.412258C-0.141733 2.63657 -2.55797 12.2957 3.1412 17.8214C3.38633 18.0579 3.36882 18.2067 3.21999 18.4695C2.22198 20.2121 1.23272 21.9548 0.243464 23.6975C0.094638 23.9602 -0.0366794 24.2141 0.173429 24.5031C0.392291 24.7921 0.689944 24.722 0.978842 24.6607C2.02063 24.4418 3.05366 24.2229 4.08669 23.9952C4.35808 23.9339 4.4894 23.9952 4.5857 24.2842C4.94463 25.3701 5.33858 26.4472 5.73253 27.5243C5.87261 27.9096 6.15275 28.0673 6.45916 27.9622C6.68677 27.8834 6.78307 27.682 6.88813 27.4893C8.04372 25.4576 9.19932 23.4172 10.3549 21.3856C10.4862 21.4644 10.53 21.5958 10.5913 21.7096C11.6768 23.6186 12.7624 25.5277 13.848 27.4368C14.0055 27.717 14.1456 28.0322 14.5483 27.9972C14.9248 27.9534 15.0035 27.6469 15.1086 27.3579C15.4675 26.3334 15.8527 25.3088 16.1942 24.2754C16.2905 23.9777 16.4393 23.9427 16.7019 24.004C17.7349 24.2316 18.7767 24.4506 19.8098 24.6695C20.0987 24.7308 20.3876 24.7921 20.6064 24.5031C20.834 24.2054 20.6765 23.9602 20.5276 23.6975C19.5471 21.9548 18.5579 20.2034 17.5599 18.4695ZM6.39788 26.1495C6.0477 25.1599 5.74129 24.2754 5.42613 23.391C5.21602 22.7955 5.07595 22.7079 4.46313 22.8218C3.55266 22.9969 2.65095 23.1895 1.6792 23.3822C2.34454 22.2 2.97487 21.0791 3.61395 19.9582C3.78904 19.6429 3.98163 19.3277 4.14797 19.0124C4.23552 18.8548 4.2968 18.8022 4.47189 18.9248C5.96015 19.9582 7.61475 20.5449 9.46195 20.7463C8.44643 22.5503 7.43966 24.3105 6.39788 26.1495ZM16.6844 22.8918C16.6581 22.883 16.6319 22.8655 16.6056 22.8655C15.6952 22.6554 15.6251 22.6904 15.3012 23.5749C15.0035 24.398 14.7059 25.23 14.382 26.1495C13.3402 24.328 12.3422 22.5678 11.3179 20.7638C12.5786 20.6062 13.7517 20.3172 14.8547 19.783C15.3362 19.5466 15.809 19.2926 16.2467 18.9774C16.413 18.8548 16.5093 18.8022 16.6319 19.0387C17.4285 20.4748 18.2427 21.8935 19.0919 23.3997C18.2515 23.2158 17.4636 23.0582 16.6844 22.8918Z" fill="#EE9B12"/>
<path d="M2.19568 10.4041C2.19568 14.9316 5.86381 18.5921 10.3899 18.5921C14.916 18.5921 18.5491 14.9316 18.5841 10.4041C18.6191 6.08688 15.0735 2.1812 10.3636 2.18996C5.8463 2.18996 2.19568 5.86795 2.19568 10.4041ZM17.5073 10.4041C17.4985 14.3098 14.2856 17.5062 10.3724 17.5062C6.46787 17.4974 3.25497 14.2836 3.26373 10.3779C3.27248 6.47219 6.48538 3.27584 10.3986 3.2846C14.3119 3.29335 17.516 6.49846 17.5073 10.4041Z" fill="#EE9B12"/>
<path d="M10.3745 1.08646C10.6721 1.09521 10.9434 0.83255 10.9434 0.54362C10.9434 0.263444 10.6633 -0.0167307 10.3745 0.000780288C10.0506 0.0182912 9.87555 0.219667 9.83179 0.526109C9.80553 0.806284 10.0856 1.0777 10.3745 1.08646Z" fill="#EE9B12"/>
<path d="M5.18104 8.86316C5.09349 9.13463 5.23357 9.32729 5.41741 9.51119C6.03023 10.1067 6.64304 10.7197 7.25585 11.3239C7.36091 11.429 7.45721 11.5078 7.42219 11.6917C7.26461 12.5324 7.1508 13.3818 6.99322 14.2225C6.94069 14.5203 6.92318 14.7742 7.17706 14.9669C7.44845 15.1683 7.69358 15.0457 7.94746 14.9143C8.66533 14.5378 9.39195 14.17 10.1098 13.7847C10.3112 13.6796 10.46 13.6708 10.6614 13.7847C11.388 14.1787 12.1234 14.5553 12.8587 14.9318C12.9813 14.9931 13.1039 15.0895 13.2439 15.072C13.6379 15.0807 13.8655 14.7742 13.7955 14.3539C13.6554 13.5044 13.5328 12.6638 13.3665 11.8143C13.3227 11.5779 13.3752 11.4378 13.5328 11.2889C14.1544 10.6934 14.7585 10.0804 15.3713 9.48491C15.5551 9.30977 15.6427 9.0996 15.5639 8.8544C15.4851 8.62672 15.31 8.52163 15.0736 8.4866C14.2507 8.37276 13.4365 8.22389 12.6136 8.1188C12.3072 8.08377 12.1321 7.96993 12.0008 7.68095C11.6856 6.98037 11.3179 6.30608 10.9765 5.61426C10.8452 5.34279 10.7139 5.08008 10.3637 5.08008C10.0398 5.08884 9.90847 5.33403 9.77715 5.58799C9.43572 6.28856 9.05928 6.98038 8.73536 7.69846C8.6128 7.96993 8.43771 8.07502 8.14881 8.11004C7.3434 8.22389 6.53799 8.364 5.73257 8.46909C5.48745 8.51287 5.26858 8.60044 5.18104 8.86316ZM8.8054 9.11711C9.14683 9.08209 9.35693 8.92446 9.50576 8.61796C9.77715 8.03999 10.0748 7.47953 10.3812 6.84902C10.6876 7.45326 10.9765 8.00496 11.2392 8.56542C11.3967 8.89819 11.6156 9.07333 12.0008 9.11711C12.6049 9.17841 13.2002 9.29226 13.8655 9.39734C13.4015 9.86147 12.99 10.2993 12.5523 10.7197C12.2809 10.9824 12.1409 11.2363 12.2372 11.6392C12.3772 12.2259 12.4385 12.8389 12.5436 13.5307C11.922 13.2067 11.3705 12.944 10.8452 12.6462C10.5125 12.4623 10.2324 12.4711 9.90847 12.655C9.3832 12.9527 8.83166 13.2155 8.21885 13.5395C8.33266 12.8301 8.4202 12.1996 8.54277 11.5691C8.60405 11.2626 8.52526 11.0349 8.30639 10.8248C7.85116 10.3694 7.41344 9.90526 6.92318 9.41486C7.56226 9.30977 8.18383 9.18717 8.8054 9.11711Z" fill="#EE9B12"/>
</svg>
