<?xml version="1.0" encoding="utf-8"?>
<!-- Generator: Adobe Illustrator 24.0.2, SVG Export Plug-In . SVG Version: 6.00 Build 0)  -->
<svg version="1.1" id="Capa_1" xmlns="http://www.w3.org/2000/svg" xmlns:xlink="http://www.w3.org/1999/xlink" x="0px" y="0px"
	 viewBox="0 0 1950.9 422.2" style="enable-background:new 0 0 1950.9 422.2;" xml:space="preserve">
<style type="text/css">
	.st0{fill:#FFFFFF;}
</style>
<g>
	<path class="st0" d="M282.2,11.3C267,6,251,4,235.6,0c-15.6,0-31.1,0-46.7,0c-4.7,3-10.3,2.4-15.5,3.3
		C57.1,23.9-21.1,141.3,5.1,256c26,113.7,133.5,183.8,249,162.3c93.5-17.5,166.2-102,170.4-195.3C428.8,122.9,366.3,40.7,282.2,11.3
		z M136.4,39.4c50.7-21.4,101.4-21.3,152.1,0.1c5.4,2.3,7.8,4.1,4.6,10.8c-18.3,38-36,76.3-53.8,114.5c-3.1,6.6-7.2,12.4-13.2,16.6
		c-7.7,5.4-12.5,12.3-13.5,22.5c-0.5-13.1-9.9-19.3-18.3-26.4c-3.7-3.1-6.1-7.3-8.1-11.6c-18-38.5-35.9-77-54.2-115.4
		C128.9,44.1,130.6,41.9,136.4,39.4z M121.7,47.1c2.6-0.1,2.7,2,3.3,3.4c18.1,40.7,36.3,81.4,54.2,122.3c3.2,7.2,0.6,15.2,2,22.9
		c2.8,15.8,12.7,25,26.4,31.3c3.9,1.8,7.5,0.8,11.2-0.7c16.6-6.8,26.1-21.6,25.6-41.2c-0.2-6.5,1-12.2,3.7-18
		c17-38,33.7-76.1,50.7-114.1c1.1-2.5,1.3-8.5,6.8-4.6c3.7,2.6,10.9,2.7,7,11.2c-22.8,50.1-45.2,100.3-67.6,150.5
		c-3.1,7-8,12.7-14.4,16.7c-8.3,5.2-15.5,11.1-18.3,21.6c-2.4-10.3-9.2-16.2-17.3-21.1c-7.1-4.3-12.1-10.4-15.5-18
		c-22-49.4-44.1-98.8-66.2-148.2C110.5,54.8,115.1,47.4,121.7,47.1z M203.7,393.2c-0.6,4.3-2,5.5-6.1,5.1
		c-87.1-7.8-155.5-71.7-170.1-153c-11.4-63.6,6.7-118.7,50.8-165.7c0.6-0.7,1.2-1.3,1.9-1.9c2.2-1.9,4.5-3.8,7.8-6.5
		c14.6,36.8,28.8,72.7,43,108.6c9.8,24.9,19.5,49.8,29.4,74.7c1.7,4.2,2.5,8.2,2,12.9c-1,9.5-1,19,1.6,28.4
		c3.9,14,11.5,24.9,25.9,29.5c10.2,3.3,14.9,10.2,15.1,20.7C205.3,361.7,205.8,377.4,203.7,393.2z M189.5,274.6
		c-8-4.1-13.1-11.1-16.6-19.3C147.2,194.5,121.5,133.8,95.8,73c-2.5-5.9,1.2-12.9,7.2-13.9c4.6-0.8,4.1,3.6,5.1,5.9
		c14.5,35.2,28.9,70.4,43.3,105.6c2.8,6.9,5.7,13.7,8.5,20.6c5.7,14,11,27.9,13.2,43.2c2.7,18.8,13.3,32.8,31.4,40.4
		c5.2,2.2,10.1,2.4,15.5,0.2c18.4-7.7,29.5-21.7,32-40.9c2.1-16.3,8.3-30.8,14.3-45.6c16.7-41,33.4-82,50.5-122.9
		c0.9-2.2,0.2-9.2,5.9-5.9c4,2.4,10.8,3.8,7.1,12.5c-26.2,60.9-51.8,122-77.6,183.1c-3.8,9.1-9.8,16.4-18.8,20.7
		c-11.5,5.6-19.7,13.5-20.9,27.8C211.7,287.8,201.3,280.7,189.5,274.6z M399.2,231.5c-10.4,85.8-69.4,148.3-154.6,164
		c-29.2,5.4-21.5,8.9-24.7-19.5c-1.1-10-0.3-20.2-0.2-30.3c0.1-10,4.8-17,14.5-20.2c17.2-5.5,28-19.1,27.2-35.1
		c-1.7-34.3,14.3-62.6,25.6-92.6c15.3-40.6,31.7-80.8,47.6-121.2c0.6-1.6,1.5-3.1,2.9-5.9C384,115.5,406.8,168.3,399.2,231.5z"/>
	<path class="st0" d="M1933.2,88.6c-3.4-2.2-8.2-4.3-6.2-9.3c2-5.2,7.3-4.2,11.7-3.7c1.2,0.1,2.3,0.6,3.4,0.9
		c2.7,0.7,5.6,1.3,6.1-2.7c0.4-3.3,2-7.6-3.3-8.6c-4.4-0.8-8.8-1.6-13.2-1.4c-10.1,0.4-17.6,6-19.8,14c-2.1,7.6,1.6,14.3,11.1,20.1
		c1.3,0.8,2.7,1.4,3.8,2.3c4.1,3.2,12.5,4.4,9.1,11.8c-2.9,6.4-9.7,3.8-15.2,2.6c-0.6-0.1-1.2-0.3-1.8-0.3c-2.5-0.3-6.1-4.2-6.9,1.2
		c-0.6,3.8-2.8,9,4.3,10.5c12.8,2.7,24.8,2.5,34.6-7.8c0-5.4,0-10.7,0-16.1C1945.9,96.3,1939.4,92.6,1933.2,88.6z"/>
	<path class="st0" d="M1527.2,67.3c0.7,1.6,1.5,3.1,2.2,4.7c7,16.4,14.4,32.6,20.9,49.2c3.7,9.4,11.1,4.2,16.9,5.2
		c4.3,0.8,4.5-2.8,4.5-5.9c0-24.1-0.1-48.2,0.1-72.3c0.1-6.3-3.9-5.3-7.7-5.5c-4.2-0.2-7.5-0.1-7.4,5.8c0.3,15.8,0.1,31.5,0.1,47.3
		c0,2.1-0.4,4.1-0.8,7.7c-1.6-2.9-2.3-4.2-2.9-5.5c-7.1-16.7-14.4-33.2-21.2-50c-3.7-9.2-11.2-4.7-16.9-5c-6.6-0.3-3.7,5.7-3.7,8.8
		c-0.3,22.3,0,44.6-0.2,66.9c-0.1,5.3,0.8,8,7.2,8c6.1-0.1,7.5-2.2,7.4-7.8c-0.3-17.2-0.1-34.4-0.1-51.5
		C1526,67.5,1526.6,67.4,1527.2,67.3z"/>
	<path class="st0" d="M1438.8,198.2c-7.2-0.3-11.8,4.3-16.5,8.4c-10.7-11.3-19.1-11.4-30.7-0.7c-0.4-9.2-7.1-7-12.3-6.7
		c-6.6,0.4-3.6,5.8-3.7,9c-0.3,15.2,0.2,30.4-0.3,45.6c-0.2,6.1,2.2,7.5,7.8,7.3c5-0.2,8.4-0.2,8-7c-0.6-10.4-0.4-20.8-0.1-31.3
		c0.2-6,2.3-11.7,9.5-11.8c7.6-0.1,7.9,6.1,8,11.5c0.2,9.8,0.3,19.7,0,29.5c-0.2,5.6,0,9.2,7.7,9.2c8.3,0,7.3-4.6,7.2-9.6
		c0-9.5-0.4-19.1,0.2-28.6c0.4-6.1,2.4-12.5,10.3-11.9c7.3,0.6,7.1,6.9,7.1,12.3c0.1,10.7,0.2,21.4-0.1,32.2
		c-0.1,4.5,1.7,6.2,5.8,5.3c3.4-0.8,9.6,3.1,9.7-4.1c0.1-15.2,1.5-30.4-1.2-45.5C1453.9,202.6,1447.7,198.5,1438.8,198.2z"/>
	<path class="st0" d="M532.6,41.4c-13.6,0-24.9,7.9-29.8,21.6c-5.3,14.8-5.3,29.8,0.5,44.4c4.8,12,13.6,19.1,27.1,19.8
		c14.5,0.7,24.8-5.4,31-18.2c3.7-7.6,4.8-15.9,4.5-24.3c0.2-7.2-0.6-14.2-3.1-21C557.7,49.7,546.4,41.3,532.6,41.4z M545.8,106.6
		c-2.8,5.6-7.1,8.5-13.5,8.4c-6.1-0.1-10.4-3.1-12.6-8.4c-6-14.7-6.1-29.5,0.1-44.2c2.2-5.2,6.5-8.6,12.5-8.8
		c6.4-0.2,10.7,3.3,13.5,8.7c3.7,7,4.2,14.8,4.1,24.7C549.9,92.4,549.1,99.7,545.8,106.6z"/>
	<path class="st0" d="M817.7,333.8c-4.7-0.3-4.3,4.1-6.8,5.6c-16.2-12.4-31.3-7-36.2,12.7c-1.6,6.4-1.4,13-0.8,19.5
		c0.8,9.3,3.9,17.6,13,21.9c8.8,4,16.8,2,24.3-6.2c0.3,19.3-8.3,25.9-24.9,21c-1.4-0.4-2.9-0.8-4.2-1.5c-3.4-1.9-4.8-0.7-5.5,2.8
		c-1.2,5.7-0.3,9.2,6.5,10.7c29.8,6.5,42.9-3.7,43-34.2c0-14.9-0.7-29.8,0.3-44.6C826.9,333.4,823.1,334.1,817.7,333.8z
		 M808.3,379.1c-2.1,3.2-5.2,4.9-8.9,5.1c-4.2,0.2-6.1-2.9-7.8-6.2c-2.2-4.4-1.8-9.2-2.3-13.9c0.4-4.4,0-8.9,1.9-13.1
		c1.5-3.4,3.5-6.1,7.7-6.4c4-0.3,6.8,1.4,9,4.6C812.5,356,812.8,372.3,808.3,379.1z"/>
	<path class="st0" d="M654.7,119.4c1,18.8-8.4,25.2-27.3,19c-2-0.6-5.7-5.2-6.9,0.3c-0.8,3.7-3.2,8.7,2.9,11.5
		c24.9,11.1,46.2-2.1,46.3-28.9c0.1-16.7-0.2-33.3,0.2-50c0.1-5-1-6.6-6.3-6.9c-5.4-0.3-7.7,2.1-8.8,7.1c-10.7-13-31.3-9.4-35.8,8.9
		c-1.7,7-2.5,13.9-1.7,21.1C620,125.5,635.4,132.9,654.7,119.4z M634,83.8c0.9-4.7,3.8-8.2,9-8.5c4.7-0.2,7.7,2.7,9.5,6.8
		c1.9,4.4,3.1,9,2.6,12.8c-0.2,13-4.4,19.7-11.9,19.7c-6.7,0-10.1-5.2-10.6-17.7C632.6,92.6,633.2,88.1,634,83.8z"/>
	<path class="st0" d="M552.5,177c-7.4-0.4-9.8,1.9-9.6,9.4c0.5,16.6,0.1,33.3-0.1,49.9c-0.1,7.4-3.1,12.6-11.6,12.7
		c-9.2,0.1-13.3-4.2-13.5-15.8c-0.3-16.7-0.3-33.3,0-50c0.1-5.6-2.5-6.6-7.1-6.1c-3.8,0.4-9-1.6-8.8,5.4c0.4,18.7-1.4,37.5,0.8,56.1
		c1.8,15.6,13.2,24.4,28.5,23.4c17.4-1.1,27-10.1,27.6-26.5c0.3-8.6,0.1-17.2,0.1-25.9c0,0,0,0,0,0c0-8.6-0.2-17.3,0.1-25.9
		C559,179.1,557.7,177.3,552.5,177z"/>
	<path class="st0" d="M1220.4,119.2c-1.6,9.1,4.4,7.1,9.2,7.5c6.7,0.5,5-4.3,5.1-7.8c0.1-25-0.2-49.9,0.2-74.9
		c0.1-6.8-2.8-7.7-8.5-7.8c-5.6-0.1-8.1,1.2-7.7,7.4c0.5,8.7,0.1,17.4,0.1,27c-14.3-12.5-31.7-7-35.7,11c-1.8,8.5-2.4,16.9-0.4,25.6
		C1187.4,127.8,1203.5,133.5,1220.4,119.2z M1198.9,81.7c1.6-3.8,4.1-6.4,8.5-6.6c4.2-0.3,7,2.1,8.5,5.3c4.4,9.9,4.4,20.1,0,30
		c-1.6,3.6-4.9,6.1-9.3,5.5c-4.2-0.6-6.7-3.1-8.2-7.2c-1.6-4.3-1-8.8-1.5-12.3C1197.2,90.9,1197,86.2,1198.9,81.7z"/>
	<path class="st0" d="M713.4,260.9c3.5,0.5,4.5-1.5,4.5-4.8c-0.2-26.2-0.4-52.4-0.2-78.6c0-6.4-3.5-6.3-8-6.3
		c-4.4,0-8.2-0.4-7.8,6.2c0.6,8.8,0.1,17.7,0.1,26.9c-19.4-12-32.6-5.7-36.5,16.6c-1.2,6.5-1.1,12.9,0.2,19.5
		c4.4,21.6,19.3,27.5,37.7,13.9C702,264.5,709.2,260.2,713.4,260.9z M699.9,243.4c-1.6,4.4-4.9,7.4-10.2,6.9
		c-5.4-0.5-7.6-4.3-8.6-8.8c-0.8-3.7-0.7-7.6-0.9-9.4c0.1-6.7-0.1-11.4,1.9-16c1.7-3.9,4.3-6.5,8.6-6.6c4.3-0.1,7.4,2.4,8.9,6.2
		C703.3,224.9,703.2,234.2,699.9,243.4z"/>
	<path class="st0" d="M1274.4,177.3c-4.3,0.8-10.2-3-12.4,3.6c-9.1,26.4-18,52.8-27,79.3c14.9,1.7,15.5,1.5,17.7-5.2
		c4.5-14,4.5-14,18.9-14c1.8,0,3.6,0.3,5.4,0c6.3-1.1,8.8,1.7,10.4,7.7c3.7,13.9,4.1,13.8,19.5,11.2c-8.4-26.1-16.9-52-25.1-78.1
		C1280.5,177.8,1278,176.6,1274.4,177.3z M1277.1,228.8c-5.3-0.2-10.6,0-17,0c3.8-12.6,7.1-23.7,10.5-34.9c0.5,0,1.1,0,1.6,0
		c2.7,10.1,5.2,20.2,8.2,30.1C1281.4,227.5,1281,228.9,1277.1,228.8z"/>
	<path class="st0" d="M742.9,316.8c-1.3-4.2-3.7-5.8-7.8-5.1c-4.3,0.8-9.9-2.5-12.2,4.2c-8.8,26.1-17.6,52.2-26.4,78.4
		c15,2.5,14.9,2.4,19.1-11.1c0.9-2.8,0.3-7.4,4.8-7.6c8-0.3,16.4-1.4,24,0.5c5.2,1.3,3.6,9.3,5.9,13.9c0.4,0.8,0.3,1.8,0.8,2.5
		c3.8,5.3,9.3,2.4,14,2.4c4.4,0,1.7-3.7,1.2-5.3C758.6,365.3,750.6,341.1,742.9,316.8z M738.1,363.1c-14.9,2.6-17,0.4-12.7-13.8
		c2.1-7,4.1-13.9,6.2-20.9c0.5-0.1,1.1-0.1,1.6-0.2c2.8,10.4,5.6,20.8,8.4,31.2C742.2,362.1,740.6,362.7,738.1,363.1z"/>
	<path class="st0" d="M922,241.8c1.5-8.5,1.7-17.1-0.7-25.6c-5.2-18.7-20.2-23.6-35.8-11c-0.7-7.8-6.4-6.1-11.2-6.1
		c-4,0-3.8,2.8-3.8,5.6c0,25.3,0.2,50.6-0.1,75.9c-0.1,6.1,3.5,5.7,7.5,5.7c4,0,7.8,0.6,7.6-5.6c-0.4-8.3-0.1-16.7-0.1-26.1
		C902.4,268.6,918.7,260.3,922,241.8z M905.1,245.1c-3.9,7.2-12.6,7.5-16.3,0.2c-5-9.8-4.5-20.1-0.3-30.1c1.6-3.8,4.8-6.1,9.2-5.8
		c4.9,0.3,7.5,3.5,8.6,7.8c1,4.3,1.3,8.7,1.8,12.2C907.6,235.4,907.6,240.5,905.1,245.1z"/>
	<path class="st0" d="M742.1,119.9c-0.2,6.7,3.4,6.8,8.4,6.9c5.1,0.1,7.6-0.9,7.3-6.8c-0.4-10.7-0.3-21.4,0.2-32.1
		c0.3-5.9,2.5-11.2,10-11.2c8,0,7.9,6.1,8,11.3c0.3,10.1,0.4,20.2,0.1,30.3c-0.2,5.7,0.9,8.7,7.7,8.6c6.2-0.1,8.3-1.7,8-8
		c-0.5-11.3,0-22.6-0.2-33.9c-0.1-8-1.6-16.1-9.8-19.5c-8.2-3.4-16.4-2.6-23.8,6.1c-1.6-8.9-7.7-7.6-12.7-6.8c-5.9,1-3,6.3-3,9.6
		C742,89.5,742.5,104.7,742.1,119.9z"/>
	<path class="st0" d="M1841.5,121.8c-0.2-13.4,0.5-26.8-0.6-40.1c-1.4-17.1-16.1-23.5-30.2-13.5c-2.8,2-3.5,3.1-5.2-1.1
		c-2.1-5.2-7.3-2.2-11-2.2c-4.2-0.1-2.6,3.9-2.6,6.2c-0.1,7.7,0,15.5,0,23.2c0,7.7,0.2,15.5,0,23.2c-0.2,5.5-0.1,9.4,7.7,9.5
		c7.4,0,8.2-3,8-9c-0.4-10.1-0.4-20.2,0.2-30.3c0.3-5.9,2.7-11.3,10.3-11c7.8,0.4,7.6,6.2,7.6,11.6c0.1,11,0.2,22,0,33
		c-0.2,6.4,4.1,5.5,7.8,5.3C1836.7,126.4,1841.6,128.5,1841.5,121.8z"/>
	<path class="st0" d="M1105.7,119.6c-0.4-10.7-0.3-21.4,0.2-32.1c0.3-6.2,2.9-11.1,10.4-10.8c7.2,0.3,7.5,5.8,7.6,10.9
		c0.2,11.3,0.3,22.6,0.1,33.9c-0.1,5.7,3.5,5.4,7.1,5.1c3.3-0.3,8.7,2.3,8.5-4.4c-0.3-14.6,1.4-29.2-1.1-43.6
		c-1.9-10.6-8.2-15.1-18.9-14.7c-5.8,0.2-10,3.3-14.5,7.6c-0.8-9.2-7-7-11.8-6.7c-6,0.4-3.2,5.6-3.2,8.4c-0.3,15.5,0.2,31-0.3,46.4
		c-0.2,6.5,2.7,7.1,8,7.2C1103.1,126.8,1106,125.9,1105.7,119.6z"/>
	<path class="st0" d="M1877.5,199.7c-8.6-3.5-16.4-1.6-23.3,6.1c-1.5-8-7.2-7.6-12.3-6.5c-6.2,1.3-3.2,6.8-3.2,10.4
		c-0.4,14.6,0.2,29.1-0.3,43.7c-0.2,6.6,2.3,7.8,8.3,7.8c5.8,0,7.8-1.5,7.5-7.4c-0.4-10.4-0.4-20.8,0.1-31.2
		c0.3-5.9,2.4-11.4,9.8-11.5c7.7-0.1,8.1,5.8,8.3,11.3c0.3,11,0.5,22,0.1,33c-0.2,7,4.3,5.6,8.3,5.7c4,0.1,7.7,0.7,7.4-5.6
		c-0.4-11.9,0.1-23.8-0.2-35.7C1887.8,211.6,1886.4,203.3,1877.5,199.7z"/>
	<path class="st0" d="M622.7,256.9c0-14.8,1.7-29.8-1.2-44.5c-2-10.2-8.2-14.4-18.5-14.1c-6.2,0.2-10.4,3.6-15.5,8.7
		c1.1-9.7-4.9-7.8-9.7-8c-6.9-0.2-4.5,4.9-4.6,8.2c-0.2,15.8,0.2,31.5-0.2,47.3c-0.2,6.2,2.7,6.8,7.6,6.5c4.6-0.2,8.8,0.6,8.4-6.6
		c-0.6-10.1-0.3-20.2-0.1-30.3c0.1-6.7,1.8-13.1,10.1-13c8.1,0.1,7.9,6.8,8.1,12.4c0.2,10.7,0.3,21.4,0.1,32.1
		c-0.1,4.5,1.9,6.1,5.9,5.3C616.5,260.1,622.7,263.9,622.7,256.9z"/>
	<path class="st0" d="M1012.6,340.2c0.2-6.5-3.2-6.4-7.7-6.3c-4.4,0-8.3-0.4-8,6.2c0.4,10.4,0,20.8-0.1,31.2
		c-0.1,6.7-2.5,12.4-9.8,12.4c-7.5-0.1-8.3-6.6-8.4-12.4c-0.2-10.7-0.3-21.4-0.1-32.1c0.2-5.7-3.4-5.4-7-5.1
		c-3.4,0.3-8.6-2.1-8.5,4.5c0.2,14.5-1.3,29.2,1.2,43.6c1.8,10.2,10.3,15.9,20.3,14.3c5.2-0.8,9-4.1,13.3-8.6
		c-0.2,9.5,5.9,7.3,10.5,7.4c6.3,0.1,4.1-4.7,4.1-7.7C1012.6,371.7,1012.2,355.9,1012.6,340.2z"/>
	<path class="st0" d="M1036.7,123.4c10,5.8,21,6,30.6-0.4c13.2-8.7,12.6-22.9,11-36.3c-1.3-10.7-7.2-18.8-18.2-22.1
		c-0.6-0.2-1.2-0.1-1.8-0.2c-20.8-3.8-33.3,7.3-33.9,30.2C1024.6,105.8,1025.6,117,1036.7,123.4z M1042.7,81
		c1.8-3.8,4.5-6.1,8.9-6.1c4.5-0.1,7.4,2.1,9,6c3.6,9.2,3.4,18.5,0.5,27.8c-1.4,4.6-4.4,7.7-9.8,7.5c-5.3-0.2-8.2-3.6-9.4-8.1
		c-1.2-4.2-1.3-8.7-1.5-10.9C1040.7,90.2,1040.5,85.4,1042.7,81z"/>
	<path class="st0" d="M1813.5,201.1c-14.2-7.5-32-1.4-37.8,12.6c-7.8,18.7-0.5,41.9,14.7,46.8c0.6,0.2,1.2,0.3,1.7,0.4
		c21.5,5.2,35.3-6.9,35.3-31C1827.6,218,1825.1,207.2,1813.5,201.1z M1808.9,245.2c-1.4,3.6-4.5,5.3-8.5,5.3
		c-4.1,0.1-6.8-1.9-8.6-5.2c-2.6-4.9-2.8-10.2-2.6-14.8c-0.1-5.8-0.2-10.9,2.3-15.5c2-3.7,4.9-6,9.2-5.8c3.9,0.2,7,2.2,8.3,5.8
		C1812.8,225,1812.8,235.2,1808.9,245.2z"/>
	<path class="st0" d="M545.7,334.1c-6.1-2.1-11.8,0.4-13.5,6.8c-3.1,11.7-6,23.4-8.9,35.1c-0.6,0-1.2,0-1.8,0
		c-3.2-12-6.7-24-9.6-36.1c-2.2-9.3-9.5-6.4-14.3-5.5c-5.9,1.2-1,5.8-0.2,8.4c5,16.2,10.6,32.2,15.7,48.3c3,9.4-0.7,17.8-8,18.1
		c-5.1,0.2-5.7,2.2-5.9,6.4c-0.2,5.1,2.8,5.8,6.7,6.2c9.1,0.8,16.3-2.5,19.1-11.3c7.8-23.7,15-47.6,22.4-71.4
		C548,337.3,548.8,335.1,545.7,334.1z"/>
	<path class="st0" d="M1766.4,66.3c-14.6-7.2-32.2-0.9-37.5,13.2c-7.5,19.7-0.3,41.6,15.3,46.4c1.4,0.4,2.9,0.8,4.3,1
		c20.7,2.6,32.2-8.4,32.3-31.2C1780.8,83.5,1778.6,72.3,1766.4,66.3z M1763.5,107.9c-1.4,4.8-4.4,8.5-10.2,8.2
		c-5.3-0.2-8.1-3.6-9.3-8.1c-1.1-4-1.4-8.1-2-11.5c0.8-5.1,0.2-9.6,2-13.9c1.8-4.5,4.3-7.7,9.7-7.8c5.9-0.1,8.8,3.7,10,8.5
		C1765.6,91.4,1765.7,99.8,1763.5,107.9z"/>
	<path class="st0" d="M888.6,123.9c7.4,4.7,15.2,4.7,22.7,0c2.5-1.5,4.7-6.2,6.9,1.1c1.1,3.7,7,1.8,10.6,1.5c4.2-0.3,2.3-4,2.4-6.4
		c0.1-5.3,0-10.7,0-16.1c-0.1,0-0.2,0-0.3,0c0-6.2,0.5-12.5-0.1-18.7c-2-19.4-24.1-29.1-40.9-18.3c-4.6,3-2.9,7.2-1.9,10.4
		c1.5,4.7,4.3,0.3,6.2-0.4c4.6-1.7,9.2-2.8,14-1.8c5,1,8,4.3,7.7,9.5c-0.3,5.4-4.9,2.6-7.7,3.3c-4.6,1.1-9.4,1.5-14,2.8
		c-6.8,1.9-11.5,6.3-12.7,13.5C880.4,111.9,881.3,119.2,888.6,123.9z M910.6,96.4c5.1-0.1,6.3,2.1,5.6,6.1
		c-0.4,9.5-4.5,14.1-11.9,13.9c-6.1-0.2-8.5-3.6-8.5-9.2C895.7,100.7,901.8,96.6,910.6,96.4z"/>
	<path class="st0" d="M1147.5,340.5c0.1-6-2.5-6.7-7.5-6.7c-4.7,0.1-7.9,0.3-7.6,6.5c0.4,10.7,0.4,21.4-0.3,32.1
		c-0.4,5.8-2.8,11.7-10.2,11.2c-7.1-0.5-7.7-6.3-7.8-12c-0.1-10.7-0.3-21.4,0.1-32.1c0.2-6.1-3.5-6-7.5-5.6
		c-3.4,0.3-8.2-1.9-8.1,4.9c0.2,13.4-0.4,26.8,0.3,40.1c0.6,11.9,9.5,18.9,20.3,17.4c5.2-0.7,9.2-3.7,13.5-8.1
		c0.3,9.2,6.4,7,11.1,6.8c6.2-0.3,3.4-5.3,3.5-8.2C1147.5,371.5,1147.1,356,1147.5,340.5z"/>
	<path class="st0" d="M1633.2,123.1c-1-15.1,1.6-30.3-1.7-45.3c-1.7-7.9-6.9-12.1-14.7-13.5c-5.3-1-10.6-0.8-15.9,0
		c-11.6,1.9-12.5,3.2-9.9,15.3c6.1-3.3,12.4-5.9,19.5-4.5c5.3,1,7.7,5.1,7.6,9.7c-0.1,5.2-4.9,2.5-7.6,3c-5.6,0.9-11.3,1.3-16.5,3.6
		c-8.6,3.8-12.7,12.7-10.6,22.2c1.8,8,8.8,13.1,17.7,13.6c6.7,0.3,12-2.5,17.8-8c-0.9,9.6,5.1,7.2,9.5,7.5
		C1630.9,126.8,1633.5,126.6,1633.2,123.1z M1607.3,116.4c-6,0.1-9.7-2.4-9.8-8.7c-0.1-6.9,5.8-11.2,15.7-11.2
		c2.9-0.2,5.8-0.2,5.6,4.9C1618.3,110.4,1614.1,116.3,1607.3,116.4z"/>
	<path class="st0" d="M1067.7,254.4c-1.1,10.2,5.9,5.8,10.2,6.4c2.8,0.4,4.3-0.9,4.1-4.1c-0.6-14.3,0.6-28.6-1.4-42.8
		c-1.2-8.3-6.1-13.5-14.3-15c-6.2-1.2-12.5-1.2-18.7,0.2c-10.6,2.5-11.2,3.7-7.9,14.7c6-2.4,11.8-6,18.7-4.6c4.9,1,8.1,4,8.1,9.2
		c0,6-5.1,3.5-8.1,4.2c-4.3,1-8.9,0.6-13.2,2.1c-11.1,4-16.1,13.7-12.7,25c2.6,8.6,12.3,13.2,22.6,11.4
		C1059.8,260.5,1062.9,257.2,1067.7,254.4z M1046.3,241.9c0.1-6.6,6.3-11,15.4-11.1c3.3,0,5.6,0.3,5.4,4.8
		c-0.3,9.7-4.6,15.9-11.8,16C1049.9,251.6,1046.2,247.6,1046.3,241.9z"/>
	<path class="st0" d="M1401.6,120c-0.1,8.2,5.5,6.5,10.1,6.7c2.7,0.1,4.7-0.6,4.5-3.9c-1.1-14.8,1.2-29.7-1.5-44.5
		c-1.5-8-6.6-12.4-14.3-13.9c-5.3-1-10.6-1-15.9-0.2c-11.6,1.9-12.7,3.2-10.5,15.2c3.6-1.4,7.1-3.4,10.8-4.1
		c5.9-1.1,12.2-1.8,15.5,5.1c2,4.2,2.5,7.5-4,7.4c-6-0.1-11.9,0.9-17.5,3c-9.6,3.5-14.3,12-12.3,21.9c1.9,9.4,9.3,14.6,19.6,14.5
		C1392.2,127.1,1396.6,123.8,1401.6,120z M1380.5,107.6c-0.4-6.5,6.6-11.3,15.9-11.1c3.9-0.7,5.4,1.2,5.3,5.5
		c-0.2,9.2-4.6,14.6-12.1,14.5C1383.7,116.3,1380.8,113.1,1380.5,107.6z"/>
	<path class="st0" d="M687.2,123.8c7.6,5.1,15.9,5.1,23.3-0.7c3.5-2.8,4.2-2,6,1.5c2,3.9,6.4,1.5,9.7,1.8c2.7,0.2,3.3-1.9,3.2-4.2
		c-0.2-13.7,0-27.4-0.7-41c-0.5-10.3-6.1-15.4-16.2-17.1c-5.1-0.8-10.1-0.6-15.1,0.2c-11.2,1.7-12,2.8-10.7,15.3
		c3.2-1.3,5.6-2.3,8-3.3c3.7-1.7,7.6-1.8,11.4-1.3c5.2,0.6,8.1,3.9,8.4,8.9c0.3,6.4-5,3.1-7.8,3.9c-3.2,0.8-6.5,1-9.7,1.6
		c-8.5,1.7-14.9,5.5-16.9,14.8C678.4,112.3,680.4,119.2,687.2,123.8z M709.6,96.4c5.6-0.1,5.6,2.9,5.2,5.4
		c-0.5,10.3-4.6,14.8-11.9,14.6c-6.5-0.2-8.8-4.1-8.6-9.9C694.6,100.3,701.1,96.6,709.6,96.4z"/>
	<path class="st0" d="M1558.6,198.3c-6,0.1-9.9,3.6-14.5,7.2c-1-7.8-6.5-6.7-11.4-6.3c-6,0.6-3.4,5.4-3.5,8.4
		c-0.2,15.8,0.1,31.5-0.2,47.3c-0.1,5.6,2.3,6.5,7,6.2c4.1-0.3,8.5,1,8.1-5.9c-0.5-9.5-0.2-19-0.1-28.5c0.2-10.5,4.1-16.3,10.7-15.5
		c9.6,1,7.9,9.2,8.3,15.2c0.7,9.8,0.4,19.6,0.1,29.4c-0.1,4.6,2.1,6,5.9,5.2c3.2-0.6,8.8,2.8,8.9-3.9c0.1-14.6,0.5-29.2-0.6-43.7
		C1576.4,202.8,1569.1,198.2,1558.6,198.3z"/>
	<path class="st0" d="M1678.6,213.7c-1.6-9.3-7.5-14.1-16.4-15c-5-0.6-10.2-0.5-15.2,0.3c-11.2,1.8-11.8,3-9.5,15
		c3.3-1.3,6.5-2.6,9.8-3.8c3.5-1.3,7-1.5,10.6-0.4c4.6,1.4,7.1,5,7,9.4c-0.1,5.3-5,2.8-7.7,3.4c-5.2,1.2-10.7,1-15.7,3.1
		c-7.3,3.1-11.3,8.5-11.7,16.4c-0.4,7.8,2.4,14.1,9.6,17.6c9.2,4.5,17.4,2.3,25.9-5.9c-0.3,9,5.4,7,9.9,7.2c2.5,0.1,5,0,4.7-3.6
		C1678.9,242.8,1681.1,228.2,1678.6,213.7z M1653.2,251.4c-5.7-0.5-9.3-3.8-9-10c0.3-6.4,7.2-11,16.3-10.7c4.5-0.6,5.1,2.1,4.9,5.9
		C1664.9,245.6,1659.8,252.1,1653.2,251.4z"/>
	<path class="st0" d="M664.4,359.3c-0.1-22.1-11-30.3-32.8-25.8c-8.8,1.8-12.9,5.4-9.4,14.8c3.8-1.3,7.6-2.6,11.5-3.8
		c6.4-1.9,12-1,15.2,5.5c2.1,4.2,1.9,7.4-4.4,7.3c-4.4,0-8.9,0.6-13.3,1.4c-9.1,1.7-15.3,6.7-16.6,16.2c-1,7.3,1.1,13.8,7.4,18
		c7.7,5.1,15.7,4.9,23.4-0.4c2-1.4,3.3-3.9,5.6,0.6c2.2,4.4,7.6,2.3,11.4,1.6c3.6-0.7,1.8-4.5,1.8-6.9
		C664.5,378.3,664.4,368.8,664.4,359.3z M650,370.4c0.1,9-4.8,15.6-11.5,15.5c-6.1-0.1-9.3-3.7-9.6-9.4c-0.4-6.5,7-11.2,16.4-11.3
		C649.7,365.2,650.4,367.3,650,370.4z"/>
	<path class="st0" d="M777.5,257.3c-1.1-14.5,0.9-29.2-1.2-43.7c-1.3-9-7.1-13.7-15.5-14.9c-5.2-0.7-10.8-0.6-16,0.3
		c-11.3,1.9-11.8,3.1-9.2,15.3c4-2.2,8-4.3,12.4-5c5-0.8,9.9-0.4,12.8,4.2c2.5,4,4.7,8.3-3.6,8.8c-6.5,0.4-13.1,0.7-19.2,3.7
		c-8.3,4.1-12.3,13.3-9.8,22.5c2.4,8.6,10.5,14,19.8,13.2c5.6-0.5,10.2-2.8,14-7.3c2.9,6.2,5.4,7.3,11.9,6.4
		C776.2,260.6,777.7,260,777.5,257.3z M762.8,236.1c0,9.1-5.1,15.8-11.8,15.3c-5.7-0.4-9.4-3.6-9.4-9.7c0-6.3,7.1-10.9,15.8-11
		C761.9,230.6,763.4,232.5,762.8,236.1z"/>
	<path class="st0" d="M1229,332.8c-5-0.4-10,0.1-15.1,0.9c-9,1.5-11.3,6.1-8.2,14.4c4.8-1.6,9.5-3.6,14.4-4.5c6.7-1.3,13,3.1,13,9
		c0.1,8.2-6.5,3.9-10,4.5c-5,0.9-10.1,1.4-14.7,3.6c-5.8,2.8-9.4,7.1-9.9,13.8c-0.5,7.5,0.3,14.4,7.5,18.7c7.3,4.4,14.8,4.3,22-0.2
		c2.6-1.6,4.2-4.7,7,0.5c2,3.6,7.1,1.4,10.9,1.4c2.3,0,2.3-1.9,2.2-3.9c-0.3-13.1-0.2-26.2-0.7-39.3
		C1246.9,340.2,1240.6,333.8,1229,332.8z M1233.4,370.9c-0.1,9.3-5,15.6-11.9,15.1c-5.6-0.4-8.6-3.5-8.6-9.3c0-7,5.5-10.9,15.3-11.4
		C1232.8,365,1233.9,367.2,1233.4,370.9z"/>
	<path class="st0" d="M1203.9,257.3c-2.1-14.2,0.1-28.5-1.3-42.7c-0.8-8.7-6.1-14.2-14.6-15.7c-6.1-1.1-12.4-0.8-18.7,0.3
		c-8.7,1.5-11.7,5.9-8,14.9c6.3-2.6,11.9-5.9,18.4-4.8c5.2,0.9,8.9,4,8.7,9.6c-0.2,5.7-5.4,3.2-8.4,3.9c-3.5,0.8-7.2,0.6-10.6,1.4
		c-7.6,1.9-13.9,5.7-15.2,14.3c-1.2,7.7-0.6,15.2,6.7,19.8c7.7,4.8,15.8,4.8,23.5-0.4c2.6-1.7,4.3-5.2,6.2,1.2
		c1.1,3.8,6.9,1.3,10.5,1.6C1203.4,261,1204.2,259.4,1203.9,257.3z M1177,251.4c-5.9-0.4-9.2-3.9-9-9.9c0.2-6.3,7.5-10.9,16.1-10.8
		c6.2,0.1,4.1,4.4,4.5,7.3C1188.1,246.5,1183.6,251.9,1177,251.4z"/>
	<path class="st0" d="M968.1,259.1c1.5,3.9,6.9,1.4,10.5,1.7c2.2,0.2,3.2-1.3,2.8-3.4c-2.1-14.2,0.1-28.5-1.3-42.7
		c-0.8-8.7-6-14.2-14.6-15.8c-6.1-1.1-12.4-0.8-18.7,0.2c-8.7,1.5-11.7,5.8-8.1,15.1c2.4-1.2,4.2-2.2,6.1-2.9
		c4.8-1.7,9.7-3.5,14.8-1.4c3.8,1.6,6.5,4.4,6.3,8.9c-0.2,5.2-4.7,3.4-7.5,3.9c-2.9,0.5-6,0.3-8.9,0.9c-8.2,1.7-15.8,4.7-17.7,14
		c-1.6,7.9-1.2,15.9,6.5,20.7c8,5,16.5,5,24.2-0.9C965.8,254.9,966.3,254.7,968.1,259.1z M953.9,251.4c-5.5-0.6-8.5-4.1-8.5-9.6
		c0-6.4,6.9-10.8,15.8-11c6.1-0.1,4.6,4,4.8,7.3C965.7,246.7,960.8,252.2,953.9,251.4z"/>
	<path class="st0" d="M1899.3,76.7c-6.2-13.7-24.9-17.6-36.3-7.7c-10.4,9.1-13.9,28.9-7.4,43c5.4,11.8,16.3,16.8,32.3,14.8
		c11.3-1.5,12.2-2.6,10.4-14.9c-5.2,2.5-10.5,4.5-16.2,4.2c-6-0.4-11.2-2.4-13.4-8.6c-1.7-4.6-1.4-8.2,5.2-7.8
		c6,0.4,11.9,0.1,17.9,0.1c11.8,0,11.9,0,10.5-12C1901.9,84.1,1900.9,80.2,1899.3,76.7z M1877.2,90.2c-2.8-2.6-9.5,3-9.3-4.4
		c0.2-5.8,2.8-11.3,10-11.2c7.3,0.1,10,5.6,9.7,11.4C1887.3,93.5,1880.5,87.5,1877.2,90.2z"/>
	<path class="st0" d="M1283.6,126.5c9.7-2,10.4-3.2,7.7-14.2c-5.5,2.3-11.1,4.5-17.2,3.7c-6.1-0.8-10.5-3.5-12.6-9.7
		c-1.5-4.5-0.9-6.7,4.5-6.5c6.6,0.3,13.1,0.1,19.7,0.1c11.1,0,11.6-0.4,10.1-11.6c-1.3-9.7-4.1-19.1-14.6-22.8
		c-8.8-3.1-17.7-2.6-25.3,3.9c-10.4,9-13.5,30.3-6.4,44C1255.3,124.7,1268.1,129.7,1283.6,126.5z M1271.8,74.5c7,0.4,9.4,5.7,9.2,11
		c-0.3,8.1-7.5,2.2-11.2,4.7c-2.6-2.4-8.4,3.1-8.8-3.9C1260.7,79.8,1266.1,74.2,1271.8,74.5z"/>
	<path class="st0" d="M1477.8,203.9c-10.9,9.7-13.8,32.1-5.9,45.4c6.7,11.4,21.7,15.3,37.4,10.8c6.4-1.8,6.1-5.9,5.1-10.2
		c-1.4-6.1-5.3-1.3-7.6-0.7c-10.6,2.9-18.7,1.1-22.4-5.5c-3.8-6.8-2.3-9.5,5.3-9.6c3.6,0,7.2,0,11.6,0c4.9-1.1,13.4,3.1,15.9-1.8
		c3.1-6.3,0.1-14.6-3.1-21.4C1507.8,197.2,1489.2,193.7,1477.8,203.9z M1492,224.9c-3.1-1.9-9.5,2.7-9.2-4.6
		c0.3-5.7,2.8-11.1,10-11.4c6.9-0.3,9.3,4.7,9.6,10.3C1502.7,227.6,1495.6,223,1492,224.9z"/>
	<path class="st0" d="M867.8,126.7c4.7,0.1,7-0.9,7-6.3c0-5.9-3.2-5.9-7.4-5.8c-5.6,0.2-11.3,0-18.8,0c8.4-12.3,15.6-23.2,23.2-33.8
		c3.3-4.7,3.3-9.9,1.6-14.4c-1.4-3.9-6.4-1.7-9.7-1.8c-8.3-0.3-16.7,0.1-25.1-0.2c-4.4-0.1-5.6,1.6-5.6,5.7c0,4.2,0.7,6.8,5.8,6.4
		c5.7-0.4,11.5-0.1,17.5-0.1c-0.3,2-0.2,2.7-0.5,3.1c-6.6,9.5-13.1,19.1-19.9,28.5c-2.4,3.3-3.6,6.6-3.9,10.6
		c-0.4,5.4,0.9,8.3,7.3,8C848.7,126.3,858.2,126.5,867.8,126.7z"/>
	<path class="st0" d="M1619.1,210.6c3.9,0.6,5.2-1.6,5.1-5.3c-0.1-3.1,0-6.7-4.3-6.1c-9.2,1.2-8.1-4.8-8.2-10.4c0-2,1.5-5-1.7-6.1
		c-4.3-1.5-13.5,4.5-13.6,9.2c-0.1,4.3-0.3,7.7-6.1,7.3c-4.1-0.3-3.7,3-3.6,5.6c0.1,2.5-0.8,6.1,3.4,5.8c6.5-0.5,6.3,3.5,6.2,7.9
		c-0.1,4.2,0,8.3,0,12.5c0,0,0,0,0.1,0c0,5-0.4,10.1,0.1,15.1c1.1,12.7,11.5,18.9,23.7,15.1c4.6-1.5,3.7-4.5,4-7.7
		c0.4-4.6-2.5-3.4-5.1-3.3c-5.4,0.2-7.2-3.2-7.2-8c0-7.7,0.2-15.5-0.1-23.2C1611.5,213.5,1612,209.5,1619.1,210.6z"/>
	<path class="st0" d="M1083.3,384.3c-5.2,0-6.1-4-6.1-8.1c-0.1-7.7,0.3-15.5-0.2-23.2c-0.4-5.9,1-9.2,7.6-8.1
		c3.9,0.7,5.3-1.3,5.1-5.1c-0.2-3.1,0.1-6.5-4.4-5.8c-8.1,1.3-8.6-3.2-8.4-9.3c0.1-2.5,2.3-6.4-1.9-7.5c-4.9-1.4-13.1,5.1-13.4,10.5
		c-0.2,3.5-0.2,6.8-5.1,6.3c-4.4-0.4-4.6,2.3-4.7,5.6c-0.1,3.5,0.6,5.9,4.8,5.4c5.1-0.5,4.8,2.9,4.9,6.4c0.1,10.1,0,20.3,0.7,30.3
		c0.7,10.1,6.4,14.7,17.2,14.9c0.5,0,1.7,0.1,2.9-0.2c3.6-0.9,7.5-0.8,7.5-6.7C1089.8,384.2,1087.2,384.3,1083.3,384.3z"/>
	<path class="st0" d="M820.8,230.3c-2-1.3-4.3-2.3-5.9-4c-4.1-4-14.1-4.8-11-12.7c2.6-6.6,10.5-3.3,16.2-2.4c3.1,0.5,4,0.3,4.4-3
		c1.2-7.9-1.1-9.8-13.1-9.9c-11.7-0.2-20.5,5-22.7,13.4c-2.3,8.5,1.6,14.6,12.8,21.9c4.8,3.1,14.3,4.6,11.2,12.4
		c-3.1,7.6-11.3,3.4-17.5,2.5c-2.2-0.3-6-4.7-6.5,1.4c-0.3,3.7-2.5,8.7,3.7,10.2c8.2,2,16.5,3,24.6-0.3c6.1-2.5,10.5-6.6,11.4-13.6
		C829,239.4,826.6,234.1,820.8,230.3z"/>
	<path class="st0" d="M1457,94.1c-3.8-2.4-7.5-4.8-11.2-7.3c-2.5-1.7-5.1-3.7-3.9-7.2c1.1-3.2,4-4.3,7.2-4.3c2.4,0,4.7,0.7,7.1,0.8
		c2.5,0,6.5,4.3,7-2.3c0.4-4.4,0.9-8.5-5.2-9.2c-6.8-0.8-13.6-1.7-20.2,1.3c-13.1,6-15,20.5-3.6,29.3c3.3,2.5,7.1,4.3,10.5,6.7
		c3.6,2.4,9.2,4.5,6.8,9.9c-2.2,5.1-7.7,4.6-12.6,3.7c-1.5-0.2-2.9-0.9-4.3-1.1c-2.6-0.2-6.4-4.6-7.4,1.4c-0.7,4.1-2.1,9.3,4.8,10.2
		c3.5,0.5,7.1,1,10.6,1.5c0-0.1,0-0.3,0-0.4c1.8,0,3.6,0.1,5.4,0c9.8-0.8,16.6-6,18.6-13.9C1469,103.9,1464,98.5,1457,94.1z"/>
	<path class="st0" d="M1355.3,120.4c-0.5-12.8-0.1-25.6-0.1-38.4c0-12.8-0.4-25.6,0.2-38.4c0.2-6.3-2.3-7.5-7.8-7.3
		c-4.9,0.2-8.5,0.2-8.4,7c0.3,25.6,0.4,51.2,0,76.8c-0.1,7,3.7,6.6,8.5,6.7C1352.2,126.8,1355.6,126.7,1355.3,120.4z"/>
	<path class="st0" d="M948,383.9c-7.2,1.5-13.7,0.4-18.1-6.4c-4.7-7.4-4.7-20.3,0.2-27.2c4.5-6.5,11.2-6.7,17.7-4.9
		c4.7,1.3,5.2,0.4,5.8-4c0.9-6.4-2.9-7.9-7.5-8.4c-11.2-1.3-21.9,0.2-28.8,10.1c-8.7,12.3-8.7,25.7-2.7,39
		c4.9,10.7,14.7,14.1,27.4,14.4c1.7-0.3,4.9-1.1,8.1-1.5c6-0.8,4.6-5,4.3-8.8C953.9,381.2,950.8,383.4,948,383.9z"/>
	<path class="st0" d="M1728.6,249.2c-12.5,2.6-20.3-3.2-21.6-15.7c-2-18.8,6.3-25.7,25.7-21.7c2.4-12,1.7-13.1-10.1-13.4
		c-3.3-0.1-6.6-0.2-9.8,0.5c-17.3,3.7-26.4,23.6-20,44c5.7,18.1,22.9,21.5,38.6,17.7c5.2-1.3,3.5-5.3,3-8.7
		C1733.9,247.7,1731.6,248.6,1728.6,249.2z"/>
	<path class="st0" d="M1034.2,305.5c-4.8-0.1-7.6,0.3-7.5,6.5c0.4,25.5,0.3,51,0,76.6c-0.1,5.8,2,7.1,7.2,6.8
		c4.6-0.3,8.8,0.5,8.5-6.6c-0.5-12.7-0.1-25.5-0.1-38.3c0-12.8-0.4-25.5,0.2-38.3C1042.8,305.2,1038.9,305.7,1034.2,305.5z"/>
	<path class="st0" d="M596.1,305.6c-4,0.1-8.4-1.3-8.3,5.7c0.3,26.1,0.2,52.2,0,78.3c-0.1,7,4.5,5.4,8.5,5.6
		c4.2,0.2,7.4,0.2,7.3-5.8c-0.4-12.7-0.1-25.5-0.1-38.3c0-13.4-0.3-26.7,0.1-40.1C603.7,304.9,600,305.5,596.1,305.6z"/>
	<path class="st0" d="M1127.2,178.6c0.3,25.2,0.4,50.4,0,75.7c-0.1,6.8,3.2,6.6,8.1,6.9c5.6,0.3,8-1.2,7.8-7.3
		c-0.4-12.4-0.1-24.9-0.1-37.4c0-12.5-0.3-24.9,0.1-37.4c0.2-6.5-2.2-7.9-8.2-7.9C1129,171.1,1127.1,172.6,1127.2,178.6z"/>
	<path class="st0" d="M1683,114.4c-7.6,2.6-14.2,1.3-19.1-5.2c-5-6.5-5.3-20.4-0.7-27.2c4.4-6.5,10.6-8.2,18-5.7
		c2.7,0.9,5.5,1.7,5.7-2.6c0.1-3.4,1.5-7.1-3.3-8.9c-8.8-3.3-24.3,0-31,6.9c-8.7,9-11,27.2-5.1,40.3c5,11.1,14.4,15.9,29.6,15.2
		c11.7-0.5,12.6-1.9,9.3-13.6C1685.3,113.8,1684.1,114,1683,114.4z"/>
	<path class="st0" d="M973.8,127.1c12.2-0.5,13.1-1.6,11.1-13.8c-1.4,0.4-2.9,0.6-4.3,1.1c-7.3,2.5-13.6,1.1-18.4-5
		c-5-6.4-5.4-21.2-0.7-28c4.3-6.2,10.5-7.4,17.4-5.3c3.5,1.1,5.8,1,6.3-3.3c0.5-4.1,0.5-7.7-5-8.4c-11.7-1.4-23.3-1.4-31,8.9
		c-9.1,12.3-9.2,26.1-3,39.7C951.5,124.6,961.9,127.6,973.8,127.1z"/>
	<path class="st0" d="M1322.8,171.2c-5-0.1-7.7,0.7-7.5,6.7c0.4,12.5,0.1,25,0.1,37.5c0,13.1,0.3,26.2-0.1,39.3
		c-0.2,6.3,3,6.4,7.6,6.4c4.9,0.1,7.6-0.5,7.5-6.6c-0.3-25.6-0.3-51.2,0-76.7C1330.5,171.6,1327.6,171.3,1322.8,171.2z"/>
	<path class="st0" d="M578.1,120c-0.1,5.8,2.2,6.9,7.3,6.8c5-0.1,8.7-0.2,8.4-6.9c-0.4-9.5-0.2-19,0-28.5
		c0.2-6.9,2.8-12.1,10.5-13.3c2.3-0.4,6,1.4,6.1-3c0-3.5,1.7-7.9-1.1-10.2c-2.8-2.4-6.9-1-9.9,1.2c-2.1,1.5-4.1,3.3-6.8,5.5
		c0-8.4-5.7-7.3-10.6-6.9c-6.7,0.5-3.6,5.9-3.6,9C578.1,89.1,578.5,104.6,578.1,120z"/>
	<path class="st0" d="M1025.3,198.9c-2.6-1.9-6.4-0.5-9.2,1.5c-2.4,1.7-4.5,3.7-7.4,6.3c0.9-8.8-4.9-7.8-10-7.6
		c-6.8,0.3-3.9,5.6-3.9,8.8c-0.3,15.5,0.2,31-0.3,46.4c-0.2,5.9,2.1,7.1,7.3,6.7c4.5-0.3,9,0.8,8.5-6.5c-0.6-9.8-0.3-19.6,0-29.5
		c0.2-6.6,3.1-11.3,10.3-12.5c2.2-0.4,6.1,1.7,6.2-2.8C1026.7,206.1,1028.7,201.4,1025.3,198.9z"/>
	<path class="st0" d="M1182.4,335c-2.4,1.5-4.4,3.7-7.7,6.5c0.7-9.1-5-7.8-9.9-7.4c-6.7,0.6-3.4,6-3.5,9
		c-0.3,15.2,0.1,30.3-0.3,45.5c-0.2,5.9,2.4,6.8,7.4,6.7c4.7-0.1,8-0.2,7.7-6.5c-0.5-8.9-0.3-17.8-0.1-26.8
		c0.2-7.4,2.5-13.5,10.9-15.2c2.6-0.5,6.7,1.3,6.4-3.7c-0.2-3.4,1.9-7.6-1.7-9.9C1188.7,331.4,1185.2,333.3,1182.4,335z"/>
	<path class="st0" d="M860.7,335.3c-2.2,1.4-4,3.5-7.6,6.7c1.4-9.7-4.3-7.9-8.9-8c-6.2-0.1-4.1,4.5-4.2,7.6
		c-0.1,15.7,0.2,31.4-0.2,47.1c-0.1,6,2.6,6.7,7.5,6.6c4.7,0,7.9-0.3,7.6-6.5c-0.5-8.9-0.3-17.8-0.1-26.7
		c0.2-7.3,2.5-13.4,10.7-15.3c2.5-0.6,6.7,1.4,6.5-3.6c-0.1-3.4,1.9-7.7-1.5-9.9C867.4,331.3,863.7,333.4,860.7,335.3z"/>
	<path class="st0" d="M1705.8,126.8c5-0.2,8.6-0.3,8.1-7c-0.6-8-0.1-16-0.1-24c0-8-0.4-16.1,0.1-24c0.4-6.2-2.3-7.5-7.8-7.3
		c-5,0.2-8.4,0.3-8.2,7c0.5,16,0.4,32.1,0,48.1C1697.8,125.7,1700.3,127,1705.8,126.8z"/>
	<path class="st0" d="M1362.3,205.1c0.1-6.6-3.9-6-8.2-6.2c-4.8-0.2-8,0.6-7.7,6.7c0.4,8,0.1,16.1,0.1,24.1c0,8.3,0.4,16.7-0.1,25
		c-0.4,6.5,3.2,6.5,7.8,6.3c4.1-0.2,8.3,1,8.2-5.9C1361.9,238.4,1361.9,221.8,1362.3,205.1z"/>
	<path class="st0" d="M1760.6,205.1c0.1-6.6-3.9-6-8.2-6.2c-4.8-0.2-8,0.6-7.7,6.7c0.4,8,0.1,16.1,0.1,24.1c0,8.3,0.4,16.7-0.1,25
		c-0.4,6.5,3.2,6.5,7.8,6.3c4.1-0.2,8.3,0.9,8.2-5.9C1760.2,238.4,1760.3,221.8,1760.6,205.1z"/>
	<path class="st0" d="M1002.8,126.7c3.7-0.4,9,1.9,9-5.1c0-17.3,0-34.5,0-51.8c0-7-5.3-4.7-9-5.1c-4.1-0.5-6.8,0.4-6.6,5.6
		c0.3,8.3,0.1,16.7,0.1,25c0,8.6,0.3,17.3-0.1,25.9C996,126.2,998.7,127.1,1002.8,126.7z"/>
	<path class="st0" d="M812.6,126.7c3.7-0.4,9,1.9,9-5.2c0-17.3,0-34.5,0-51.8c0-7-5.3-4.7-9-5.1c-4.1-0.5-6.8,0.4-6.6,5.6
		c0.3,8.3,0.1,16.7,0.1,25c0,8.6,0.3,17.3-0.1,25.9C805.8,126.3,808.5,127.1,812.6,126.7z"/>
	<path class="st0" d="M644.7,199c-4,0-7.7-0.5-7.6,5.7c0.3,16.9,0.3,33.8,0,50.7c-0.1,6.2,3.6,5.6,7.5,5.6c3.8,0,7.9,0.8,7.6-5.5
		c-0.4-8.6-0.1-17.2-0.1-25.8c0-8.3-0.3-16.6,0.1-24.9C652.5,198.7,648.8,199,644.7,199z"/>
	<path class="st0" d="M890.5,333.9c-3.9,0-7.8-0.6-7.5,5.5c0.4,8.3,0.1,16.6,0.1,24.9c0,8.6,0.2,17.2-0.1,25.8
		c-0.2,5.7,3.4,5.3,7,5.1c3.5-0.2,8,1.5,8-5c-0.2-16.9-0.3-33.8,0-50.6C898.1,333.4,894.5,333.9,890.5,333.9z"/>
	<path class="st0" d="M1706.5,53.8c6.4,0.4,9-1.7,7.4-8.1c1.7-7.1-2.3-7.4-7.9-7.8c-7.1-0.5-8.1,2.5-8.3,8.7
		C1697.4,54.2,1701.4,53.5,1706.5,53.8z"/>
	<path class="st0" d="M889.8,307.2c-6.5-0.4-7.9,2.1-7.9,8.1c-0.1,6.7,2.8,7.7,8.6,7.8c6.6,0.2,8.7-2.4,7.4-8.5
		C899.6,307.5,895.2,307.5,889.8,307.2z"/>
	<path class="st0" d="M1004.2,53.5c6,1.3,8.3-0.7,8.4-7.2c0.1-6.9-2.5-8.3-8.8-8.4c-6.6-0.1-7.5,2.6-7.7,8.3
		C996,52.5,997.9,55,1004.2,53.5z"/>
	<path class="st0" d="M813.6,53.4c5.5,1.3,8.6,0,8.4-6.9c-0.2-5.7-1-8.8-7.8-8.6c-5.6,0.2-8.9,0.8-8.5,7.6
		C806,50.9,806,55.3,813.6,53.4z"/>
	<path class="st0" d="M1752.6,173.4c-6.1-1.7-7.8,1-8,7.3c-0.2,7,3.2,7.3,8.6,7.4c5.6,0.1,7.8-1.2,7.7-7.3
		C1760.9,174.7,1759.5,171.7,1752.6,173.4z"/>
	<path class="st0" d="M645.3,173c-4.7,0.5-9.6-1-9.1,6.7c0.3,5.3,0.3,9.7,7.4,8.1c5.5,0.9,9.1,0.1,8.7-6.9
		C652,175.9,651.9,172.3,645.3,173z"/>
	<path class="st0" d="M1354.4,173c-4.6,0.4-8.9-0.6-8.3,6.6c0.4,5.1-0.2,9.9,7.1,8.2c5.4,0.6,9.4,0.6,9.2-6.8
		C1362.2,174.9,1360.7,172.4,1354.4,173z"/>
	<path class="st0" d="M1813.7,176c-13.8-2.2-14.1-1.9-19.8,16.2C1804.1,193,1806.2,191.2,1813.7,176z"/>
	<path class="st0" d="M1049.5,58.4c7.8,0.2,8.7-7.2,12.5-11.3c1.3-1.4,3.7-3.2,2.7-5.2c-1-2.1-3.8-0.6-5.5-1
		c-7.6-0.1-9.3,2-13.1,12.9C1044.7,57.9,1046.1,58.3,1049.5,58.4z"/>
	<path class="st0" d="M72.1,211c0.1-7.4-2.4-17.2,1.4-21.5c4.4-5.1,14.6-1.2,22.2-1.8c0.9-0.1,1.8-0.1,2.7,0c6.7,0.9,6.1-3.6,6-7.9
		c0-4.2,0.7-8.6-6-8.1c-5.3,0.4-10.8-0.2-16.1,0.2c-6.9,0.5-10.6-0.3-10.6-9.2c0-9.1,3.7-10.3,11.1-9.7c5.3,0.4,10.8-0.2,16.1,0.2
		c6.7,0.5,6-3.8,6.1-8c0.2-4.7,0-7.9-6.4-7.6c-13.4,0.5-26.9,0.4-40.3,0c-5.8-0.2-7,2.1-6.9,7.3c0.3,11.6,0.1,23.2,0.1,34.8
		c0,12.2,0,24.4,0,36.6c0,2.5-0.8,5.4,2.7,6.8C64.3,227.2,71.9,222.1,72.1,211z"/>
	<path class="st0" d="M131.6,324.2c-2.9-2.1-4.9-0.7-7.3,0.7c-8.3,4.7-16.6,9.3-24.9,14.1c-1.5,0.9-4.8,1.2-2.9,4.1
		c1.2,1.9,2.8,3.4,5.9,2.5c9.8-2.9,17.4,2.6,18.6,13.3c0.4,3.5,2.9,4,6.6,5.2c2.1-11.3,4-22.1,6.1-32.9
		C134.2,328.4,134.2,326.2,131.6,324.2z M123.1,344.2c-2.7,1.8-5.9-2.6-9.2-5.7c4.2-2.4,7.7-4.5,11.8-6.8
		C126.4,337.1,126,342.3,123.1,344.2z"/>
	<path class="st0" d="M75.9,283.1c-0.6-2-1.8-3.7,1.1-5c2.4-1,4.4-2.1,6,1c1.4,2.6,2.8,5.3,4.3,7.8c0.8,1.4,2,2,3.7,1
		c1.4-0.8,2.6-1.5,2.3-2.9c-3.1-5.9-5.9-11.5-8.9-16.9c-1.3-2.2-3.2-0.6-4.7,0.1c-8.2,4.2-16.4,8.4-24.7,12.6
		c-2.6,1.3-3.3,3.1-2.1,5.8c1.5,3.4,3.6,2,5.7,0.8c1.8-1,3.7-1.9,5.5-2.9c2.8-1.6,4.4-1.2,6.5,1.7c2,2.7,1.2,10.5,7.1,7.2
		C83.2,290.5,76.9,286.5,75.9,283.1z"/>
	<path class="st0" d="M175.8,345.2c-6.7-2.5-13.5-4.7-20.2-7.1c-2-0.7-3.8-1.8-5.2,0.9c-1.4,2.6-0.2,4.2,2.1,4.7
		c8.8,1.9,7.2,7.1,4.7,13.1c-2,4.6-3.2,9.6-5,14.3c-1,2.7-0.8,4.5,2.1,5.6c3.3,1.3,4.2-0.9,5-3.3c2.1-6.2,4.3-12.3,6.5-18.5
		c0.8-2.2,1.2-4.8,4.8-4.4c1.1,0.3,2.5,0.9,4,1.2c2.3,0.5,4.9,1.4,5.6-2.2C181,345.7,177.8,345.9,175.8,345.2z"/>
	<path class="st0" d="M106,301.2c-1.5-1.9-3-2.7-5.1-0.9c-7.7,6.4-15.5,12.8-23.2,19.2c-1.3,1.1-2,2.3-0.8,3.8
		c1,1.3,1.8,3.1,3.9,3.2c0.5-0.3,1.1-0.5,1.5-0.9c8-6.6,15.9-13.2,23.9-19.8C108.2,304.1,107.1,302.7,106,301.2z"/>
	<path class="st0" d="M314.1,157.4c-5.6,14.4-5.6,29.1-0.9,43.6c5,15.4,16.8,23.3,34.1,23.5c14.8,0.2,27-8.8,32.4-23.5
		c2.5-6.8,3.3-13.8,3.2-21.5c0.4-7.3-1.1-14.9-3.9-22.1c-5.5-13.9-17.1-21.4-32.9-21.3C330.8,136.1,319.6,143.5,314.1,157.4z
		 M334.8,159.2c1.9-5,5.9-8,11.8-7.9c5.8,0.1,9.4,3.1,11.8,8c3.2,6.6,3.2,13.8,3.5,20.9c-0.3,7.4-0.2,14.9-3.9,21.7
		c-2.6,4.8-6.2,7.7-12.1,7.6c-5.6-0.1-9.1-3.1-11-7.7C329.3,187.6,329.4,173.3,334.8,159.2z"/>
	<path class="st0" d="M345.2,317.9c-6.6-6-13.3-11.9-19.9-17.9c-2.1-1.9-3.9-2.4-6,0.2c-2,2.5-0.2,3.7,1.4,5.1
		c4.4,3.9,8.9,7.8,13.3,11.7c-0.2,0.4-0.4,0.7-0.6,1.1c-7.1-2.1-14.2-4-21.2-6.3c-3.9-1.3-5.6,1.2-7.5,3.3c-2.5,2.8,0.7,4.2,2.2,5.7
		c6.2,6.4,12.7,12.6,18.9,19c2.1,2.2,3.9,2.2,6.1,0.2c2.8-2.5,0.1-3.8-1.1-4.9c-4.8-4.3-9.8-8.4-14.7-12.6c0.7-0.8,1.3-1.5,2-2.3
		c7.4,2.1,14.8,4.1,22.2,6.4c3.5,1.1,5.8-0.2,7.5-3C349.6,320.6,346.8,319.3,345.2,317.9z"/>
	<path class="st0" d="M314,348.7c-8.1-6.1-16.3-12-24.6-18c-1.7-1.3-3.4-2.2-5.7-0.8c-2.6,1.5-2.8,3.3-2.4,5.9
		c1.6,11.2,3,22.4,4.5,33.7c3-0.7,5.7-0.6,6.3-4.3c1.6-10.6,8.1-14.5,17.9-10.7c3.1,1.2,4.7-0.5,6-2.1
		C318,350.1,315.1,349.5,314,348.7z M289.9,351.5c-0.7-4.7-1.3-8.4-1.9-13c4.3,2.7,9.4,3.9,9.8,8.4C298,349.5,293.5,351,289.9,351.5
		z"/>
	<path class="st0" d="M256.8,342.4c-10.3-0.2-13.6,4-9.8,16.1c1.9,5.9,3.7,11.9,5.5,17.8c0.8,2.5,1.5,5.4,5.3,4.3
		c4.3-1.2,2.4-4,1.4-6.4c-2-5-2.2-8.3,4.5-10.3c5.5-1.6,8.1-6.3,6.5-12.8C268.9,345.2,265.2,342.7,256.8,342.4z M257.8,359.6
		c-4.8,0.9-3.7-3.3-4.7-5.7c-1.7-4.1,1.7-4.5,4-4.9c3.5-0.6,5.2,1.9,6.4,4.3C263.1,357.2,261,359,257.8,359.6z"/>
	<path class="st0" d="M374,256.5c-6-2.7-10.9-0.7-15.3,3.7c-2,2-4.1,5.7-7.2,3.7c-3.3-2.1-1.9-5.8-0.1-8.7c1-1.6,2-3.1-0.2-4.4
		c-1.6-0.9-3.2-1.2-4.9,0.2c-3.7,3.2-4.9,13.7-1.4,17.4c4.7,4.8,10,4.6,15.2,0.7c1.4-1.1,2.6-2.4,3.9-3.7c2-1.9,4.1-3.9,7-2
		c3.1,2,2.4,4.8,1.3,7.9c-0.7,2.1-6,4.6-0.8,6.9c5,2.3,5.7-2.7,7.2-5.6c0.9-1.8,0.9-4,1.3-5.7C379.9,262.2,378.3,258.5,374,256.5z"
		/>
	<path class="st0" d="M336.1,280.3c-2.1-1.2-3.1,0.8-4.1,2.3c-1.5,2.1-0.4,3.1,1.4,4.1c8.8,5,17.5,10.1,26.2,15.2
		c3.7,2.2,4.6-0.5,5.5-3.5c-0.4-0.6-0.6-1.6-1.3-2C354.6,291,345.4,285.6,336.1,280.3z"/>
	<path class="st0" d="M177.1,130.4c6.2,3.3,18.5-1.2,19.4-8.2c1.6-13.4,11.4-9.4,19.4-10.4c9.4-1.2,10,5.1,11,11.3
		c0.9,5.5,3.3,8.5,9.4,7.5c2.3-0.4,4.8-0.3,7.2,0c5.9,0.8,6.1-1.7,4.8-6.5c-6.3-22-12.1-44.1-18.5-66.1c-4.6-15.6-0.7-12.6-18.1-13
		c-3.4,2.3-10.8-4-13.3,4.6c-7.3,25.4-14.6,50.8-21.9,76.3C176,127.2,174.7,129,177.1,130.4z M204.3,91.7c2.5-9.7,4.4-19.6,6.6-29.4
		c0.6,0,1.2,0,1.8,0.1c2.2,10,5.5,20,6.4,30.1c0.7,7.9-6.9,3.3-10.7,4.2C204.7,97.6,203.2,96,204.3,91.7z"/>
	<path class="st0" d="M209.1,130.3c-7.5,9-14.6,18.2-14.8,30.6c-0.2,10.5,7.5,19.2,16.8,19.4c10.1,0.3,17.6-8,17.7-22.4
		c-0.2-9.3-7.2-18.5-14.6-27.6C212.5,128.1,210.8,128.3,209.1,130.3z"/>
</g>
</svg>
