<svg width="40" height="40" viewBox="0 0 40 40" fill="none" xmlns="http://www.w3.org/2000/svg">
<path d="M20 0C9 0 0 8.9 0 20C0 31.1 8.9 40 20 40C31.1 40 40 31.1 40 20C40 9 31.1 0 20 0ZM33.6 18.8C32 19.7 30.4 20.7 28.8 21.6C27.6 22.3 26.7 21.8 26.6 20.4C26.6 20 26.5 20 26.2 20C23.9 20.2 22.3 21.9 22.3 24.2C22.3 27.2 22.3 30.2 22.3 33.2C22.3 34.1 22 34.8 21.3 35.4C20.6 36.1 19.8 35.9 19.1 35.6C18.2 35.2 17.6 34.6 17.6 33.5C17.6 32.4 17.6 31.3 17.6 30.2C17.6 28.3 16.4 26.7 14.7 26.2C14.6 26.2 14.5 26.1 14.4 26.1C13.6 25.9 13.6 25.9 13.5 26.7C13.4 27.8 12.4 28.2 11.4 27.6C10.2 26.9 9.1 26.3 7.9 25.6C7.4 25.3 6.9 25 6.4 24.7C5.3 24 5.3 22.9 6.4 22.3C8.1 21.3 9.7 20.3 11.4 19.4C12.4 18.8 13.5 19.5 13.5 20.7C13.5 20.9 13.4 21.2 13.8 21.2C15.2 21.2 16.4 21.6 17.7 22.2C17.7 18.8 17.7 15.6 17.7 12.3C17.7 11.9 17.4 12 17.2 11.9C15.8 11.8 15.3 10.9 16 9.7C16.9 8.1 17.9 6.5 18.8 4.9C19.2 3.9 20.5 4 21.1 5C22 6.7 23.1 8.4 24 10.1C24.5 11.1 24 12 22.9 12C22.4 12 22.2 12.2 22.2 12.7C22.3 13.8 22.2 14.9 22.2 16.1C22.5 16.1 22.7 15.9 22.9 15.9C23.9 15.5 25 15.3 26 15.2C26.3 15.2 26.5 15.1 26.5 14.7C26.5 13.3 27.5 12.8 28.7 13.5C30.3 14.4 31.9 15.3 33.5 16.3C34.8 17 34.8 18.1 33.6 18.8Z" fill="white"/>
</svg>
