<svg width="40" height="40" viewBox="0 0 40 40" fill="none" xmlns="http://www.w3.org/2000/svg">
<path d="M20 0C9 0 0 9 0 20C0 31 9 40 20 40C31 40 40 31 40 20C40 9 31 0 20 0ZM20 8.4C23.5 8.4 26.1 11.3 26.1 14.5C26.1 17.8 23.4 20.6 20 20.6C16.3 20.6 13.8 17.6 13.9 14.5C13.9 11.3 16.5 8.4 20 8.4ZM29.3 31.6C26.2 31.6 23.1 31.6 19.9 31.6C16.8 31.6 13.8 31.6 10.7 31.6C10 31.6 9.7 31.3 9.8 30.6C10 26.6 12.6 23.3 16.4 22.3C16.9 22.2 17.4 22.1 18 22.1C19.4 22.1 20.8 22 22.2 22.1C25.3 22.5 27.6 24.1 29.1 26.9C29.7 28.1 30 29.4 30.1 30.7C30.2 31.3 29.9 31.6 29.3 31.6Z" fill="white"/>
</svg>
